<svg width="106" height="106" viewBox="0 0 106 106" fill="none" xmlns="http://www.w3.org/2000/svg">
<path d="M12.9863 80.5309C14.6646 82.9453 16.5196 85.242 18.6396 87.362C20.7596 89.482 23.0563 91.337 25.4707 93.0153C27.8852 94.6937 25.5002 93.0448 25.5002 93.0448C33.5385 98.5803 43.0196 101.584 52.9719 101.584C65.9569 101.584 78.1469 96.5192 87.3335 87.362C96.5202 78.1753 101.555 65.9853 101.555 53.0003C101.555 43.0481 98.5519 33.5375 93.0163 25.5287L92.9869 25.4992C91.3085 23.0848 89.4535 20.7881 87.3335 18.6681C85.2135 16.5481 82.9169 14.6931 80.5024 13.0148C78.088 11.3364 80.473 12.9853 80.473 12.9853C72.4641 7.42033 62.9535 4.41699 53.0013 4.41699C40.0163 4.41699 27.8263 9.48144 18.6396 18.6387C9.48241 27.8253 4.41797 40.0153 4.41797 53.0003C4.41797 62.9526 7.4213 72.4631 12.9569 80.472C12.9569 80.5014 12.9863 80.5014 12.9863 80.5309ZM98.6402 53.0003C98.6402 65.1903 93.8996 76.6442 85.2724 85.2714C76.6452 93.8987 65.1913 98.6392 53.0013 98.6392C44.3152 98.6392 36.0413 96.1953 28.8569 91.6903L91.6913 28.8559C96.1963 36.0403 98.6402 44.3142 98.6402 53.0003ZM85.2724 20.7292C87.0391 22.4959 88.5996 24.4098 90.013 26.3825L26.3835 90.012C24.4107 88.5692 22.4969 87.0087 20.7302 85.2714C18.9635 83.5048 17.403 81.5909 15.9896 79.6181L79.6191 15.9887C81.5919 17.402 83.5057 18.9625 85.2724 20.7292ZM20.7302 20.7292C29.3574 12.102 40.8113 7.36144 53.0013 7.36144C61.6874 7.36144 69.9613 9.80533 77.1457 14.3103L14.3113 77.1448C9.8063 69.9603 7.36241 61.6864 7.36241 53.0003C7.36241 40.8103 12.103 29.3564 20.7302 20.7292Z" fill="#D3B7FF"/>
</svg>
