<svg width="45" height="45" viewBox="0 0 45 45" fill="none" xmlns="http://www.w3.org/2000/svg">
<g clip-path="url(#clip0_304_100)">
<path d="M37.4779 23.6081C36.4325 22.2563 34.8549 21.3277 32.7452 20.823C35.4318 19.4527 36.6124 17.1269 36.2882 13.8452C36.1799 12.6552 35.851 11.6239 35.3008 10.7497C34.7503 9.87534 34.0074 9.17241 33.0693 8.64064C32.1319 8.10821 31.1124 7.70289 30.0132 7.42346C28.9136 7.14403 27.6513 6.94114 26.2269 6.81506V0H22.0626V6.62571C21.3415 6.62571 20.2417 6.64371 18.7635 6.6798V0H14.5986V6.81506C14.0034 6.83315 13.1291 6.84234 11.9753 6.84234L6.24219 6.81506V11.2503H9.24384C10.6141 11.2503 11.4164 11.8635 11.6507 13.0893V20.851C11.8313 20.851 11.9753 20.8603 12.0836 20.8783H11.6507V31.7494C11.5067 32.6687 10.9839 33.1288 10.0823 33.1288H7.08086L6.24238 38.0779H11.6512C11.9938 38.0779 12.4893 38.0824 13.1386 38.0906C13.7876 38.0997 14.2742 38.1042 14.5988 38.1042V45.0003H18.7644V38.1853C19.5214 38.2038 20.6211 38.2126 22.0634 38.2126V45.0003H26.2279V38.1042C27.7066 38.0322 29.0181 37.8977 30.1625 37.6987C31.3074 37.4997 32.4029 37.1892 33.4484 36.7652C34.4937 36.3418 35.368 35.8141 36.071 35.1831C36.7744 34.5526 37.3554 33.7499 37.8159 32.7762C38.2749 31.8025 38.5683 30.6756 38.6941 29.3953C38.9295 26.8899 38.5236 24.9606 37.4779 23.6081ZM18.8445 11.547C18.9708 11.547 19.3268 11.5425 19.9128 11.5334C20.499 11.5241 20.9856 11.5152 21.3732 11.5061C21.7609 11.4972 22.2838 11.5197 22.9421 11.5738C23.6001 11.6279 24.1544 11.7002 24.605 11.7901C25.0556 11.8801 25.5519 12.0289 26.0923 12.2363C26.6336 12.4434 27.066 12.696 27.3901 12.9934C27.7149 13.2908 27.9898 13.6696 28.2148 14.1294C28.4404 14.5891 28.5531 15.1164 28.5531 15.7113C28.5531 16.2161 28.4721 16.676 28.3101 17.0909C28.1483 17.5055 27.9043 17.8526 27.5801 18.1321C27.2559 18.4116 26.9217 18.6552 26.5791 18.8624C26.2369 19.0695 25.7993 19.2364 25.2676 19.3625C24.736 19.4888 24.2718 19.588 23.8754 19.6599C23.4787 19.7321 22.983 19.7818 22.388 19.8087C21.7928 19.8356 21.3419 19.854 21.0356 19.8629C20.729 19.8718 20.3099 19.8718 19.7779 19.8629C19.2457 19.854 18.9351 19.8493 18.8448 19.8493V11.5469L18.8445 11.547ZM30.2168 29.9635C30.0451 30.3784 29.8246 30.7392 29.5543 31.0459C29.2836 31.3519 28.9274 31.6226 28.4859 31.8566C28.0445 32.0914 27.6159 32.2803 27.2015 32.4246C26.7867 32.5694 26.2861 32.6949 25.7008 32.8035C25.1141 32.9117 24.6006 32.9879 24.1584 33.0333C23.7169 33.0785 23.1898 33.1144 22.5765 33.1416C21.9638 33.1682 21.4857 33.1819 21.1433 33.1819C20.8007 33.1819 20.3679 33.177 19.845 33.1682C19.3219 33.1597 18.9887 33.1552 18.8443 33.1552V24.014C18.9884 24.014 19.4166 24.0052 20.1289 23.9868C20.8413 23.9687 21.4224 23.9602 21.8732 23.9602C22.3239 23.9602 22.9462 23.9868 23.7397 24.0413C24.5326 24.095 25.1997 24.1758 25.741 24.284C26.2817 24.3923 26.8717 24.5589 27.5122 24.7845C28.1521 25.0097 28.6707 25.2846 29.0675 25.6091C29.4642 25.9342 29.7975 26.3483 30.0678 26.8532C30.3388 27.3579 30.474 27.935 30.474 28.5842C30.4739 29.0895 30.3884 29.5485 30.2168 29.9635Z" fill="white"/>
</g>
<defs>
<clipPath id="clip0_304_100">
<rect width="45" height="45" fill="white"/>
</clipPath>
</defs>
</svg>
