<svg width="80" height="80" viewBox="0 0 80 80" fill="none" xmlns="http://www.w3.org/2000/svg">
<path fill-rule="evenodd" clip-rule="evenodd" d="M14.9987 20C14.0782 20 13.332 20.7462 13.332 21.6667C13.332 22.5871 14.0782 23.3333 14.9987 23.3333H64.9987C65.9191 23.3333 66.6654 22.5871 66.6654 21.6667C66.6654 20.7462 65.9191 20 64.9987 20H14.9987ZM64.9987 41.6667H14.9987C14.0782 41.6667 13.332 40.9203 13.332 40C13.332 39.0797 14.0782 38.3333 14.9987 38.3333H64.9987C65.9191 38.3333 66.6654 39.0797 66.6654 40C66.6654 40.9203 65.9191 41.6667 64.9987 41.6667ZM13.332 58.3333C13.332 57.413 14.0782 56.6667 14.9987 56.6667H64.9987C65.9191 56.6667 66.6654 57.413 66.6654 58.3333C66.6654 59.2537 65.9191 60 64.9987 60H14.9987C14.0782 60 13.332 59.2537 13.332 58.3333Z" fill="black"/>
</svg>
