<svg width="32" height="32" viewBox="0 0 32 32" fill="none" xmlns="http://www.w3.org/2000/svg">
<path fill-rule="evenodd" clip-rule="evenodd" d="M2.875 5C2.39175 5 2 5.39175 2 5.875C2 6.35825 2.39175 6.75 2.875 6.75H29.125C29.6082 6.75 30 6.35825 30 5.875C30 5.39175 29.6082 5 29.125 5H2.875ZM29.125 16.375H2.875C2.39175 16.375 2 15.9832 2 15.5C2 15.0168 2.39175 14.625 2.875 14.625H29.125C29.6082 14.625 30 15.0168 30 15.5C30 15.9832 29.6082 16.375 29.125 16.375ZM2 25.125C2 24.6418 2.39175 24.25 2.875 24.25H29.125C29.6082 24.25 30 24.6418 30 25.125C30 25.6082 29.6082 26 29.125 26H2.875C2.39175 26 2 25.6082 2 25.125Z" fill="black"/>
</svg>
