<svg width="55" height="55" viewBox="0 0 55 55" fill="none" xmlns="http://www.w3.org/2000/svg">
<path fill-rule="evenodd" clip-rule="evenodd" d="M27.4993 52.7087C41.4215 52.7087 52.7077 41.4224 52.7077 27.5003C52.7077 13.5782 41.4215 2.29199 27.4993 2.29199C13.5772 2.29199 2.29102 13.5782 2.29102 27.5003C2.29102 41.4224 13.5772 52.7087 27.4993 52.7087ZM50.416 27.5003C50.416 40.1567 40.1558 50.417 27.4993 50.417C14.8428 50.417 4.58268 40.1567 4.58268 27.5003C4.58268 14.8438 14.8428 4.58366 27.4993 4.58366C40.1558 4.58366 50.416 14.8438 50.416 27.5003ZM40.9138 20.2897C41.3612 19.8422 41.3612 19.1167 40.9138 18.6693C40.4663 18.2218 39.7407 18.2218 39.2932 18.6693L25.2077 32.7549L17.9971 25.5442C17.5496 25.0968 16.8241 25.0968 16.3766 25.5442C15.9291 25.9917 15.9291 26.7173 16.3766 27.1648L24.3974 35.1857C24.6123 35.4004 24.9038 35.5212 25.2077 35.5212C25.5116 35.5212 25.8031 35.4004 26.0178 35.1857L40.9138 20.2897Z" fill="#D3B7FF"/>
</svg>
