<svg width="106" height="106" viewBox="0 0 106 106" fill="none" xmlns="http://www.w3.org/2000/svg">
<path d="M73.337 35.125C72.9358 35.125 72.5327 35.1353 72.1217 35.1705C71.8417 35.1948 71.5828 35.3292 71.4019 35.5443C71.2209 35.7594 71.1329 36.0375 71.157 36.3175C71.1812 36.5975 71.3156 36.8564 71.5307 37.0374C71.7458 37.2183 72.0239 37.3064 72.3039 37.2823C72.635 37.2539 72.975 37.245 73.337 37.245C81.3924 37.245 87.9016 43.7531 87.9016 51.7972C87.9016 59.8526 81.3924 66.3619 73.337 66.3619C65.2816 66.3619 58.7723 59.8526 58.7723 51.7972C58.7723 49.7306 59.2061 47.7557 59.9855 45.9796C60.0981 45.7224 60.1041 45.4309 60.002 45.1693C59.8999 44.9077 59.6981 44.6973 59.4411 44.5843C59.1838 44.4717 58.8923 44.4657 58.6307 44.5678C58.3691 44.6699 58.1587 44.8717 58.0457 45.1287C57.1503 47.1687 56.6523 49.4331 56.6523 51.7972C56.6523 60.9986 64.1356 68.4819 73.337 68.4819C82.5384 68.4819 90.0216 60.9986 90.0216 51.7972C90.0216 42.6058 82.5384 35.125 73.337 35.125Z" fill="#D3B7FF"/>
<path d="M73.3385 44.377C73.1521 44.377 72.9689 44.4261 72.8075 44.5196C72.6461 44.613 72.5122 44.7473 72.4193 44.909L68.7569 51.2752C68.665 51.4361 68.6168 51.6182 68.6172 51.8034C68.6176 51.9887 68.6665 52.1706 68.7591 52.3311L72.4235 58.6973C72.5165 58.8585 72.6503 58.9924 72.8115 59.0855C72.9727 59.1785 73.1555 59.2275 73.3416 59.2275C73.5278 59.2275 73.7106 59.1785 73.8718 59.0855C74.033 58.9924 74.1668 58.8585 74.2598 58.6973L77.9222 52.3311C78.0148 52.1702 78.0636 51.9878 78.0636 51.8021C78.0636 51.6165 78.0148 51.4341 77.9222 51.2732L74.2557 44.907C74.1627 44.7459 74.029 44.6122 73.8681 44.5192C73.7071 44.4262 73.5245 44.3771 73.3385 44.377ZM73.3385 47.5611L75.7815 51.8011L73.3406 56.0432L70.8997 51.8032L73.3385 47.5611Z" fill="#D3B7FF"/>
<path d="M62.0518 70.5319C59.8866 70.4419 57.6693 70.775 55.5158 71.5836C46.902 74.8166 42.5253 84.454 45.7543 93.0569C48.9884 101.67 58.6242 106.047 67.2379 102.814C75.8516 99.5802 80.2283 89.9443 76.9953 81.3306C74.5735 74.8784 68.5474 70.8016 62.0518 70.5319ZM61.9752 72.6456C67.6466 72.8753 72.8927 76.4277 75.012 82.0738C77.8422 89.6145 74.0354 97.9976 66.4947 100.829C58.954 103.659 50.571 99.8523 47.7397 92.3115C44.9141 84.7833 48.7206 76.3992 56.2611 73.569C58.1463 72.8612 60.0847 72.5691 61.9752 72.6456Z" fill="#D3B7FF"/>
<path d="M58.7641 80.2457C58.5899 80.3113 58.4359 80.4215 58.3178 80.5654C58.1997 80.7094 58.1216 80.8819 58.0913 81.0656L56.9008 88.3137C56.8707 88.4967 56.889 88.6844 56.954 88.858C57.0191 89.0317 57.1285 89.1852 57.2714 89.3033L62.942 93.976C63.0858 94.094 63.2581 94.1721 63.4417 94.2025C63.6252 94.2328 63.8135 94.2143 63.9876 94.1489C64.1617 94.0834 64.3155 93.9733 64.4336 93.8296C64.5517 93.6859 64.6299 93.5136 64.6604 93.3301L65.8508 86.0819C65.881 85.899 65.8626 85.7113 65.7976 85.5377C65.7326 85.364 65.6231 85.2105 65.4802 85.0923L59.8117 80.4196C59.6678 80.3011 59.4952 80.2226 59.3113 80.192C59.1273 80.1615 58.9386 80.18 58.7641 80.2457ZM59.8842 83.227L63.6604 86.3387L62.8675 91.1687L59.0912 88.0549L59.8842 83.227Z" fill="#D3B7FF"/>
<path d="M54.133 2.12012C41.7017 2.12012 31.5977 12.2237 31.5977 24.6389C31.5977 37.0702 41.7017 47.1743 54.133 47.1743C66.5643 47.1743 76.6684 37.0702 76.6684 24.6389C76.6684 12.2237 66.5643 2.12012 54.133 2.12012ZM54.133 4.24012C65.4181 4.24012 74.5484 13.3716 74.5484 24.6389C74.5484 35.924 65.4181 45.0543 54.133 45.0543C42.8479 45.0543 33.7177 35.924 33.7177 24.6389C33.7177 13.3716 42.8479 4.24012 54.133 4.24012Z" fill="#D3B7FF"/>
<path d="M54.13 7.9707C44.9296 7.9707 37.4453 15.4513 37.4453 24.6409C37.4453 33.8413 44.9295 41.3255 54.13 41.3255C63.3304 41.3255 70.8146 33.8413 70.8146 24.6409C70.8146 15.4513 63.3305 7.96957 54.13 7.9707ZM54.13 10.0907C62.1841 10.0897 68.6946 16.5991 68.6946 24.6409C68.6946 32.6951 62.1842 39.2055 54.13 39.2055C46.0758 39.2055 39.5653 32.6951 39.5653 24.6409C39.5653 16.5991 46.0757 10.0907 54.13 10.0907Z" fill="#D3B7FF"/>
<path d="M54.1281 15.6143C53.9416 15.6143 53.7584 15.6635 53.597 15.7569C53.4356 15.8503 53.3017 15.9846 53.2089 16.1463L48.6252 24.1191C48.5329 24.2798 48.4844 24.4618 48.4844 24.647C48.4844 24.8323 48.5329 25.0143 48.6252 25.175L53.2151 33.1498C53.3081 33.311 53.4419 33.4449 53.6031 33.538C53.7643 33.631 53.9471 33.68 54.1332 33.68C54.3194 33.68 54.5022 33.631 54.6634 33.538C54.8246 33.4449 54.9584 33.311 55.0514 33.1498L59.6372 25.175C59.7294 25.0143 59.778 24.8323 59.778 24.647C59.778 24.4618 59.7294 24.2798 59.6372 24.1191L55.0473 16.1463C54.9544 15.9846 54.8205 15.8503 54.6591 15.7569C54.4977 15.6635 54.3145 15.6143 54.1281 15.6143ZM54.1302 18.8005L57.4965 24.645L54.1323 30.4957L50.7659 24.647L54.1302 18.8005Z" fill="#D3B7FF"/>
<path d="M32.654 45.0605C28.3828 45.0594 24.1124 46.6852 20.8635 49.9341C14.358 56.4396 14.358 67.0218 20.8635 73.5273C27.3691 80.0329 37.9513 80.0329 44.4568 73.5273C50.9545 67.0297 50.9541 56.4479 44.4486 49.9423C41.1958 46.6896 36.9251 45.0617 32.654 45.0605ZM32.6519 47.1681C36.3763 47.1691 40.1021 48.5937 42.9496 51.4413C48.6446 57.1363 48.6439 66.3425 42.9579 72.0284C37.2628 77.7235 28.0574 77.7235 22.3624 72.0284C16.6674 66.3334 16.6674 57.128 22.3624 51.433C25.2054 48.59 28.9274 47.1671 32.6519 47.1681Z" fill="#D3B7FF"/>
<path d="M36.8796 56.2095L29.7888 58.1224C29.6097 58.1708 29.4465 58.2652 29.3153 58.3963C29.1842 58.5275 29.0897 58.6908 29.0414 58.8698L27.1305 65.9627C27.0818 66.1428 27.0815 66.3325 27.1295 66.5127C27.1776 66.6929 27.2724 66.8573 27.4042 66.9892C27.5361 67.121 27.7005 67.2158 27.8807 67.2639C28.0609 67.3119 28.2506 67.3116 28.4307 67.2629L35.5215 65.3499C35.7008 65.3014 35.8643 65.2067 35.9954 65.0751C36.1266 64.9436 36.2209 64.7799 36.2689 64.6004L38.1798 57.5076C38.228 57.3276 38.228 57.1382 38.1798 56.9583C38.1315 56.7784 38.0367 56.6144 37.9049 56.4828C37.7731 56.3511 37.6089 56.2566 37.4289 56.2086C37.2489 56.1606 37.0595 56.1609 36.8796 56.2095ZM35.654 58.7353L34.3828 63.4618L29.6563 64.735L30.9296 60.0106L35.654 58.7353Z" fill="#D3B7FF"/>
<path d="M73.337 35.125C72.9358 35.125 72.5327 35.1353 72.1217 35.1705C71.8417 35.1948 71.5828 35.3292 71.4019 35.5443C71.2209 35.7594 71.1329 36.0375 71.157 36.3175C71.1812 36.5975 71.3156 36.8564 71.5307 37.0374C71.7458 37.2183 72.0239 37.3064 72.3039 37.2823C72.635 37.2539 72.975 37.245 73.337 37.245C81.3924 37.245 87.9016 43.7531 87.9016 51.7972C87.9016 59.8526 81.3924 66.3619 73.337 66.3619C65.2816 66.3619 58.7723 59.8526 58.7723 51.7972C58.7723 49.7306 59.2061 47.7557 59.9855 45.9796C60.0981 45.7224 60.1041 45.4309 60.002 45.1693C59.8999 44.9077 59.6981 44.6973 59.4411 44.5843C59.1838 44.4717 58.8923 44.4657 58.6307 44.5678C58.3691 44.6699 58.1587 44.8717 58.0457 45.1287C57.1503 47.1687 56.6523 49.4331 56.6523 51.7972C56.6523 60.9986 64.1356 68.4819 73.337 68.4819C82.5384 68.4819 90.0216 60.9986 90.0216 51.7972C90.0216 42.6058 82.5384 35.125 73.337 35.125Z" fill="#D3B7FF"/>
<path d="M73.3385 44.377C73.1521 44.377 72.9689 44.4261 72.8075 44.5196C72.6461 44.613 72.5122 44.7473 72.4193 44.909L68.7569 51.2752C68.665 51.4361 68.6168 51.6182 68.6172 51.8034C68.6176 51.9887 68.6665 52.1706 68.7591 52.3311L72.4235 58.6973C72.5165 58.8585 72.6503 58.9924 72.8115 59.0855C72.9727 59.1785 73.1555 59.2275 73.3416 59.2275C73.5278 59.2275 73.7106 59.1785 73.8718 59.0855C74.033 58.9924 74.1668 58.8585 74.2598 58.6973L77.9222 52.3311C78.0148 52.1702 78.0636 51.9878 78.0636 51.8021C78.0636 51.6165 78.0148 51.4341 77.9222 51.2732L74.2557 44.907C74.1627 44.7459 74.029 44.6122 73.8681 44.5192C73.7071 44.4262 73.5245 44.3771 73.3385 44.377ZM73.3385 47.5611L75.7815 51.8011L73.3406 56.0432L70.8997 51.8032L73.3385 47.5611Z" fill="#D3B7FF"/>
<path d="M62.0518 70.5319C59.8866 70.4419 57.6693 70.775 55.5158 71.5836C46.902 74.8166 42.5253 84.454 45.7543 93.0569C48.9884 101.67 58.6242 106.047 67.2379 102.814C75.8516 99.5802 80.2283 89.9443 76.9953 81.3306C74.5735 74.8784 68.5474 70.8016 62.0518 70.5319ZM61.9752 72.6456C67.6466 72.8753 72.8927 76.4277 75.012 82.0738C77.8422 89.6145 74.0354 97.9976 66.4947 100.829C58.954 103.659 50.571 99.8523 47.7397 92.3115C44.9141 84.7833 48.7206 76.3992 56.2611 73.569C58.1463 72.8612 60.0847 72.5691 61.9752 72.6456Z" fill="#D3B7FF"/>
<path d="M58.7641 80.2457C58.5899 80.3113 58.4359 80.4215 58.3178 80.5654C58.1997 80.7094 58.1216 80.8819 58.0913 81.0656L56.9008 88.3137C56.8707 88.4967 56.889 88.6844 56.954 88.858C57.0191 89.0317 57.1285 89.1852 57.2714 89.3033L62.942 93.976C63.0858 94.094 63.2581 94.1721 63.4417 94.2025C63.6252 94.2328 63.8135 94.2143 63.9876 94.1489C64.1617 94.0834 64.3155 93.9733 64.4336 93.8296C64.5517 93.6859 64.6299 93.5136 64.6604 93.3301L65.8508 86.0819C65.881 85.899 65.8626 85.7113 65.7976 85.5377C65.7326 85.364 65.6231 85.2105 65.4802 85.0923L59.8117 80.4196C59.6678 80.3011 59.4952 80.2226 59.3113 80.192C59.1273 80.1615 58.9386 80.18 58.7641 80.2457ZM59.8842 83.227L63.6604 86.3387L62.8675 91.1687L59.0912 88.0549L59.8842 83.227Z" fill="#D3B7FF"/>
<path d="M54.133 2.12012C41.7017 2.12012 31.5977 12.2237 31.5977 24.6389C31.5977 37.0702 41.7017 47.1743 54.133 47.1743C66.5643 47.1743 76.6684 37.0702 76.6684 24.6389C76.6684 12.2237 66.5643 2.12012 54.133 2.12012ZM54.133 4.24012C65.4181 4.24012 74.5484 13.3716 74.5484 24.6389C74.5484 35.924 65.4181 45.0543 54.133 45.0543C42.8479 45.0543 33.7177 35.924 33.7177 24.6389C33.7177 13.3716 42.8479 4.24012 54.133 4.24012Z" fill="#D3B7FF"/>
<path d="M54.13 7.9707C44.9296 7.9707 37.4453 15.4513 37.4453 24.6409C37.4453 33.8413 44.9295 41.3255 54.13 41.3255C63.3304 41.3255 70.8146 33.8413 70.8146 24.6409C70.8146 15.4513 63.3305 7.96957 54.13 7.9707ZM54.13 10.0907C62.1841 10.0897 68.6946 16.5991 68.6946 24.6409C68.6946 32.6951 62.1842 39.2055 54.13 39.2055C46.0758 39.2055 39.5653 32.6951 39.5653 24.6409C39.5653 16.5991 46.0757 10.0907 54.13 10.0907Z" fill="#D3B7FF"/>
<path d="M54.1281 15.6143C53.9416 15.6143 53.7584 15.6635 53.597 15.7569C53.4356 15.8503 53.3017 15.9846 53.2089 16.1463L48.6252 24.1191C48.5329 24.2798 48.4844 24.4618 48.4844 24.647C48.4844 24.8323 48.5329 25.0143 48.6252 25.175L53.2151 33.1498C53.3081 33.311 53.4419 33.4449 53.6031 33.538C53.7643 33.631 53.9471 33.68 54.1332 33.68C54.3194 33.68 54.5022 33.631 54.6634 33.538C54.8246 33.4449 54.9584 33.311 55.0514 33.1498L59.6372 25.175C59.7294 25.0143 59.778 24.8323 59.778 24.647C59.778 24.4618 59.7294 24.2798 59.6372 24.1191L55.0473 16.1463C54.9544 15.9846 54.8205 15.8503 54.6591 15.7569C54.4977 15.6635 54.3145 15.6143 54.1281 15.6143ZM54.1302 18.8005L57.4965 24.645L54.1323 30.4957L50.7659 24.647L54.1302 18.8005Z" fill="#D3B7FF"/>
<path d="M32.654 45.0605C28.3828 45.0594 24.1124 46.6852 20.8635 49.9341C14.358 56.4396 14.358 67.0218 20.8635 73.5273C27.3691 80.0329 37.9513 80.0329 44.4568 73.5273C50.9545 67.0297 50.9541 56.4479 44.4486 49.9423C41.1958 46.6896 36.9251 45.0617 32.654 45.0605ZM32.6519 47.1681C36.3763 47.1691 40.1021 48.5937 42.9496 51.4413C48.6446 57.1363 48.6439 66.3425 42.9579 72.0284C37.2628 77.7235 28.0574 77.7235 22.3624 72.0284C16.6674 66.3334 16.6674 57.128 22.3624 51.433C25.2054 48.59 28.9274 47.1671 32.6519 47.1681Z" fill="#D3B7FF"/>
<path d="M36.8796 56.2095L29.7888 58.1224C29.6097 58.1708 29.4465 58.2652 29.3153 58.3963C29.1842 58.5275 29.0897 58.6908 29.0414 58.8698L27.1305 65.9627C27.0818 66.1428 27.0815 66.3325 27.1295 66.5127C27.1776 66.6929 27.2724 66.8573 27.4042 66.9892C27.5361 67.121 27.7005 67.2158 27.8807 67.2639C28.0609 67.3119 28.2506 67.3116 28.4307 67.2629L35.5215 65.3499C35.7008 65.3014 35.8643 65.2067 35.9954 65.0751C36.1266 64.9436 36.2209 64.7799 36.2689 64.6004L38.1798 57.5076C38.228 57.3276 38.228 57.1382 38.1798 56.9583C38.1315 56.7784 38.0367 56.6144 37.9049 56.4828C37.7731 56.3511 37.6089 56.2566 37.4289 56.2086C37.2489 56.1606 37.0595 56.1609 36.8796 56.2095ZM35.654 58.7353L34.3828 63.4618L29.6563 64.735L30.9296 60.0106L35.654 58.7353Z" fill="#D3B7FF"/>
</svg>
