<svg width="55" height="55" viewBox="0 0 55 55" fill="none" xmlns="http://www.w3.org/2000/svg">
<path d="M44.6879 31.8746V23.1261C45.5103 22.9885 46.2871 22.6534 46.9516 22.1497C47.6161 21.646 48.1486 20.9886 48.5033 20.234C48.858 19.4793 49.0243 18.6499 48.9882 17.8168C48.952 16.9837 48.7143 16.1719 48.2954 15.4508C47.8766 14.7298 47.2892 14.1211 46.5835 13.6769C45.8778 13.2327 45.0749 12.9663 44.2436 12.9005C43.4124 12.8347 42.5776 12.9714 41.8108 13.2991C41.044 13.6267 40.3681 14.1354 39.841 14.7816L32.3129 10.4332C32.6133 9.65214 32.7192 8.80971 32.6212 7.97862C32.5233 7.14754 32.2246 6.35278 31.7508 5.66296C31.2771 4.97314 30.6425 4.409 29.902 4.01923C29.1615 3.62946 28.3372 3.42578 27.5004 3.42578C26.6636 3.42578 25.8393 3.62946 25.0988 4.01923C24.3583 4.409 23.7238 4.97314 23.25 5.66296C22.7763 6.35278 22.4775 7.14754 22.3796 7.97862C22.2817 8.80971 22.3875 9.65214 22.6879 10.4332L15.1598 14.7816C14.6327 14.1354 13.9568 13.6267 13.1901 13.2991C12.4233 12.9714 11.5884 12.8347 10.7572 12.9005C9.92593 12.9663 9.12303 13.2327 8.41734 13.6769C7.71164 14.1211 7.1242 14.7298 6.70538 15.4508C6.28656 16.1719 6.04887 16.9837 6.01267 17.8168C5.97648 18.6499 6.14286 19.4793 6.49756 20.234C6.85226 20.9886 7.3847 21.646 8.04921 22.1497C8.71372 22.6534 9.49048 22.9885 10.3129 23.1261V31.8746C9.49048 32.0122 8.71372 32.3473 8.04921 32.851C7.3847 33.3547 6.85226 34.0121 6.49756 34.7668C6.14286 35.5214 5.97648 36.3508 6.01267 37.1839C6.04887 38.017 6.28656 38.8288 6.70538 39.5499C7.1242 40.2709 7.71164 40.8797 8.41734 41.3238C9.12303 41.768 9.92593 42.0345 10.7572 42.1003C11.5884 42.1661 12.4233 42.0293 13.1901 41.7016C13.9568 41.374 14.6327 40.8653 15.1598 40.2191L22.6879 44.5675C22.3875 45.3486 22.2817 46.191 22.3796 47.0221C22.4775 47.8532 22.7763 48.6479 23.25 49.3378C23.7238 50.0276 24.3583 50.5917 25.0988 50.9815C25.8393 51.3713 26.6636 51.5749 27.5004 51.5749C28.3372 51.5749 29.1615 51.3713 29.902 50.9815C30.6425 50.5917 31.2771 50.0276 31.7508 49.3378C32.2246 48.6479 32.5233 47.8532 32.6212 47.0221C32.7192 46.191 32.6133 45.3486 32.3129 44.5675L39.841 40.2191C40.3681 40.8653 41.044 41.374 41.8108 41.7016C42.5776 42.0293 43.4124 42.1661 44.2436 42.1003C45.0749 42.0345 45.8778 41.768 46.5835 41.3238C47.2892 40.8797 47.8766 40.2709 48.2954 39.5499C48.7143 38.8288 48.952 38.017 48.9882 37.1839C49.0243 36.3508 48.858 35.5214 48.5033 34.7668C48.1486 34.0121 47.6161 33.3547 46.9516 32.851C46.2871 32.3473 45.5103 32.0122 44.6879 31.8746ZM43.8286 14.6097C44.5084 14.6097 45.173 14.8113 45.7383 15.1891C46.3036 15.5668 46.7442 16.1036 47.0044 16.7318C47.2646 17.3599 47.3326 18.0511 47.2 18.7179C47.0674 19.3847 46.74 19.9972 46.2592 20.4779C45.7785 20.9587 45.166 21.2861 44.4992 21.4187C43.8324 21.5513 43.1412 21.4833 42.5131 21.2231C41.885 20.9629 41.3481 20.5223 40.9704 19.957C40.5927 19.3917 40.391 18.7271 40.391 18.0472C40.391 17.1356 40.7532 16.2612 41.3979 15.6166C42.0425 14.9719 42.9169 14.6097 43.8286 14.6097ZM27.5004 5.15662C28.1803 5.15662 28.8449 5.35822 29.4102 5.73594C29.9755 6.11366 30.4161 6.65052 30.6763 7.27864C30.9364 7.90676 31.0045 8.59793 30.8719 9.26474C30.7392 9.93155 30.4118 10.5441 29.9311 11.0248C29.4504 11.5055 28.8378 11.8329 28.171 11.9656C27.5042 12.0982 26.8131 12.0301 26.1849 11.77C25.5568 11.5098 25.02 11.0692 24.6422 10.5039C24.2645 9.9386 24.0629 9.27399 24.0629 8.59412C24.0629 7.68244 24.4251 6.80809 25.0697 6.16344C25.7144 5.51878 26.5887 5.15662 27.5004 5.15662ZM7.73478 18.0472C7.73478 17.3674 7.93638 16.7028 8.3141 16.1375C8.69182 15.5722 9.22868 15.1316 9.8568 14.8714C10.4849 14.6112 11.1761 14.5432 11.8429 14.6758C12.5097 14.8084 13.1222 15.1358 13.603 15.6166C14.0837 16.0973 14.4111 16.7098 14.5437 17.3766C14.6764 18.0434 14.6083 18.7346 14.3481 19.3627C14.0879 19.9908 13.6473 20.5277 13.0821 20.9054C12.5168 21.2831 11.8522 21.4847 11.1723 21.4847C10.2606 21.4847 9.38625 21.1226 8.7416 20.4779C8.09694 19.8333 7.73478 18.9589 7.73478 18.0472ZM11.1723 40.391C10.4924 40.391 9.8278 40.1894 9.2625 39.8117C8.69721 39.4339 8.25662 38.8971 7.99644 38.269C7.73626 37.6408 7.66819 36.9497 7.80083 36.2829C7.93346 35.6161 8.26085 35.0035 8.7416 34.5228C9.22234 34.0421 9.83484 33.7147 10.5017 33.582C11.1685 33.4494 11.8596 33.5175 12.4878 33.7776C13.1159 34.0378 13.6527 34.4784 14.0305 35.0437C14.4082 35.609 14.6098 36.2736 14.6098 36.9535C14.6098 37.8652 14.2476 38.7395 13.603 39.3842C12.9583 40.0288 12.084 40.391 11.1723 40.391ZM27.5004 49.8441C26.8205 49.8441 26.1559 49.6425 25.5906 49.2648C25.0253 48.8871 24.5848 48.3502 24.3246 47.7221C24.0644 47.094 23.9963 46.4028 24.129 45.736C24.2616 45.0692 24.589 44.4567 25.0697 43.9759C25.5505 43.4952 26.163 43.1678 26.8298 43.0352C27.4966 42.9025 28.1878 42.9706 28.8159 43.2308C29.444 43.4909 29.9809 43.9315 30.3586 44.4968C30.7363 45.0621 30.9379 45.7267 30.9379 46.4066C30.9379 47.3183 30.5758 48.1926 29.9311 48.8373C29.2864 49.4819 28.4121 49.8441 27.5004 49.8441ZM31.4407 43.0894C30.9566 42.516 30.3533 42.0551 29.6727 41.739C28.9922 41.4228 28.2508 41.259 27.5004 41.259C26.75 41.259 26.0087 41.4228 25.3281 41.739C24.6475 42.0551 24.0442 42.516 23.5602 43.0894L16.0063 38.7281C16.2187 38.1605 16.3278 37.5595 16.3285 36.9535C16.3273 35.7359 15.8952 34.5579 15.1087 33.6284C14.3223 32.6988 13.2323 32.0775 12.0317 31.8746V23.1261C13.2323 22.9232 14.3223 22.3019 15.1087 21.3724C15.8952 20.4428 16.3273 19.2649 16.3285 18.0472C16.3278 17.4412 16.2187 16.8402 16.0063 16.2726L23.5602 11.9113C24.0442 12.4847 24.6475 12.9456 25.3281 13.2617C26.0087 13.5779 26.75 13.7417 27.5004 13.7417C28.2508 13.7417 28.9922 13.5779 29.6727 13.2617C30.3533 12.9456 30.9566 12.4847 31.4407 11.9113L38.9946 16.2726C38.7821 16.8402 38.673 17.4412 38.6723 18.0472C38.6735 19.2649 39.1056 20.4428 39.8921 21.3724C40.6785 22.3019 41.7686 22.9232 42.9692 23.1261V31.8746C41.7686 32.0775 40.6785 32.6988 39.8921 33.6284C39.1056 34.5579 38.6735 35.7359 38.6723 36.9535C38.673 37.5595 38.7821 38.1605 38.9946 38.7281L31.4407 43.0894ZM43.8286 40.391C43.1487 40.391 42.4841 40.1894 41.9188 39.8117C41.3535 39.4339 40.9129 38.8971 40.6527 38.269C40.3925 37.6408 40.3245 36.9497 40.4571 36.2829C40.5897 35.6161 40.9171 35.0035 41.3979 34.5228C41.8786 34.0421 42.4911 33.7147 43.1579 33.582C43.8247 33.4494 44.5159 33.5175 45.144 33.7776C45.7721 34.0378 46.309 34.4784 46.6867 35.0437C47.0644 35.609 47.2661 36.2736 47.2661 36.9535C47.2661 37.8652 46.9039 38.7395 46.2592 39.3842C45.6146 40.0288 44.7402 40.391 43.8286 40.391Z" fill="#D3B7FF"/>
</svg>
