<svg width="100" height="100" viewBox="0 0 100 100" fill="none" xmlns="http://www.w3.org/2000/svg">
<path d="M81.2493 57.9535V42.0473C82.7446 41.7971 84.1569 41.1879 85.3651 40.272C86.5733 39.3561 87.5414 38.1609 88.1863 36.7888C88.8312 35.4167 89.1337 33.9087 89.0679 32.394C89.0021 30.8793 88.5699 29.4032 87.8084 28.0922C87.047 26.7812 85.9789 25.6745 84.6958 24.8668C83.4127 24.0592 81.9529 23.5748 80.4415 23.4552C78.9302 23.3356 77.4123 23.5843 76.0182 24.18C74.624 24.7757 73.3951 25.7006 72.4368 26.8755L58.7493 18.9692C59.2956 17.5491 59.488 16.0175 59.3099 14.5064C59.1319 12.9953 58.5887 11.5503 57.7273 10.2961C56.866 9.0419 55.7123 8.01618 54.3659 7.30751C53.0195 6.59884 51.5208 6.22852 49.9993 6.22852C48.4778 6.22852 46.9792 6.59884 45.6328 7.30751C44.2864 8.01618 43.1327 9.0419 42.2713 10.2961C41.4099 11.5503 40.8668 12.9953 40.6887 14.5064C40.5107 16.0175 40.7031 17.5491 41.2493 18.9692L27.5618 26.8755C26.6036 25.7006 25.3747 24.7757 23.9805 24.18C22.5863 23.5843 21.0685 23.3356 19.5571 23.4552C18.0457 23.5748 16.5859 24.0592 15.3028 24.8668C14.0197 25.6745 12.9517 26.7812 12.1902 28.0922C11.4287 29.4032 10.9965 30.8793 10.9307 32.394C10.8649 33.9087 11.1674 35.4167 11.8123 36.7888C12.4572 38.1609 13.4253 39.3561 14.6335 40.272C15.8417 41.1879 17.254 41.7971 18.7493 42.0473V57.9535C17.254 58.2038 15.8417 58.813 14.6335 59.7289C13.4253 60.6447 12.4572 61.8399 11.8123 63.212C11.1674 64.5841 10.8649 66.0922 10.9307 67.6069C10.9965 69.1215 11.4287 70.5976 12.1902 71.9086C12.9517 73.2196 14.0197 74.3264 15.3028 75.134C16.5859 75.9416 18.0457 76.426 19.5571 76.5457C21.0685 76.6653 22.5863 76.4166 23.9805 75.8209C25.3747 75.2252 26.6036 74.3003 27.5618 73.1254L41.2493 81.0316C40.7031 82.4517 40.5107 83.9834 40.6887 85.4945C40.8668 87.0055 41.4099 88.4505 42.2713 89.7048C43.1327 90.959 44.2864 91.9847 45.6328 92.6934C46.9792 93.402 48.4778 93.7723 49.9993 93.7723C51.5208 93.7723 53.0195 93.402 54.3659 92.6934C55.7123 91.9847 56.866 90.959 57.7273 89.7048C58.5887 88.4505 59.1319 87.0055 59.3099 85.4945C59.488 83.9834 59.2956 82.4517 58.7493 81.0316L72.4368 73.1254C73.3951 74.3003 74.624 75.2252 76.0182 75.8209C77.4123 76.4166 78.9302 76.6653 80.4415 76.5457C81.9529 76.426 83.4127 75.9416 84.6958 75.134C85.9789 74.3264 87.047 73.2196 87.8084 71.9086C88.5699 70.5976 89.0021 69.1215 89.0679 67.6069C89.1337 66.0922 88.8312 64.5841 88.1863 63.212C87.5414 61.8399 86.5733 60.6447 85.3651 59.7289C84.1569 58.813 82.7446 58.2038 81.2493 57.9535ZM79.6868 26.563C80.923 26.563 82.1313 26.9295 83.1591 27.6163C84.187 28.303 84.988 29.2792 85.4611 30.4212C85.9341 31.5632 86.0579 32.8199 85.8167 34.0323C85.5756 35.2446 84.9803 36.3583 84.1062 37.2324C83.2322 38.1064 82.1185 38.7017 80.9061 38.9429C79.6938 39.184 78.4371 39.0602 77.2951 38.5872C76.153 38.1141 75.1769 37.3131 74.4901 36.2853C73.8034 35.2575 73.4368 34.0491 73.4368 32.813C73.4368 31.1554 74.0953 29.5656 75.2674 28.3935C76.4395 27.2214 78.0292 26.563 79.6868 26.563ZM49.9993 9.37549C51.2355 9.37549 52.4438 9.74204 53.4716 10.4288C54.4994 11.1156 55.3005 12.0917 55.7736 13.2337C56.2466 14.3757 56.3704 15.6324 56.1292 16.8448C55.8881 18.0572 55.2928 19.1708 54.4187 20.0449C53.5447 20.919 52.431 21.5142 51.2186 21.7554C50.0063 21.9965 48.7496 21.8728 47.6075 21.3997C46.4655 20.9267 45.4894 20.1256 44.8026 19.0978C44.1159 18.07 43.7493 16.8616 43.7493 15.6255C43.7493 13.9679 44.4078 12.3782 45.5799 11.2061C46.752 10.034 48.3417 9.37549 49.9993 9.37549ZM14.0618 32.813C14.0618 31.5768 14.4284 30.3685 15.1151 29.3406C15.8019 28.3128 16.778 27.5118 17.92 27.0387C19.0621 26.5657 20.3187 26.4419 21.5311 26.6831C22.7435 26.9242 23.8571 27.5195 24.7312 28.3935C25.6053 29.2676 26.2006 30.3813 26.4417 31.5936C26.6829 32.806 26.5591 34.0627 26.0861 35.2047C25.613 36.3468 24.8119 37.3229 23.7841 38.0096C22.7563 38.6964 21.5479 39.0629 20.3118 39.0629C18.6542 39.0629 17.0645 38.4045 15.8924 37.2324C14.7203 36.0603 14.0618 34.4706 14.0618 32.813ZM20.3118 73.4379C19.0757 73.4379 17.8673 73.0713 16.8395 72.3846C15.8117 71.6978 15.0106 70.7217 14.5376 69.5797C14.0645 68.4376 13.9407 67.181 14.1819 65.9686C14.4231 64.7562 15.0183 63.6426 15.8924 62.7685C16.7665 61.8944 17.8801 61.2992 19.0925 61.058C20.3049 60.8168 21.5615 60.9406 22.7036 61.4137C23.8456 61.8867 24.8217 62.6878 25.5085 63.7156C26.1953 64.7434 26.5618 65.9518 26.5618 67.1879C26.5618 68.8455 25.9033 70.4352 24.7312 71.6073C23.5591 72.7794 21.9694 73.4379 20.3118 73.4379ZM49.9993 90.6254C48.7632 90.6254 47.5548 90.2588 46.527 89.5721C45.4992 88.8853 44.6981 87.9092 44.2251 86.7672C43.752 85.6251 43.6283 84.3684 43.8694 83.1561C44.1106 81.9437 44.7058 80.83 45.5799 79.956C46.454 79.0819 47.5676 78.4866 48.78 78.2455C49.9924 78.0043 51.2491 78.1281 52.3911 78.6011C53.5331 79.0742 54.5092 79.8753 55.196 80.9031C55.8828 81.9309 56.2493 83.1392 56.2493 84.3754C56.2493 86.033 55.5908 87.6227 54.4187 88.7948C53.2466 89.9669 51.6569 90.6254 49.9993 90.6254ZM57.1634 78.3441C56.2833 77.3015 55.1863 76.4636 53.949 75.8888C52.7116 75.314 51.3637 75.0162 49.9993 75.0162C48.635 75.0162 47.287 75.314 46.0497 75.8888C44.8123 76.4636 43.7153 77.3015 42.8353 78.3441L29.1009 70.4145C29.4871 69.3825 29.6856 68.2898 29.6868 67.1879C29.6846 64.974 28.8989 62.8324 27.469 61.1423C26.0391 59.4521 24.0572 58.3225 21.8743 57.9535V42.0473C24.0572 41.6783 26.0391 40.5488 27.469 38.8586C28.8989 37.1685 29.6846 35.0268 29.6868 32.813C29.6856 31.7111 29.4871 30.6183 29.1009 29.5864L42.8353 21.6567C43.7153 22.6993 44.8123 23.5373 46.0497 24.1121C47.287 24.6869 48.635 24.9847 49.9993 24.9847C51.3637 24.9847 52.7116 24.6869 53.949 24.1121C55.1863 23.5373 56.2833 22.6993 57.1634 21.6567L70.8978 29.5864C70.5115 30.6183 70.3131 31.7111 70.3118 32.813C70.3141 35.0268 71.0997 37.1685 72.5296 38.8586C73.9595 40.5488 75.9414 41.6783 78.1243 42.0473V57.9535C75.9414 58.3225 73.9595 59.4521 72.5296 61.1423C71.0997 62.8324 70.3141 64.974 70.3118 67.1879C70.3131 68.2898 70.5115 69.3825 70.8978 70.4145L57.1634 78.3441ZM79.6868 73.4379C78.4507 73.4379 77.2423 73.0713 76.2145 72.3846C75.1867 71.6978 74.3856 70.7217 73.9126 69.5797C73.4395 68.4376 73.3158 67.181 73.5569 65.9686C73.7981 64.7562 74.3933 63.6426 75.2674 62.7685C76.1415 61.8944 77.2551 61.2992 78.4675 61.058C79.6799 60.8168 80.9366 60.9406 82.0786 61.4137C83.2206 61.8867 84.1968 62.6878 84.8835 63.7156C85.5703 64.7434 85.9368 65.9518 85.9368 67.1879C85.9368 68.8455 85.2784 70.4352 84.1062 71.6073C82.9341 72.7794 81.3444 73.4379 79.6868 73.4379Z" fill="#D3B7FF"/>
<path d="M32.8125 42.1875H29.6875C29.2731 42.1875 28.8757 42.3521 28.5826 42.6451C28.2896 42.9382 28.125 43.3356 28.125 43.75V56.25C28.125 56.6644 28.2896 57.0618 28.5826 57.3549C28.8757 57.6479 29.2731 57.8125 29.6875 57.8125H32.8125C34.8845 57.8125 36.8716 56.9894 38.3368 55.5243C39.8019 54.0591 40.625 52.072 40.625 50C40.625 47.928 39.8019 45.9409 38.3368 44.4757C36.8716 43.0106 34.8845 42.1875 32.8125 42.1875ZM32.8125 54.6875H31.25V45.3125H32.8125C34.0557 45.3125 35.248 45.8064 36.1271 46.6854C37.0061 47.5645 37.5 48.7568 37.5 50C37.5 51.2432 37.0061 52.4355 36.1271 53.3146C35.248 54.1936 34.0557 54.6875 32.8125 54.6875Z" fill="#D3B7FF"/>
<path d="M71.875 48.4375C71.875 46.7799 71.2165 45.1902 70.0444 44.0181C68.8723 42.846 67.2826 42.1875 65.625 42.1875C63.9674 42.1875 62.3777 42.846 61.2056 44.0181C60.0335 45.1902 59.375 46.7799 59.375 48.4375V51.5625C59.375 53.2201 60.0335 54.8098 61.2056 55.9819C62.3777 57.154 63.9674 57.8125 65.625 57.8125C67.2826 57.8125 68.8723 57.154 70.0444 55.9819C71.2165 54.8098 71.875 53.2201 71.875 51.5625V48.4375ZM68.75 51.5625C68.75 52.3913 68.4208 53.1862 67.8347 53.7722C67.2487 54.3583 66.4538 54.6875 65.625 54.6875C64.7962 54.6875 64.0013 54.3583 63.4153 53.7722C62.8292 53.1862 62.5 52.3913 62.5 51.5625V48.4375C62.5 47.6087 62.8292 46.8138 63.4153 46.2278C64.0013 45.6417 64.7962 45.3125 65.625 45.3125C66.4538 45.3125 67.2487 45.6417 67.8347 46.2278C68.4208 46.8138 68.75 47.6087 68.75 48.4375V51.5625Z" fill="#D3B7FF"/>
<path d="M51.0227 43.0863C50.8965 42.8178 50.6966 42.5909 50.4462 42.4319C50.1958 42.2729 49.9053 42.1885 49.6087 42.1885C49.3121 42.1885 49.0216 42.2729 48.7712 42.4319C48.5208 42.5909 48.3208 42.8178 48.1946 43.0863L42.3352 55.5863C42.1682 55.96 42.1545 56.3843 42.297 56.768C42.4396 57.1517 42.727 57.4642 43.0975 57.6382C43.4681 57.8122 43.8921 57.8338 44.2784 57.6985C44.6647 57.5631 44.9825 57.2816 45.1634 56.9144L46.2102 54.6878H53.0071L54.054 56.9222C54.1812 57.1893 54.3816 57.4148 54.6319 57.5724C54.8823 57.7301 55.1722 57.8135 55.468 57.8128C55.7311 57.8128 55.9899 57.7463 56.2204 57.6196C56.4509 57.4929 56.6457 57.31 56.7867 57.088C56.9277 56.8659 57.0104 56.6119 57.0271 56.3494C57.0438 56.0868 56.9939 55.8244 56.8821 55.5863L51.0227 43.0863ZM47.6555 51.5628L49.593 47.43L51.5618 51.5628H47.6555Z" fill="#D3B7FF"/>
</svg>
