<svg width="60" height="60" viewBox="0 0 60 60" fill="none" xmlns="http://www.w3.org/2000/svg">
<g clip-path="url(#clip0_202_35)">
<path d="M0 0V60H60V0H0ZM56.2887 56.2887H3.71134V3.71134H56.2887V56.2887Z" fill="white"/>
<g clip-path="url(#clip1_202_35)">
<path d="M20.6392 36.8387C27.8965 39.6709 34.0724 40.2226 41.071 35.8142C41.0197 35.8911 39.6353 37.9421 35.9947 38.9932C36.7638 40.0444 37.815 41.2493 37.815 41.2493C40.1481 41.2493 42.4298 40.5827 44.4038 39.3008C45.9421 38.2753 46.8137 36.5063 46.6343 34.6605C46.3266 31.507 45.5831 28.4305 44.4295 25.4823C42.9681 21.6367 39.4558 18.9703 35.3794 18.5857C35.0205 18.5601 34.7642 18.5601 34.6103 18.5601L34.2002 18.9703C38.8918 20.3034 41.2249 22.38 41.2761 22.457C34.0719 18.8164 25.5603 18.7652 18.3048 22.3032C18.3048 22.3032 20.6122 20.0214 25.714 18.8164L25.4064 18.5088C24.868 18.5088 24.3552 18.5601 23.8169 18.637C20.0481 19.2779 16.8948 21.8673 15.536 25.4309C14.3566 28.5074 13.5875 31.7377 13.3055 35.0193C13.1517 36.7627 13.9721 38.4804 15.4078 39.4803C17.3049 40.7365 19.561 41.4031 21.8428 41.4031C21.8428 41.4031 22.7657 40.1981 23.6887 39.1214C20.2276 38.0958 18.8176 36.0449 18.7919 35.9679L19.4433 36.3005C19.8327 36.4995 20.2319 36.6797 20.6392 36.8387ZM24.6629 34.6092C22.9965 34.5579 21.689 33.1478 21.7403 31.4557C21.7916 29.8662 23.0734 28.5843 24.6629 28.533C26.3294 28.5843 27.6369 29.9944 27.5856 31.6865C27.5087 33.2761 26.2525 34.558 24.6629 34.6092ZM35.123 34.6092C33.4566 34.5579 32.149 33.1478 32.2003 31.4557C32.2516 29.8662 33.5335 28.5843 35.123 28.533C36.7895 28.5843 38.097 29.9944 38.0457 31.6865C37.9945 33.2761 36.7125 34.558 35.123 34.6092Z" fill="white"/>
</g>
</g>
<defs>
<clipPath id="clip0_202_35">
<rect width="60" height="60" fill="white"/>
</clipPath>
<clipPath id="clip1_202_35">
<rect width="38.9691" height="38.9691" fill="white" transform="translate(10.4844 10.4844)"/>
</clipPath>
</defs>
</svg>
