<svg width="45" height="45" viewBox="0 0 45 45" fill="none" xmlns="http://www.w3.org/2000/svg">
<path d="M11.7243 30.4323C20.1047 33.7028 27.2364 34.3398 35.3181 29.2492C35.2589 29.3381 33.6602 31.7065 29.4562 32.9202C30.3444 34.1341 31.5582 35.5255 31.5582 35.5255C34.2523 35.5255 36.8872 34.7557 39.1667 33.2755C40.9431 32.0912 41.9496 30.0485 41.7424 27.917C41.3871 24.2755 40.5285 20.7229 39.1963 17.3183C37.5089 12.8776 33.453 9.79859 28.7457 9.35448C28.3312 9.32486 28.0352 9.32486 27.8576 9.32486L27.3839 9.79851C32.8017 11.338 35.4958 13.736 35.555 13.8249C27.2359 9.62088 17.407 9.56173 9.02862 13.6472C9.02862 13.6472 11.6931 11.0124 17.5845 9.62088L17.2292 9.26562C16.6075 9.26562 16.0154 9.32486 15.3937 9.41363C11.0418 10.1538 7.40036 13.1439 5.83125 17.259C4.46939 20.8116 3.58125 24.5419 3.25562 28.3314C3.07799 30.3445 4.02536 32.3281 5.68324 33.4827C7.874 34.9334 10.4793 35.7031 13.1141 35.7031C13.1141 35.7031 14.1799 34.3116 15.2457 33.0682C11.249 31.884 9.62074 29.5156 9.59112 29.4268L10.3433 29.8108C10.7929 30.0406 11.2539 30.2487 11.7243 30.4323ZM16.3707 27.8577C14.4464 27.7985 12.9365 26.1702 12.9957 24.2163C13.055 22.3807 14.5352 20.9005 16.3707 20.8413C18.2951 20.9005 19.805 22.5288 19.7457 24.4827C19.6569 26.3183 18.2062 27.7986 16.3707 27.8577ZM28.4496 27.8577C26.5253 27.7985 25.0154 26.1702 25.0746 24.2163C25.1339 22.3807 26.6141 20.9005 28.4496 20.8413C30.374 20.9005 31.8839 22.5288 31.8246 24.4827C31.7655 26.3183 30.2851 27.7986 28.4496 27.8577Z" fill="#D3B7FF"/>
</svg>
