<svg width="45" height="45" viewBox="0 0 45 45" fill="none" xmlns="http://www.w3.org/2000/svg">
<path d="M0 36.3476C4.08538 38.9616 8.93806 40.4865 14.1523 40.4865C31.1339 40.4865 40.4196 26.4512 40.4196 14.2783C40.4196 13.8797 40.4107 13.4821 40.3934 13.0868C42.1975 11.7885 43.7623 10.1661 45 8.31876C43.3443 9.05146 41.5653 9.54697 39.6975 9.76967C41.6038 8.62943 43.0675 6.82443 43.7567 4.67368C41.9727 5.72873 39.9972 6.49594 37.8945 6.9085C36.2104 5.11852 33.8108 4 31.1551 4C26.0569 4 21.923 8.12446 21.923 13.211C21.923 13.9325 22.005 14.6357 22.1624 15.31C14.49 14.9258 7.68694 11.259 3.13337 5.68586C2.33873 7.04657 1.88337 8.62832 1.88337 10.317C1.88337 13.5122 3.51283 16.3316 5.99051 17.9835C4.47656 17.9356 3.05301 17.5208 1.80859 16.831C1.80804 16.87 1.80804 16.9084 1.80804 16.9474C1.80804 21.4098 4.99051 25.1328 9.21373 25.9791C8.43917 26.189 7.62333 26.3026 6.78125 26.3026C6.18638 26.3026 5.60826 26.2447 5.04409 26.1367C6.21875 29.7962 9.62891 32.4592 13.6685 32.5332C10.5089 35.0041 6.5279 36.4767 2.20257 36.4767C1.45703 36.4767 0.722098 36.4333 0 36.3476Z" fill="#D3B7FF"/>
</svg>
