<svg width="561" height="690" viewBox="0 0 561 690" fill="none" xmlns="http://www.w3.org/2000/svg">
<g clip-path="url(#clip0_301_87)">
<rect width="561" height="690" fill="white"/>
<rect width="561" height="690" fill="#D3B7FF"/>
<path d="M261.056 471.64V433.88H272.176V472.68C272.176 482.36 266.176 488.84 254.736 488.84C244.496 488.84 238.336 483.24 238.336 472.36V466.92H248.416V471.8C248.416 477.16 250.176 479.8 254.736 479.8C259.856 479.8 261.056 477.48 261.056 471.64ZM301.064 479.32C309.064 479.32 315.464 473.72 315.464 461.16C315.464 448.6 310.344 441.96 301.064 441.96C291.704 441.96 286.504 448.6 286.504 461.16C286.504 473.72 291.864 479.32 301.064 479.32ZM301.064 488.84C284.744 488.84 275.544 478.84 275.544 460.92C275.544 442.92 284.744 432.12 301.064 432.12C317.384 432.12 326.424 442.92 326.424 461.16C326.424 479.4 317.384 488.84 301.064 488.84ZM340.898 487H329.778V433.88H340.898V487ZM387.979 487H377.739L355.019 451.32V487H344.699V433.88H356.459L377.579 468.04V433.88H387.979V487ZM442.702 469.32V433.88H454.062V469.32C454.062 482.2 446.142 488.84 432.222 488.84C419.342 488.84 411.262 482.76 411.262 469.96V433.88H422.542V468.92C422.542 475.48 426.062 479.64 432.062 479.64C439.182 479.64 442.702 476.28 442.702 469.32ZM498.777 449.56H488.217C487.657 444.12 484.377 441.48 477.657 441.48C471.417 441.48 468.137 443.72 468.137 447.72C468.137 451.08 470.457 453 476.377 454.44C482.377 455.88 488.217 457.32 492.137 459.08C496.777 461.16 500.457 464.44 500.457 471.96C500.457 483.64 491.657 488.84 479.257 488.84C466.137 488.84 457.017 483 456.777 471.08H467.497C467.657 476.52 472.217 479.88 479.337 479.88C485.897 479.88 489.657 477.08 489.657 472.36C489.657 469.24 488.057 467.08 481.417 465.64C474.857 464.2 470.617 463.24 466.857 461.56C461.177 459 457.977 455.16 457.977 448.44C457.977 438.92 464.457 432.12 477.417 432.12C490.857 432.12 498.377 439.4 498.777 449.56ZM516.335 487H505.535V476.52H516.335V487ZM513.775 472.28H508.255C506.175 459.56 505.135 448.52 505.135 439.56C505.135 437.4 505.135 435.48 505.535 433.88H516.575C516.735 435.64 516.895 437.64 516.895 439.8C516.895 448.6 515.855 459.56 513.775 472.28Z" fill="black"/>
<path d="M220.779 366.25C219.662 366.25 218.629 366.033 217.679 365.6C216.746 365.167 215.979 364.542 215.379 363.725L217.229 361.5C217.712 362.167 218.237 362.667 218.804 363C219.387 363.333 220.021 363.5 220.704 363.5C222.521 363.5 223.429 362.425 223.429 360.275V351.225H217.204V348.5H226.679V360.1C226.679 362.167 226.171 363.708 225.154 364.725C224.154 365.742 222.696 366.25 220.779 366.25ZM239.438 366.25C238.071 366.25 236.813 366.025 235.663 365.575C234.513 365.125 233.513 364.5 232.663 363.7C231.813 362.883 231.154 361.933 230.688 360.85C230.221 359.75 229.988 358.55 229.988 357.25C229.988 355.95 230.221 354.758 230.688 353.675C231.154 352.575 231.813 351.625 232.663 350.825C233.513 350.008 234.513 349.375 235.663 348.925C236.813 348.475 238.063 348.25 239.413 348.25C240.779 348.25 242.029 348.475 243.163 348.925C244.313 349.375 245.313 350.008 246.163 350.825C247.013 351.625 247.671 352.575 248.138 353.675C248.604 354.758 248.838 355.95 248.838 357.25C248.838 358.55 248.604 359.75 248.138 360.85C247.671 361.95 247.013 362.9 246.163 363.7C245.313 364.5 244.313 365.125 243.163 365.575C242.029 366.025 240.788 366.25 239.438 366.25ZM239.413 363.4C240.296 363.4 241.113 363.25 241.863 362.95C242.613 362.65 243.263 362.225 243.813 361.675C244.363 361.108 244.788 360.458 245.088 359.725C245.404 358.975 245.563 358.15 245.563 357.25C245.563 356.35 245.404 355.533 245.088 354.8C244.788 354.05 244.363 353.4 243.813 352.85C243.263 352.283 242.613 351.85 241.863 351.55C241.113 351.25 240.296 351.1 239.413 351.1C238.529 351.1 237.713 351.25 236.963 351.55C236.229 351.85 235.579 352.283 235.013 352.85C234.463 353.4 234.029 354.05 233.713 354.8C233.413 355.533 233.263 356.35 233.263 357.25C233.263 358.133 233.413 358.95 233.713 359.7C234.029 360.45 234.463 361.108 235.013 361.675C235.563 362.225 236.213 362.65 236.963 362.95C237.713 363.25 238.529 363.4 239.413 363.4ZM252.283 366V348.5H255.533V366H252.283ZM260.266 366V348.5H262.941L273.916 361.975H272.591V348.5H275.816V366H273.141L262.166 352.525H263.491V366H260.266ZM285.93 366.25C284.564 366.25 283.255 366.058 282.005 365.675C280.755 365.275 279.764 364.767 279.03 364.15L280.155 361.625C280.855 362.175 281.722 362.633 282.755 363C283.789 363.367 284.847 363.55 285.93 363.55C286.847 363.55 287.589 363.45 288.155 363.25C288.722 363.05 289.139 362.783 289.405 362.45C289.672 362.1 289.805 361.708 289.805 361.275C289.805 360.742 289.614 360.317 289.23 360C288.847 359.667 288.347 359.408 287.73 359.225C287.13 359.025 286.455 358.842 285.705 358.675C284.972 358.508 284.23 358.317 283.48 358.1C282.747 357.867 282.072 357.575 281.455 357.225C280.855 356.858 280.364 356.375 279.98 355.775C279.597 355.175 279.405 354.408 279.405 353.475C279.405 352.525 279.655 351.658 280.155 350.875C280.672 350.075 281.447 349.442 282.48 348.975C283.53 348.492 284.855 348.25 286.455 348.25C287.505 348.25 288.547 348.383 289.58 348.65C290.614 348.917 291.514 349.3 292.28 349.8L291.255 352.325C290.472 351.858 289.664 351.517 288.83 351.3C287.997 351.067 287.197 350.95 286.43 350.95C285.53 350.95 284.797 351.058 284.23 351.275C283.68 351.492 283.272 351.775 283.005 352.125C282.755 352.475 282.63 352.875 282.63 353.325C282.63 353.858 282.814 354.292 283.18 354.625C283.564 354.942 284.055 355.192 284.655 355.375C285.272 355.558 285.955 355.742 286.705 355.925C287.455 356.092 288.197 356.283 288.93 356.5C289.68 356.717 290.355 357 290.955 357.35C291.572 357.7 292.064 358.175 292.43 358.775C292.814 359.375 293.005 360.133 293.005 361.05C293.005 361.983 292.747 362.85 292.23 363.65C291.73 364.433 290.955 365.067 289.905 365.55C288.855 366.017 287.53 366.25 285.93 366.25ZM310.662 366.25C308.262 366.25 306.379 365.575 305.012 364.225C303.662 362.875 302.987 360.925 302.987 358.375V348.5H306.237V358.25C306.237 360.05 306.62 361.358 307.387 362.175C308.17 362.992 309.27 363.4 310.687 363.4C312.104 363.4 313.195 362.992 313.962 362.175C314.729 361.358 315.112 360.05 315.112 358.25V348.5H318.312V358.375C318.312 360.925 317.629 362.875 316.262 364.225C314.912 365.575 313.045 366.25 310.662 366.25ZM328.289 366.25C326.922 366.25 325.614 366.058 324.364 365.675C323.114 365.275 322.122 364.767 321.389 364.15L322.514 361.625C323.214 362.175 324.08 362.633 325.114 363C326.147 363.367 327.205 363.55 328.289 363.55C329.205 363.55 329.947 363.45 330.514 363.25C331.08 363.05 331.497 362.783 331.764 362.45C332.03 362.1 332.164 361.708 332.164 361.275C332.164 360.742 331.972 360.317 331.589 360C331.205 359.667 330.705 359.408 330.089 359.225C329.489 359.025 328.814 358.842 328.064 358.675C327.33 358.508 326.589 358.317 325.839 358.1C325.105 357.867 324.43 357.575 323.814 357.225C323.214 356.858 322.722 356.375 322.339 355.775C321.955 355.175 321.764 354.408 321.764 353.475C321.764 352.525 322.014 351.658 322.514 350.875C323.03 350.075 323.805 349.442 324.839 348.975C325.889 348.492 327.214 348.25 328.814 348.25C329.864 348.25 330.905 348.383 331.939 348.65C332.972 348.917 333.872 349.3 334.639 349.8L333.614 352.325C332.83 351.858 332.022 351.517 331.189 351.3C330.355 351.067 329.555 350.95 328.789 350.95C327.889 350.95 327.155 351.058 326.589 351.275C326.039 351.492 325.63 351.775 325.364 352.125C325.114 352.475 324.989 352.875 324.989 353.325C324.989 353.858 325.172 354.292 325.539 354.625C325.922 354.942 326.414 355.192 327.014 355.375C327.63 355.558 328.314 355.742 329.064 355.925C329.814 356.092 330.555 356.283 331.289 356.5C332.039 356.717 332.714 357 333.314 357.35C333.93 357.7 334.422 358.175 334.789 358.775C335.172 359.375 335.364 360.133 335.364 361.05C335.364 361.983 335.105 362.85 334.589 363.65C334.089 364.433 333.314 365.067 332.264 365.55C331.214 366.017 329.889 366.25 328.289 366.25ZM349.046 366V351.25H343.246V348.5H358.096V351.25H352.296V366H349.046ZM368.49 366.25C367.124 366.25 365.865 366.025 364.715 365.575C363.565 365.125 362.565 364.5 361.715 363.7C360.865 362.883 360.207 361.933 359.74 360.85C359.274 359.75 359.04 358.55 359.04 357.25C359.04 355.95 359.274 354.758 359.74 353.675C360.207 352.575 360.865 351.625 361.715 350.825C362.565 350.008 363.565 349.375 364.715 348.925C365.865 348.475 367.115 348.25 368.465 348.25C369.832 348.25 371.082 348.475 372.215 348.925C373.365 349.375 374.365 350.008 375.215 350.825C376.065 351.625 376.724 352.575 377.19 353.675C377.657 354.758 377.89 355.95 377.89 357.25C377.89 358.55 377.657 359.75 377.19 360.85C376.724 361.95 376.065 362.9 375.215 363.7C374.365 364.5 373.365 365.125 372.215 365.575C371.082 366.025 369.84 366.25 368.49 366.25ZM368.465 363.4C369.349 363.4 370.165 363.25 370.915 362.95C371.665 362.65 372.315 362.225 372.865 361.675C373.415 361.108 373.84 360.458 374.14 359.725C374.457 358.975 374.615 358.15 374.615 357.25C374.615 356.35 374.457 355.533 374.14 354.8C373.84 354.05 373.415 353.4 372.865 352.85C372.315 352.283 371.665 351.85 370.915 351.55C370.165 351.25 369.349 351.1 368.465 351.1C367.582 351.1 366.765 351.25 366.015 351.55C365.282 351.85 364.632 352.283 364.065 352.85C363.515 353.4 363.082 354.05 362.765 354.8C362.465 355.533 362.315 356.35 362.315 357.25C362.315 358.133 362.465 358.95 362.765 359.7C363.082 360.45 363.515 361.108 364.065 361.675C364.615 362.225 365.265 362.65 366.015 362.95C366.765 363.25 367.582 363.4 368.465 363.4ZM388.245 366V348.5H396.445C398.545 348.5 400.145 348.917 401.245 349.75C402.345 350.567 402.895 351.667 402.895 353.05C402.895 353.983 402.678 354.783 402.245 355.45C401.811 356.1 401.228 356.608 400.495 356.975C399.778 357.325 398.995 357.5 398.145 357.5L398.595 356.6C399.578 356.6 400.461 356.783 401.245 357.15C402.028 357.5 402.645 358.017 403.095 358.7C403.561 359.383 403.795 360.233 403.795 361.25C403.795 362.75 403.22 363.917 402.07 364.75C400.92 365.583 399.211 366 396.945 366H388.245ZM391.495 363.45H396.745C397.961 363.45 398.895 363.25 399.545 362.85C400.195 362.45 400.52 361.808 400.52 360.925C400.52 360.058 400.195 359.425 399.545 359.025C398.895 358.608 397.961 358.4 396.745 358.4H391.245V355.875H396.095C397.228 355.875 398.095 355.675 398.695 355.275C399.311 354.875 399.62 354.275 399.62 353.475C399.62 352.658 399.311 352.05 398.695 351.65C398.095 351.25 397.228 351.05 396.095 351.05H391.495V363.45ZM415.463 366.25C414.096 366.25 412.838 366.025 411.688 365.575C410.538 365.125 409.538 364.5 408.688 363.7C407.838 362.883 407.18 361.933 406.713 360.85C406.246 359.75 406.013 358.55 406.013 357.25C406.013 355.95 406.246 354.758 406.713 353.675C407.18 352.575 407.838 351.625 408.688 350.825C409.538 350.008 410.538 349.375 411.688 348.925C412.838 348.475 414.088 348.25 415.438 348.25C416.805 348.25 418.055 348.475 419.188 348.925C420.338 349.375 421.338 350.008 422.188 350.825C423.038 351.625 423.696 352.575 424.163 353.675C424.63 354.758 424.863 355.95 424.863 357.25C424.863 358.55 424.63 359.75 424.163 360.85C423.696 361.95 423.038 362.9 422.188 363.7C421.338 364.5 420.338 365.125 419.188 365.575C418.055 366.025 416.813 366.25 415.463 366.25ZM415.438 363.4C416.321 363.4 417.138 363.25 417.888 362.95C418.638 362.65 419.288 362.225 419.838 361.675C420.388 361.108 420.813 360.458 421.113 359.725C421.43 358.975 421.588 358.15 421.588 357.25C421.588 356.35 421.43 355.533 421.113 354.8C420.813 354.05 420.388 353.4 419.838 352.85C419.288 352.283 418.638 351.85 417.888 351.55C417.138 351.25 416.321 351.1 415.438 351.1C414.555 351.1 413.738 351.25 412.988 351.55C412.255 351.85 411.605 352.283 411.038 352.85C410.488 353.4 410.055 354.05 409.738 354.8C409.438 355.533 409.288 356.35 409.288 357.25C409.288 358.133 409.438 358.95 409.738 359.7C410.055 360.45 410.488 361.108 411.038 361.675C411.588 362.225 412.238 362.65 412.988 362.95C413.738 363.25 414.555 363.4 415.438 363.4ZM436.508 366.25C435.141 366.25 433.883 366.025 432.733 365.575C431.583 365.125 430.583 364.5 429.733 363.7C428.883 362.883 428.225 361.933 427.758 360.85C427.291 359.75 427.058 358.55 427.058 357.25C427.058 355.95 427.291 354.758 427.758 353.675C428.225 352.575 428.883 351.625 429.733 350.825C430.583 350.008 431.583 349.375 432.733 348.925C433.883 348.475 435.133 348.25 436.483 348.25C437.85 348.25 439.1 348.475 440.233 348.925C441.383 349.375 442.383 350.008 443.233 350.825C444.083 351.625 444.741 352.575 445.208 353.675C445.675 354.758 445.908 355.95 445.908 357.25C445.908 358.55 445.675 359.75 445.208 360.85C444.741 361.95 444.083 362.9 443.233 363.7C442.383 364.5 441.383 365.125 440.233 365.575C439.1 366.025 437.858 366.25 436.508 366.25ZM436.483 363.4C437.366 363.4 438.183 363.25 438.933 362.95C439.683 362.65 440.333 362.225 440.883 361.675C441.433 361.108 441.858 360.458 442.158 359.725C442.475 358.975 442.633 358.15 442.633 357.25C442.633 356.35 442.475 355.533 442.158 354.8C441.858 354.05 441.433 353.4 440.883 352.85C440.333 352.283 439.683 351.85 438.933 351.55C438.183 351.25 437.366 351.1 436.483 351.1C435.6 351.1 434.783 351.25 434.033 351.55C433.3 351.85 432.65 352.283 432.083 352.85C431.533 353.4 431.1 354.05 430.783 354.8C430.483 355.533 430.333 356.35 430.333 357.25C430.333 358.133 430.483 358.95 430.783 359.7C431.1 360.45 431.533 361.108 432.083 361.675C432.633 362.225 433.283 362.65 434.033 362.95C434.783 363.25 435.6 363.4 436.483 363.4ZM452.659 366V351.25H446.859V348.5H461.709V351.25H455.909V366H452.659ZM469.402 366.25C468.035 366.25 466.727 366.058 465.477 365.675C464.227 365.275 463.235 364.767 462.502 364.15L463.627 361.625C464.327 362.175 465.194 362.633 466.227 363C467.26 363.367 468.319 363.55 469.402 363.55C470.319 363.55 471.06 363.45 471.627 363.25C472.194 363.05 472.61 362.783 472.877 362.45C473.144 362.1 473.277 361.708 473.277 361.275C473.277 360.742 473.085 360.317 472.702 360C472.319 359.667 471.819 359.408 471.202 359.225C470.602 359.025 469.927 358.842 469.177 358.675C468.444 358.508 467.702 358.317 466.952 358.1C466.219 357.867 465.544 357.575 464.927 357.225C464.327 356.858 463.835 356.375 463.452 355.775C463.069 355.175 462.877 354.408 462.877 353.475C462.877 352.525 463.127 351.658 463.627 350.875C464.144 350.075 464.919 349.442 465.952 348.975C467.002 348.492 468.327 348.25 469.927 348.25C470.977 348.25 472.019 348.383 473.052 348.65C474.085 348.917 474.985 349.3 475.752 349.8L474.727 352.325C473.944 351.858 473.135 351.517 472.302 351.3C471.469 351.067 470.669 350.95 469.902 350.95C469.002 350.95 468.269 351.058 467.702 351.275C467.152 351.492 466.744 351.775 466.477 352.125C466.227 352.475 466.102 352.875 466.102 353.325C466.102 353.858 466.285 354.292 466.652 354.625C467.035 354.942 467.527 355.192 468.127 355.375C468.744 355.558 469.427 355.742 470.177 355.925C470.927 356.092 471.669 356.283 472.402 356.5C473.152 356.717 473.827 357 474.427 357.35C475.044 357.7 475.535 358.175 475.902 358.775C476.285 359.375 476.477 360.133 476.477 361.05C476.477 361.983 476.219 362.85 475.702 363.65C475.202 364.433 474.427 365.067 473.377 365.55C472.327 366.017 471.002 366.25 469.402 366.25ZM483.005 366V351.25H477.205V348.5H492.055V351.25H486.255V366H483.005ZM494.495 366V348.5H501.695C503.245 348.5 504.57 348.75 505.67 349.25C506.786 349.75 507.645 350.467 508.245 351.4C508.845 352.333 509.145 353.442 509.145 354.725C509.145 356.008 508.845 357.117 508.245 358.05C507.645 358.967 506.786 359.675 505.67 360.175C504.57 360.658 503.245 360.9 501.695 360.9H496.295L497.745 359.425V366H494.495ZM505.945 366L501.52 359.65H504.995L509.445 366H505.945ZM497.745 359.775L496.295 358.225H501.545C502.978 358.225 504.053 357.917 504.77 357.3C505.503 356.683 505.87 355.825 505.87 354.725C505.87 353.608 505.503 352.75 504.77 352.15C504.053 351.55 502.978 351.25 501.545 351.25H496.295L497.745 349.65V359.775ZM510.306 366L518.181 348.5H521.381L529.281 366H525.881L519.106 350.225H520.406L513.656 366H510.306ZM513.931 361.95L514.806 359.4H524.256L525.131 361.95H513.931ZM531.506 366V348.5H538.706C540.256 348.5 541.581 348.75 542.681 349.25C543.798 349.75 544.656 350.467 545.256 351.4C545.856 352.333 546.156 353.442 546.156 354.725C546.156 356.008 545.856 357.117 545.256 358.05C544.656 358.983 543.798 359.7 542.681 360.2C541.581 360.7 540.256 360.95 538.706 360.95H533.306L534.756 359.425V366H531.506ZM534.756 359.775L533.306 358.2H538.556C539.99 358.2 541.065 357.9 541.781 357.3C542.515 356.683 542.881 355.825 542.881 354.725C542.881 353.608 542.515 352.75 541.781 352.15C541.065 351.55 539.99 351.25 538.556 351.25H533.306L534.756 349.65V359.775ZM247.556 396V381.25H241.756V378.5H256.606V381.25H250.806V396H247.556ZM271.345 378.5H274.595V396H271.345V378.5ZM262.295 396H259.045V378.5H262.295V396ZM271.595 388.5H262.02V385.725H271.595V388.5ZM282.285 385.775H290.985V388.45H282.285V385.775ZM282.535 393.275H292.41V396H279.285V378.5H292.06V381.225H282.535V393.275ZM305.667 396.25C304.55 396.25 303.517 396.033 302.567 395.6C301.633 395.167 300.867 394.542 300.267 393.725L302.117 391.5C302.6 392.167 303.125 392.667 303.692 393C304.275 393.333 304.908 393.5 305.592 393.5C307.408 393.5 308.317 392.425 308.317 390.275V381.225H302.092V378.5H311.567V390.1C311.567 392.167 311.058 393.708 310.042 394.725C309.042 395.742 307.583 396.25 305.667 396.25ZM316.125 396V378.5H318.8L326.45 391.275H325.05L332.575 378.5H335.25L335.275 396H332.2L332.175 383.325H332.825L326.425 394H324.975L318.475 383.325H319.225V396H316.125ZM343.002 385.775H351.702V388.45H343.002V385.775ZM343.252 393.275H353.127V396H340.002V378.5H352.777V381.225H343.252V393.275ZM362.175 396.25C360.809 396.25 359.5 396.058 358.25 395.675C357 395.275 356.009 394.767 355.275 394.15L356.4 391.625C357.1 392.175 357.967 392.633 359 393C360.034 393.367 361.092 393.55 362.175 393.55C363.092 393.55 363.834 393.45 364.4 393.25C364.967 393.05 365.384 392.783 365.65 392.45C365.917 392.1 366.05 391.708 366.05 391.275C366.05 390.742 365.859 390.317 365.475 390C365.092 389.667 364.592 389.408 363.975 389.225C363.375 389.025 362.7 388.842 361.95 388.675C361.217 388.508 360.475 388.317 359.725 388.1C358.992 387.867 358.317 387.575 357.7 387.225C357.1 386.858 356.609 386.375 356.225 385.775C355.842 385.175 355.65 384.408 355.65 383.475C355.65 382.525 355.9 381.658 356.4 380.875C356.917 380.075 357.692 379.442 358.725 378.975C359.775 378.492 361.1 378.25 362.7 378.25C363.75 378.25 364.792 378.383 365.825 378.65C366.859 378.917 367.759 379.3 368.525 379.8L367.5 382.325C366.717 381.858 365.909 381.517 365.075 381.3C364.242 381.067 363.442 380.95 362.675 380.95C361.775 380.95 361.042 381.058 360.475 381.275C359.925 381.492 359.517 381.775 359.25 382.125C359 382.475 358.875 382.875 358.875 383.325C358.875 383.858 359.059 384.292 359.425 384.625C359.809 384.942 360.3 385.192 360.9 385.375C361.517 385.558 362.2 385.742 362.95 385.925C363.7 386.092 364.442 386.283 365.175 386.5C365.925 386.717 366.6 387 367.2 387.35C367.817 387.7 368.309 388.175 368.675 388.775C369.059 389.375 369.25 390.133 369.25 391.05C369.25 391.983 368.992 392.85 368.475 393.65C367.975 394.433 367.2 395.067 366.15 395.55C365.1 396.017 363.775 396.25 362.175 396.25ZM379.382 396V378.5H382.057L393.032 391.975H391.707V378.5H394.932V396H392.257L381.282 382.525H382.607V396H379.382ZM402.621 385.775H411.321V388.45H402.621V385.775ZM402.871 393.275H412.746V396H399.621V378.5H412.396V381.225H402.871V393.275ZM419.92 396V381.25H414.12V378.5H428.97V381.25H423.17V396H419.92ZM435.265 396L429.465 378.5H432.84L438.015 394.325H436.34L441.715 378.5H444.715L449.94 394.325H448.315L453.615 378.5H456.715L450.915 396H447.465L442.69 381.725H443.59L438.74 396H435.265ZM467.392 396.25C466.025 396.25 464.767 396.025 463.617 395.575C462.467 395.125 461.467 394.5 460.617 393.7C459.767 392.883 459.108 391.933 458.642 390.85C458.175 389.75 457.942 388.55 457.942 387.25C457.942 385.95 458.175 384.758 458.642 383.675C459.108 382.575 459.767 381.625 460.617 380.825C461.467 380.008 462.467 379.375 463.617 378.925C464.767 378.475 466.017 378.25 467.367 378.25C468.733 378.25 469.983 378.475 471.117 378.925C472.267 379.375 473.267 380.008 474.117 380.825C474.967 381.625 475.625 382.575 476.092 383.675C476.558 384.758 476.792 385.95 476.792 387.25C476.792 388.55 476.558 389.75 476.092 390.85C475.625 391.95 474.967 392.9 474.117 393.7C473.267 394.5 472.267 395.125 471.117 395.575C469.983 396.025 468.742 396.25 467.392 396.25ZM467.367 393.4C468.25 393.4 469.067 393.25 469.817 392.95C470.567 392.65 471.217 392.225 471.767 391.675C472.317 391.108 472.742 390.458 473.042 389.725C473.358 388.975 473.517 388.15 473.517 387.25C473.517 386.35 473.358 385.533 473.042 384.8C472.742 384.05 472.317 383.4 471.767 382.85C471.217 382.283 470.567 381.85 469.817 381.55C469.067 381.25 468.25 381.1 467.367 381.1C466.483 381.1 465.667 381.25 464.917 381.55C464.183 381.85 463.533 382.283 462.967 382.85C462.417 383.4 461.983 384.05 461.667 384.8C461.367 385.533 461.217 386.35 461.217 387.25C461.217 388.133 461.367 388.95 461.667 389.7C461.983 390.45 462.417 391.108 462.967 391.675C463.517 392.225 464.167 392.65 464.917 392.95C465.667 393.25 466.483 393.4 467.367 393.4ZM480.237 396V378.5H487.437C488.987 378.5 490.312 378.75 491.412 379.25C492.528 379.75 493.387 380.467 493.987 381.4C494.587 382.333 494.887 383.442 494.887 384.725C494.887 386.008 494.587 387.117 493.987 388.05C493.387 388.967 492.528 389.675 491.412 390.175C490.312 390.658 488.987 390.9 487.437 390.9H482.037L483.487 389.425V396H480.237ZM491.687 396L487.262 389.65H490.737L495.187 396H491.687ZM483.487 389.775L482.037 388.225H487.287C488.72 388.225 489.795 387.917 490.512 387.3C491.245 386.683 491.612 385.825 491.612 384.725C491.612 383.608 491.245 382.75 490.512 382.15C489.795 381.55 488.72 381.25 487.287 381.25H482.037L483.487 379.65V389.775ZM501.423 391.875L501.248 388.025L510.423 378.5H514.073L506.448 386.6L504.648 388.575L501.423 391.875ZM498.523 396V378.5H501.773V396H498.523ZM510.723 396L504.023 388.025L506.173 385.65L514.523 396H510.723ZM516.636 390.2L516.036 378.5H519.736L519.111 390.2H516.636ZM517.886 396.175C517.302 396.175 516.819 395.983 516.436 395.6C516.052 395.217 515.861 394.758 515.861 394.225C515.861 393.692 516.052 393.242 516.436 392.875C516.819 392.492 517.302 392.3 517.886 392.3C518.469 392.3 518.944 392.492 519.311 392.875C519.677 393.242 519.861 393.692 519.861 394.225C519.861 394.758 519.677 395.217 519.311 395.6C518.944 395.983 518.469 396.175 517.886 396.175Z" fill="black"/>
<line x1="311.016" y1="518" x2="561.016" y2="519" stroke="black" stroke-width="8"/>
</g>
<defs>
<clipPath id="clip0_301_87">
<rect width="561" height="690" fill="white"/>
</clipPath>
</defs>
</svg>
