<svg width="18" height="15" viewBox="0 0 18 15" fill="none" xmlns="http://www.w3.org/2000/svg">
<g clip-path="url(#clip0_210_58)">
<path d="M9 15L17.6603 0H0.339746L9 15ZM7.5 -2570C7.5 -2568.04 7.5 -2566.08 7.5 -2564.12C7.5 -2562.16 7.5 -2560.2 7.5 -2558.24C7.5 -2556.29 7.5 -2554.33 7.5 -2552.38C7.5 -2550.43 7.5 -2548.47 7.5 -2546.52C7.5 -2544.58 7.5 -2542.63 7.5 -2540.68C7.5 -2538.73 7.5 -2536.79 7.5 -2534.85C7.5 -2532.9 7.5 -2530.96 7.5 -2529.02C7.5 -2527.08 7.5 -2525.14 7.5 -2523.21C7.5 -2521.27 7.5 -2519.34 7.5 -2517.4C7.5 -2515.47 7.5 -2513.54 7.5 -2511.61C7.5 -2509.68 7.5 -2507.75 7.5 -2505.82C7.5 -2503.9 7.5 -2501.97 7.5 -2500.05C7.5 -2498.12 7.5 -2496.2 7.5 -2494.28C7.5 -2492.36 7.5 -2490.44 7.5 -2488.53C7.5 -2486.61 7.5 -2484.69 7.5 -2482.78C7.5 -2480.86 7.5 -2478.95 7.5 -2477.04C7.5 -2475.13 7.5 -2473.22 7.5 -2471.31C7.5 -2469.4 7.5 -2467.5 7.5 -2465.59C7.5 -2463.69 7.5 -2461.79 7.5 -2459.88C7.5 -2457.98 7.5 -2456.08 7.5 -2454.18C7.5 -2452.29 7.5 -2450.39 7.5 -2448.49C7.5 -2446.6 7.5 -2444.7 7.5 -2442.81C7.5 -2440.92 7.5 -2439.03 7.5 -2437.14C7.5 -2435.25 7.5 -2433.36 7.5 -2431.48C7.5 -2429.59 7.5 -2427.71 7.5 -2425.82C7.5 -2423.94 7.5 -2422.06 7.5 -2420.18C7.5 -2418.3 7.5 -2416.42 7.5 -2414.54C7.5 -2412.66 7.5 -2410.79 7.5 -2408.91C7.5 -2407.04 7.5 -2405.17 7.5 -2403.3C7.5 -2401.43 7.5 -2399.56 7.5 -2397.69C7.5 -2395.82 7.5 -2393.95 7.5 -2392.09C7.5 -2390.22 7.5 -2388.36 7.5 -2386.5C7.5 -2384.63 7.5 -2382.77 7.5 -2380.91C7.5 -2379.05 7.5 -2377.2 7.5 -2375.34C7.5 -2373.48 7.5 -2371.63 7.5 -2369.78C7.5 -2367.92 7.5 -2366.07 7.5 -2364.22C7.5 -2362.37 7.5 -2360.52 7.5 -2358.67C7.5 -2356.82 7.5 -2354.98 7.5 -2353.13C7.5 -2351.29 7.5 -2349.44 7.5 -2347.6C7.5 -2345.76 7.5 -2343.92 7.5 -2342.08C7.5 -2340.24 7.5 -2338.4 7.5 -2336.57C7.5 -2334.73 7.5 -2332.9 7.5 -2331.06C7.5 -2329.23 7.5 -2327.4 7.5 -2325.57C7.5 -2323.73 7.5 -2321.91 7.5 -2320.08C7.5 -2318.25 7.5 -2316.42 7.5 -2314.6C7.5 -2312.77 7.5 -2310.95 7.5 -2309.13C7.5 -2307.3 7.5 -2305.48 7.5 -2303.66C7.5 -2301.84 7.5 -2300.02 7.5 -2298.21C7.5 -2296.39 7.5 -2294.58 7.5 -2292.76C7.5 -2290.95 7.5 -2289.13 7.5 -2287.32C7.5 -2285.51 7.5 -2283.7 7.5 -2281.89C7.5 -2280.08 7.5 -2278.28 7.5 -2276.47C7.5 -2274.66 7.5 -2272.86 7.5 -2271.05C7.5 -2269.25 7.5 -2267.45 7.5 -2265.65C7.5 -2263.85 7.5 -2262.05 7.5 -2260.25C7.5 -2258.45 7.5 -2256.65 7.5 -2254.86C7.5 -2253.06 7.5 -2251.27 7.5 -2249.48C7.5 -2247.68 7.5 -2245.89 7.5 -2244.1C7.5 -2242.31 7.5 -2240.52 7.5 -2238.73C7.5 -2236.95 7.5 -2235.16 7.5 -2233.37C7.5 -2231.59 7.5 -2229.81 7.5 -2228.02C7.5 -2226.24 7.5 -2224.46 7.5 -2222.68C7.5 -2220.9 7.5 -2219.12 7.5 -2217.34C7.5 -2215.56 7.5 -2213.79 7.5 -2212.01C7.5 -2210.24 7.5 -2208.46 7.5 -2206.69C7.5 -2204.92 7.5 -2203.15 7.5 -2201.38C7.5 -2199.61 7.5 -2197.84 7.5 -2196.07C7.5 -2194.3 7.5 -2192.54 7.5 -2190.77C7.5 -2189.01 7.5 -2187.24 7.5 -2185.48C7.5 -2183.72 7.5 -2181.96 7.5 -2180.2C7.5 -2178.44 7.5 -2176.68 7.5 -2174.92C7.5 -2173.16 7.5 -2171.41 7.5 -2169.65C7.5 -2167.9 7.5 -2166.14 7.5 -2164.39C7.5 -2162.64 7.5 -2160.89 7.5 -2159.13C7.5 -2157.38 7.5 -2155.64 7.5 -2153.89C7.5 -2152.14 7.5 -2150.39 7.5 -2148.65C7.5 -2146.9 7.5 -2145.16 7.5 -2143.41C7.5 -2141.67 7.5 -2139.93 7.5 -2138.19C7.5 -2136.45 7.5 -2134.71 7.5 -2132.97C7.5 -2131.23 7.5 -2129.49 7.5 -2127.75C7.5 -2126.02 7.5 -2124.28 7.5 -2122.55C7.5 -2120.81 7.5 -2119.08 7.5 -2117.35C7.5 -2115.62 7.5 -2113.89 7.5 -2112.16C7.5 -2110.43 7.5 -2108.7 7.5 -2106.97C7.5 -2105.25 7.5 -2103.52 7.5 -2101.79C7.5 -2100.07 7.5 -2098.35 7.5 -2096.62C7.5 -2094.9 7.5 -2093.18 7.5 -2091.46C7.5 -2089.74 7.5 -2088.02 7.5 -2086.3C7.5 -2084.58 7.5 -2082.86 7.5 -2081.15C7.5 -2079.43 7.5 -2077.72 7.5 -2076C7.5 -2074.29 7.5 -2072.58 7.5 -2070.86C7.5 -2069.15 7.5 -2067.44 7.5 -2065.73C7.5 -2064.02 7.5 -2062.31 7.5 -2060.61C7.5 -2058.9 7.5 -2057.19 7.5 -2055.49C7.5 -2053.78 7.5 -2052.08 7.5 -2050.38C7.5 -2048.67 7.5 -2046.97 7.5 -2045.27C7.5 -2043.57 7.5 -2041.87 7.5 -2040.17C7.5 -2038.47 7.5 -2036.77 7.5 -2035.08C7.5 -2033.38 7.5 -2031.68 7.5 -2029.99C7.5 -2028.29 7.5 -2026.6 7.5 -2024.91C7.5 -2023.21 7.5 -2021.52 7.5 -2019.83C7.5 -2018.14 7.5 -2016.45 7.5 -2014.76C7.5 -2013.07 7.5 -2011.39 7.5 -2009.7C7.5 -2008.01 7.5 -2006.33 7.5 -2004.64C7.5 -2002.96 7.5 -2001.27 7.5 -1999.59C7.5 -1997.91 7.5 -1996.23 7.5 -1994.55C7.5 -1992.87 7.5 -1991.19 7.5 -1989.51C7.5 -1987.83 7.5 -1986.15 7.5 -1984.47C7.5 -1982.8 7.5 -1981.12 7.5 -1979.45C7.5 -1977.77 7.5 -1976.1 7.5 -1974.42C7.5 -1972.75 7.5 -1971.08 7.5 -1969.41C7.5 -1967.74 7.5 -1966.07 7.5 -1964.4C7.5 -1962.73 7.5 -1961.06 7.5 -1959.39C7.5 -1957.73 7.5 -1956.06 7.5 -1954.39C7.5 -1952.73 7.5 -1951.07 7.5 -1949.4C7.5 -1947.74 7.5 -1946.08 7.5 -1944.41C7.5 -1942.75 7.5 -1941.09 7.5 -1939.43C7.5 -1937.77 7.5 -1936.11 7.5 -1934.46C7.5 -1932.8 7.5 -1931.14 7.5 -1929.48C7.5 -1927.83 7.5 -1926.17 7.5 -1924.52C7.5 -1922.86 7.5 -1921.21 7.5 -1919.56C7.5 -1917.9 7.5 -1916.25 7.5 -1914.6C7.5 -1912.95 7.5 -1911.3 7.5 -1909.65C7.5 -1908 7.5 -1906.36 7.5 -1904.71C7.5 -1903.06 7.5 -1901.41 7.5 -1899.77C7.5 -1898.12 7.5 -1896.48 7.5 -1894.83C7.5 -1893.19 7.5 -1891.55 7.5 -1889.91C7.5 -1888.26 7.5 -1886.62 7.5 -1884.98C7.5 -1883.34 7.5 -1881.7 7.5 -1880.06C7.5 -1878.42 7.5 -1876.79 7.5 -1875.15C7.5 -1873.51 7.5 -1871.87 7.5 -1870.24C7.5 -1868.6 7.5 -1866.97 7.5 -1865.34C7.5 -1863.7 7.5 -1862.07 7.5 -1860.44C7.5 -1858.8 7.5 -1857.17 7.5 -1855.54C7.5 -1853.91 7.5 -1852.28 7.5 -1850.65C7.5 -1849.02 7.5 -1847.4 7.5 -1845.77C7.5 -1844.14 7.5 -1842.51 7.5 -1840.89C7.5 -1839.26 7.5 -1837.64 7.5 -1836.01C7.5 -1834.39 7.5 -1832.76 7.5 -1831.14C7.5 -1829.52 7.5 -1827.9 7.5 -1826.28C7.5 -1824.65 7.5 -1823.03 7.5 -1821.41C7.5 -1819.79 7.5 -1818.18 7.5 -1816.56C7.5 -1814.94 7.5 -1813.32 7.5 -1811.71C7.5 -1810.09 7.5 -1808.47 7.5 -1806.86C7.5 -1805.24 7.5 -1803.63 7.5 -1802.01C7.5 -1800.4 7.5 -1798.79 7.5 -1797.18C7.5 -1795.56 7.5 -1793.95 7.5 -1792.34C7.5 -1790.73 7.5 -1789.12 7.5 -1787.51C7.5 -1785.9 7.5 -1784.29 7.5 -1782.68C7.5 -1781.08 7.5 -1779.47 7.5 -1777.86C7.5 -1776.26 7.5 -1774.65 7.5 -1773.04C7.5 -1771.44 7.5 -1769.83 7.5 -1768.23C7.5 -1766.63 7.5 -1765.02 7.5 -1763.42C7.5 -1761.82 7.5 -1760.22 7.5 -1758.62C7.5 -1757.01 7.5 -1755.41 7.5 -1753.81C7.5 -1752.21 7.5 -1750.62 7.5 -1749.02C7.5 -1747.42 7.5 -1745.82 7.5 -1744.22C7.5 -1742.63 7.5 -1741.03 7.5 -1739.43C7.5 -1737.84 7.5 -1736.24 7.5 -1734.65C7.5 -1733.05 7.5 -1731.46 7.5 -1729.87C7.5 -1728.27 7.5 -1726.68 7.5 -1725.09C7.5 -1723.5 7.5 -1721.91 7.5 -1720.32C7.5 -1718.72 7.5 -1717.13 7.5 -1715.54C7.5 -1713.96 7.5 -1712.37 7.5 -1710.78C7.5 -1709.19 7.5 -1707.6 7.5 -1706.01C7.5 -1704.43 7.5 -1702.84 7.5 -1701.26C7.5 -1699.67 7.5 -1698.08 7.5 -1696.5C7.5 -1694.91 7.5 -1693.33 7.5 -1691.75C7.5 -1690.16 7.5 -1688.58 7.5 -1687C7.5 -1685.42 7.5 -1683.83 7.5 -1682.25C7.5 -1680.67 7.5 -1679.09 7.5 -1677.51C7.5 -1675.93 7.5 -1674.35 7.5 -1672.77C7.5 -1671.19 7.5 -1669.61 7.5 -1668.04C7.5 -1666.46 7.5 -1664.88 7.5 -1663.3C7.5 -1661.73 7.5 -1660.15 7.5 -1658.58C7.5 -1657 7.5 -1655.42 7.5 -1653.85C7.5 -1652.28 7.5 -1650.7 7.5 -1649.13C7.5 -1647.55 7.5 -1645.98 7.5 -1644.41C7.5 -1642.84 7.5 -1641.26 7.5 -1639.69C7.5 -1638.12 7.5 -1636.55 7.5 -1634.98C7.5 -1633.41 7.5 -1631.84 7.5 -1630.27C7.5 -1628.7 7.5 -1627.13 7.5 -1625.56C7.5 -1623.99 7.5 -1622.43 7.5 -1620.86C7.5 -1619.29 7.5 -1617.72 7.5 -1616.16C7.5 -1614.59 7.5 -1613.02 7.5 -1611.46C7.5 -1609.89 7.5 -1608.33 7.5 -1606.76C7.5 -1605.2 7.5 -1603.63 7.5 -1602.07C7.5 -1600.51 7.5 -1598.94 7.5 -1597.38C7.5 -1595.82 7.5 -1594.25 7.5 -1592.69C7.5 -1591.13 7.5 -1589.57 7.5 -1588.01C7.5 -1586.45 7.5 -1584.89 7.5 -1583.33C7.5 -1581.76 7.5 -1580.21 7.5 -1578.65C7.5 -1577.09 7.5 -1575.53 7.5 -1573.97C7.5 -1572.41 7.5 -1570.85 7.5 -1569.29C7.5 -1567.74 7.5 -1566.18 7.5 -1564.62C7.5 -1563.07 7.5 -1561.51 7.5 -1559.95C7.5 -1558.4 7.5 -1556.84 7.5 -1555.29C7.5 -1553.73 7.5 -1552.18 7.5 -1550.62C7.5 -1549.07 7.5 -1547.51 7.5 -1545.96C7.5 -1544.4 7.5 -1542.85 7.5 -1541.3C7.5 -1539.75 7.5 -1538.19 7.5 -1536.64C7.5 -1535.09 7.5 -1533.54 7.5 -1531.98C7.5 -1530.43 7.5 -1528.88 7.5 -1527.33C7.5 -1525.78 7.5 -1524.23 7.5 -1522.68C7.5 -1521.13 7.5 -1519.58 7.5 -1518.03C7.5 -1516.48 7.5 -1514.93 7.5 -1513.38C7.5 -1511.83 7.5 -1510.29 7.5 -1508.74C7.5 -1507.19 7.5 -1505.64 7.5 -1504.09C7.5 -1502.55 7.5 -1501 7.5 -1499.45C7.5 -1497.91 7.5 -1496.36 7.5 -1494.81C7.5 -1493.27 7.5 -1491.72 7.5 -1490.17C7.5 -1488.63 7.5 -1487.08 7.5 -1485.54C7.5 -1483.99 7.5 -1482.45 7.5 -1480.9C7.5 -1479.36 7.5 -1477.82 7.5 -1476.27C7.5 -1474.73 7.5 -1473.18 7.5 -1471.64C7.5 -1470.1 7.5 -1468.56 7.5 -1467.01C7.5 -1465.47 7.5 -1463.93 7.5 -1462.38C7.5 -1460.84 7.5 -1459.3 7.5 -1457.76C7.5 -1456.22 7.5 -1454.68 7.5 -1453.13C7.5 -1451.59 7.5 -1450.05 7.5 -1448.51C7.5 -1446.97 7.5 -1445.43 7.5 -1443.89C7.5 -1442.35 7.5 -1440.81 7.5 -1439.27C7.5 -1437.73 7.5 -1436.19 7.5 -1434.65C7.5 -1433.11 7.5 -1431.57 7.5 -1430.03C7.5 -1428.5 7.5 -1426.96 7.5 -1425.42C7.5 -1423.88 7.5 -1422.34 7.5 -1420.8C7.5 -1419.27 7.5 -1417.73 7.5 -1416.19C7.5 -1414.65 7.5 -1413.11 7.5 -1411.58C7.5 -1410.04 7.5 -1408.5 7.5 -1406.97C7.5 -1405.43 7.5 -1403.89 7.5 -1402.36C7.5 -1400.82 7.5 -1399.28 7.5 -1397.75C7.5 -1396.21 7.5 -1394.67 7.5 -1393.14C7.5 -1391.6 7.5 -1390.07 7.5 -1388.53C7.5 -1387 7.5 -1385.46 7.5 -1383.93C7.5 -1382.39 7.5 -1380.86 7.5 -1379.32C7.5 -1377.79 7.5 -1376.25 7.5 -1374.72C7.5 -1373.18 7.5 -1371.65 7.5 -1370.11C7.5 -1368.58 7.5 -1367.04 7.5 -1365.51C7.5 -1363.98 7.5 -1362.44 7.5 -1360.91C7.5 -1359.37 7.5 -1357.84 7.5 -1356.31C7.5 -1354.77 7.5 -1353.24 7.5 -1351.71C7.5 -1350.17 7.5 -1348.64 7.5 -1347.11C7.5 -1345.57 7.5 -1344.04 7.5 -1342.51C7.5 -1340.97 7.5 -1339.44 7.5 -1337.91C7.5 -1336.37 7.5 -1334.84 7.5 -1333.31C7.5 -1331.78 7.5 -1330.24 7.5 -1328.71C7.5 -1327.18 7.5 -1325.65 7.5 -1324.11C7.5 -1322.58 7.5 -1321.05 7.5 -1319.52C7.5 -1317.98 7.5 -1316.45 7.5 -1314.92C7.5 -1313.39 7.5 -1311.86 7.5 -1310.32C7.5 -1308.79 7.5 -1307.26 7.5 -1305.73C7.5 -1304.2 7.5 -1302.66 7.5 -1301.13C7.5 -1299.6 7.5 -1298.07 7.5 -1296.54C7.5 -1295 7.5 -1293.47 7.5 -1291.94C7.5 -1290.41 7.5 -1288.88 7.5 -1287.35C7.5 -1285.81 7.5 -1284.28 7.5 -1282.75C7.5 -1281.22 7.5 -1279.69 7.5 -1278.16C7.5 -1276.62 7.5 -1275.09 7.5 -1273.56C7.5 -1272.03 7.5 -1270.5 7.5 -1268.96C7.5 -1267.43 7.5 -1265.9 7.5 -1264.37C7.5 -1262.84 7.5 -1261.31 7.5 -1259.77C7.5 -1258.24 7.5 -1256.71 7.5 -1255.18C7.5 -1253.65 7.5 -1252.11 7.5 -1250.58C7.5 -1249.05 7.5 -1247.52 7.5 -1245.99C7.5 -1244.45 7.5 -1242.92 7.5 -1241.39C7.5 -1239.86 7.5 -1238.33 7.5 -1236.79C7.5 -1235.26 7.5 -1233.73 7.5 -1232.2C7.5 -1230.66 7.5 -1229.13 7.5 -1227.6C7.5 -1226.07 7.5 -1224.53 7.5 -1223C7.5 -1221.47 7.5 -1219.94 7.5 -1218.4C7.5 -1216.87 7.5 -1215.34 7.5 -1213.81C7.5 -1212.27 7.5 -1210.74 7.5 -1209.21C7.5 -1207.67 7.5 -1206.14 7.5 -1204.61C7.5 -1203.07 7.5 -1201.54 7.5 -1200.01C7.5 -1198.47 7.5 -1196.94 7.5 -1195.4C7.5 -1193.87 7.5 -1192.34 7.5 -1190.8C7.5 -1189.27 7.5 -1187.73 7.5 -1186.2C7.5 -1184.67 7.5 -1183.13 7.5 -1181.6C7.5 -1180.06 7.5 -1178.53 7.5 -1176.99C7.5 -1175.46 7.5 -1173.92 7.5 -1172.39C7.5 -1170.85 7.5 -1169.32 7.5 -1167.78C7.5 -1166.25 7.5 -1164.71 7.5 -1163.18C7.5 -1161.64 7.5 -1160.1 7.5 -1158.57C7.5 -1157.03 7.5 -1155.49 7.5 -1153.96C7.5 -1152.42 7.5 -1150.89 7.5 -1149.35C7.5 -1147.81 7.5 -1146.27 7.5 -1144.74C7.5 -1143.2 7.5 -1141.66 7.5 -1140.13C7.5 -1138.59 7.5 -1137.05 7.5 -1135.51C7.5 -1133.97 7.5 -1132.44 7.5 -1130.9C7.5 -1129.36 7.5 -1127.82 7.5 -1126.28C7.5 -1124.74 7.5 -1123.2 7.5 -1121.67C7.5 -1120.13 7.5 -1118.59 7.5 -1117.05C7.5 -1115.51 7.5 -1113.97 7.5 -1112.43C7.5 -1110.89 7.5 -1109.35 7.5 -1107.81C7.5 -1106.27 7.5 -1104.72 7.5 -1103.18C7.5 -1101.64 7.5 -1100.1 7.5 -1098.56C7.5 -1097.02 7.5 -1095.48 7.5 -1093.93C7.5 -1092.39 7.5 -1090.85 7.5 -1089.31C7.5 -1087.76 7.5 -1086.22 7.5 -1084.68C7.5 -1083.14 7.5 -1081.59 7.5 -1080.05C7.5 -1078.5 7.5 -1076.96 7.5 -1075.42C7.5 -1073.87 7.5 -1072.33 7.5 -1070.78C7.5 -1069.24 7.5 -1067.69 7.5 -1066.15C7.5 -1064.6 7.5 -1063.06 7.5 -1061.51C7.5 -1059.96 7.5 -1058.42 7.5 -1056.87C7.5 -1055.32 7.5 -1053.78 7.5 -1052.23C7.5 -1050.68 7.5 -1049.14 7.5 -1047.59C7.5 -1046.04 7.5 -1044.49 7.5 -1042.94C7.5 -1041.39 7.5 -1039.84 7.5 -1038.3C7.5 -1036.75 7.5 -1035.2 7.5 -1033.65C7.5 -1032.1 7.5 -1030.55 7.5 -1029C7.5 -1027.45 7.5 -1025.89 7.5 -1024.34C7.5 -1022.79 7.5 -1021.24 7.5 -1019.69C7.5 -1018.14 7.5 -1016.58 7.5 -1015.03C7.5 -1013.48 7.5 -1011.92 7.5 -1010.37C7.5 -1008.82 7.5 -1007.26 7.5 -1005.71C7.5 -1004.15 7.5 -1002.6 7.5 -1001.04C7.5 -999.49 7.5 -997.934 7.5 -996.378C7.5 -994.822 7.5 -993.266 7.5 -991.709C7.5 -990.153 7.5 -988.596 7.5 -987.038C7.5 -985.481 7.5 -983.923 7.5 -982.364C7.5 -980.806 7.5 -979.247 7.5 -977.688C7.5 -976.129 7.5 -974.569 7.5 -973.009C7.5 -971.449 7.5 -969.889 7.5 -968.328C7.5 -966.767 7.5 -965.206 7.5 -963.644C7.5 -962.082 7.5 -960.52 7.5 -958.957C7.5 -957.395 7.5 -955.832 7.5 -954.268C7.5 -952.705 7.5 -951.141 7.5 -949.576C7.5 -948.012 7.5 -946.447 7.5 -944.881C7.5 -943.316 7.5 -941.75 7.5 -940.184C7.5 -938.617 7.5 -937.051 7.5 -935.483C7.5 -933.916 7.5 -932.348 7.5 -930.78C7.5 -929.212 7.5 -927.643 7.5 -926.074C7.5 -924.504 7.5 -922.935 7.5 -921.364C7.5 -919.794 7.5 -918.223 7.5 -916.652C7.5 -915.081 7.5 -913.509 7.5 -911.937C7.5 -910.364 7.5 -908.792 7.5 -907.218C7.5 -905.645 7.5 -904.071 7.5 -902.497C7.5 -900.922 7.5 -899.347 7.5 -897.772C7.5 -896.197 7.5 -894.621 7.5 -893.044C7.5 -891.468 7.5 -889.891 7.5 -888.313C7.5 -886.735 7.5 -885.157 7.5 -883.579C7.5 -882 7.5 -880.421 7.5 -878.841C7.5 -877.261 7.5 -875.681 7.5 -874.1C7.5 -872.519 7.5 -870.937 7.5 -869.355C7.5 -867.773 7.5 -866.191 7.5 -864.607C7.5 -863.024 7.5 -861.44 7.5 -859.856C7.5 -858.272 7.5 -856.687 7.5 -855.101C7.5 -853.515 7.5 -851.929 7.5 -850.343C7.5 -848.756 7.5 -847.168 7.5 -845.58C7.5 -843.993 7.5 -842.404 7.5 -840.815C7.5 -839.226 7.5 -837.636 7.5 -836.045C7.5 -834.455 7.5 -832.864 7.5 -831.272C7.5 -829.681 7.5 -828.088 7.5 -826.495C7.5 -824.903 7.5 -823.309 7.5 -821.715C7.5 -820.121 7.5 -818.526 7.5 -816.93C7.5 -815.335 7.5 -813.739 7.5 -812.142C7.5 -810.545 7.5 -808.948 7.5 -807.35C7.5 -805.752 7.5 -804.153 7.5 -802.554C7.5 -800.954 7.5 -799.354 7.5 -797.753C7.5 -796.153 7.5 -794.551 7.5 -792.949C7.5 -791.347 7.5 -789.744 7.5 -788.141C7.5 -786.538 7.5 -784.933 7.5 -783.329C7.5 -781.724 7.5 -780.118 7.5 -778.512C7.5 -776.906 7.5 -775.299 7.5 -773.691C7.5 -772.084 7.5 -770.476 7.5 -768.867C7.5 -767.258 7.5 -765.648 7.5 -764.037C7.5 -762.427 7.5 -760.816 7.5 -759.204C7.5 -757.592 7.5 -755.979 7.5 -754.366C7.5 -752.753 7.5 -751.139 7.5 -749.524C7.5 -747.909 7.5 -746.294 7.5 -744.677C7.5 -743.061 7.5 -741.444 7.5 -739.826C7.5 -738.209 7.5 -736.59 7.5 -734.971C7.5 -733.352 7.5 -731.731 7.5 -730.111C7.5 -728.49 7.5 -726.868 7.5 -725.246C7.5 -723.624 7.5 -722.001 7.5 -720.377C7.5 -718.753 7.5 -717.128 7.5 -715.503C7.5 -713.877 7.5 -712.251 7.5 -710.624C7.5 -708.997 7.5 -707.37 7.5 -705.741C7.5 -704.112 7.5 -702.483 7.5 -700.853C7.5 -699.223 7.5 -697.592 7.5 -695.96C7.5 -694.328 7.5 -692.696 7.5 -691.062C7.5 -689.429 7.5 -687.795 7.5 -686.16C7.5 -684.525 7.5 -682.889 7.5 -681.252C7.5 -679.615 7.5 -677.978 7.5 -676.34C7.5 -674.701 7.5 -673.062 7.5 -671.422C7.5 -669.782 7.5 -668.141 7.5 -666.499C7.5 -664.858 7.5 -663.215 7.5 -661.572C7.5 -659.928 7.5 -658.284 7.5 -656.639C7.5 -654.994 7.5 -653.348 7.5 -651.701C7.5 -650.054 7.5 -648.407 7.5 -646.758C7.5 -645.109 7.5 -643.46 7.5 -641.81C7.5 -640.159 7.5 -638.508 7.5 -636.856C7.5 -635.204 7.5 -633.551 7.5 -631.897C7.5 -630.243 7.5 -628.588 7.5 -626.933C7.5 -625.277 7.5 -623.621 7.5 -621.963C7.5 -620.306 7.5 -618.647 7.5 -616.988C7.5 -615.329 7.5 -613.668 7.5 -612.007C7.5 -610.346 7.5 -608.684 7.5 -607.021C7.5 -605.358 7.5 -603.694 7.5 -602.03C7.5 -600.365 7.5 -598.699 7.5 -597.032C7.5 -595.366 7.5 -593.698 7.5 -592.029C7.5 -590.361 7.5 -588.691 7.5 -587.021C7.5 -585.35 7.5 -583.679 7.5 -582.007C7.5 -580.334 7.5 -578.661 7.5 -576.987C7.5 -575.312 7.5 -573.637 7.5 -571.961C7.5 -570.285 7.5 -568.607 7.5 -566.929C7.5 -565.251 7.5 -563.572 7.5 -561.892C7.5 -560.212 7.5 -558.53 7.5 -556.848C7.5 -555.166 7.5 -553.483 7.5 -551.799C7.5 -550.115 7.5 -548.43 7.5 -546.744C7.5 -545.058 7.5 -543.37 7.5 -541.682C7.5 -539.994 7.5 -538.305 7.5 -536.615C7.5 -534.925 7.5 -533.234 7.5 -531.541C7.5 -529.849 7.5 -528.156 7.5 -526.462C7.5 -524.768 7.5 -523.072 7.5 -521.376C7.5 -519.68 7.5 -517.982 7.5 -516.284C7.5 -514.586 7.5 -512.886 7.5 -511.186C7.5 -509.485 7.5 -507.784 7.5 -506.081C7.5 -504.379 7.5 -502.675 7.5 -500.97C7.5 -499.266 7.5 -497.56 7.5 -495.853C7.5 -494.146 7.5 -492.438 7.5 -490.729C7.5 -489.02 7.5 -487.31 7.5 -485.599C7.5 -483.888 7.5 -482.176 7.5 -480.463C7.5 -478.749 7.5 -477.035 7.5 -475.319C7.5 -473.604 7.5 -471.887 7.5 -470.17C7.5 -468.452 7.5 -466.733 7.5 -465.013C7.5 -463.294 7.5 -461.573 7.5 -459.85C7.5 -458.128 7.5 -456.405 7.5 -454.681C7.5 -452.956 7.5 -451.231 7.5 -449.504C7.5 -447.778 7.5 -446.05 7.5 -444.321C7.5 -442.592 7.5 -440.862 7.5 -439.131C7.5 -437.4 7.5 -435.668 7.5 -433.935C7.5 -432.201 7.5 -430.467 7.5 -428.731C7.5 -426.995 7.5 -425.258 7.5 -423.52C7.5 -421.782 7.5 -420.043 7.5 -418.303C7.5 -416.562 7.5 -414.821 7.5 -413.078C7.5 -411.336 7.5 -409.592 7.5 -407.847C7.5 -406.102 7.5 -404.355 7.5 -402.608C7.5 -400.861 7.5 -399.112 7.5 -397.362C7.5 -395.612 7.5 -393.861 7.5 -392.109C7.5 -390.357 7.5 -388.604 7.5 -386.849C7.5 -385.095 7.5 -383.339 7.5 -381.582C7.5 -379.825 7.5 -378.067 7.5 -376.307C7.5 -374.548 7.5 -372.787 7.5 -371.025C7.5 -369.263 7.5 -367.5 7.5 -365.736C7.5 -363.972 7.5 -362.206 7.5 -360.439C7.5 -358.672 7.5 -356.904 7.5 -355.135C7.5 -353.366 7.5 -351.595 7.5 -349.824C7.5 -348.052 7.5 -346.279 7.5 -344.505C7.5 -342.73 7.5 -340.955 7.5 -339.178C7.5 -337.401 7.5 -335.623 7.5 -333.844C7.5 -332.064 7.5 -330.284 7.5 -328.502C7.5 -326.72 7.5 -324.937 7.5 -323.152C7.5 -321.368 7.5 -319.582 7.5 -317.795C7.5 -316.008 7.5 -314.22 7.5 -312.43C7.5 -310.641 7.5 -308.85 7.5 -307.057C7.5 -305.265 7.5 -303.472 7.5 -301.677C7.5 -299.882 7.5 -298.086 7.5 -296.289C7.5 -294.491 7.5 -292.692 7.5 -290.892C7.5 -289.092 7.5 -287.291 7.5 -285.488C7.5 -283.685 7.5 -281.881 7.5 -280.076C7.5 -278.27 7.5 -276.464 7.5 -274.656C7.5 -272.847 7.5 -271.038 7.5 -269.227C7.5 -267.417 7.5 -265.604 7.5 -263.791C7.5 -261.977 7.5 -260.163 7.5 -258.346C7.5 -256.53 7.5 -254.713 7.5 -252.894C7.5 -251.075 7.5 -249.254 7.5 -247.433C7.5 -245.611 7.5 -243.788 7.5 -241.964C7.5 -240.139 7.5 -238.313 7.5 -236.486C7.5 -234.659 7.5 -232.83 7.5 -231C7.5 -229.171 7.5 -227.339 7.5 -225.506C7.5 -223.674 7.5 -221.839 7.5 -220.004C7.5 -218.168 7.5 -216.331 7.5 -214.493C7.5 -212.654 7.5 -210.815 7.5 -208.973C7.5 -207.132 7.5 -205.289 7.5 -203.445C7.5 -201.601 7.5 -199.756 7.5 -197.909C7.5 -196.062 7.5 -194.213 7.5 -192.364C7.5 -190.514 7.5 -188.663 7.5 -186.81C7.5 -184.957 7.5 -183.103 7.5 -181.247C7.5 -179.392 7.5 -177.535 7.5 -175.676C7.5 -173.818 7.5 -171.958 7.5 -170.096C7.5 -168.235 7.5 -166.372 7.5 -164.507C7.5 -162.643 7.5 -160.777 7.5 -158.91C7.5 -157.043 7.5 -155.174 7.5 -153.303C7.5 -151.433 7.5 -149.561 7.5 -147.688C7.5 -145.815 7.5 -143.94 7.5 -142.064C7.5 -140.187 7.5 -138.31 7.5 -136.43C7.5 -134.551 7.5 -132.67 7.5 -130.788C7.5 -128.906 7.5 -127.022 7.5 -125.137C7.5 -123.251 7.5 -121.364 7.5 -119.476C7.5 -117.588 7.5 -115.698 7.5 -113.806C7.5 -111.915 7.5 -110.022 7.5 -108.127C7.5 -106.233 7.5 -104.337 7.5 -102.439C7.5 -100.542 7.5 -98.6426 7.5 -96.7419C7.5 -94.8413 7.5 -92.939 7.5 -91.0352C7.5 -89.1315 7.5 -87.2261 7.5 -85.3192C7.5 -83.4123 7.5 -81.5038 7.5 -79.5938C7.5 -77.6837 7.5 -75.7721 7.5 -73.8589C7.5 -71.9457 7.5 -70.031 7.5 -68.1146C7.5 -66.1983 7.5 -64.2803 7.5 -62.3608C7.5 -60.4413 7.5 -58.5202 7.5 -56.5975C7.5 -54.6748 7.5 -52.7504 7.5 -50.8245C7.5 -48.8986 7.5 -46.9711 7.5 -45.042C7.5 -43.1129 7.5 -41.1821 7.5 -39.2498C7.5 -37.3174 7.5 -35.3835 7.5 -33.4479C7.5 -31.5123 7.5 -29.5751 7.5 -27.6362C7.5 -25.6974 7.5 -23.7569 7.5 -21.8148C7.5 -19.8727 7.5 -17.9289 7.5 -15.9836C7.5 -14.0382 7.5 -12.0911 7.5 -10.1425C7.5 -8.19378 7.5 -6.24346 7.5 -4.29148C7.5 -2.33949 7.5 -0.385856 7.5 1.56944H10.5C10.5 -0.385856 10.5 -2.33949 10.5 -4.29148C10.5 -6.24346 10.5 -8.19378 10.5 -10.1425C10.5 -12.0911 10.5 -14.0382 10.5 -15.9836C10.5 -17.9289 10.5 -19.8727 10.5 -21.8148C10.5 -23.7569 10.5 -25.6974 10.5 -27.6362C10.5 -29.5751 10.5 -31.5123 10.5 -33.4479C10.5 -35.3835 10.5 -37.3174 10.5 -39.2498C10.5 -41.1821 10.5 -43.1129 10.5 -45.042C10.5 -46.9711 10.5 -48.8986 10.5 -50.8245C10.5 -52.7504 10.5 -54.6748 10.5 -56.5975C10.5 -58.5202 10.5 -60.4413 10.5 -62.3608C10.5 -64.2803 10.5 -66.1983 10.5 -68.1146C10.5 -70.031 10.5 -71.9457 10.5 -73.8589C10.5 -75.7721 10.5 -77.6837 10.5 -79.5938C10.5 -81.5038 10.5 -83.4123 10.5 -85.3192C10.5 -87.2261 10.5 -89.1315 10.5 -91.0352C10.5 -92.939 10.5 -94.8413 10.5 -96.7419C10.5 -98.6426 10.5 -100.542 10.5 -102.439C10.5 -104.337 10.5 -106.233 10.5 -108.127C10.5 -110.022 10.5 -111.915 10.5 -113.806C10.5 -115.698 10.5 -117.588 10.5 -119.476C10.5 -121.364 10.5 -123.251 10.5 -125.137C10.5 -127.022 10.5 -128.906 10.5 -130.788C10.5 -132.67 10.5 -134.551 10.5 -136.43C10.5 -138.31 10.5 -140.187 10.5 -142.064C10.5 -143.94 10.5 -145.815 10.5 -147.688C10.5 -149.561 10.5 -151.433 10.5 -153.303C10.5 -155.174 10.5 -157.043 10.5 -158.91C10.5 -160.777 10.5 -162.643 10.5 -164.507C10.5 -166.372 10.5 -168.235 10.5 -170.096C10.5 -171.958 10.5 -173.818 10.5 -175.676C10.5 -177.535 10.5 -179.392 10.5 -181.247C10.5 -183.103 10.5 -184.957 10.5 -186.81C10.5 -188.663 10.5 -190.514 10.5 -192.364C10.5 -194.213 10.5 -196.062 10.5 -197.909C10.5 -199.756 10.5 -201.601 10.5 -203.445C10.5 -205.289 10.5 -207.132 10.5 -208.973C10.5 -210.815 10.5 -212.654 10.5 -214.493C10.5 -216.331 10.5 -218.168 10.5 -220.004C10.5 -221.839 10.5 -223.674 10.5 -225.506C10.5 -227.339 10.5 -229.171 10.5 -231C10.5 -232.83 10.5 -234.659 10.5 -236.486C10.5 -238.313 10.5 -240.139 10.5 -241.964C10.5 -243.788 10.5 -245.611 10.5 -247.433C10.5 -249.254 10.5 -251.075 10.5 -252.894C10.5 -254.713 10.5 -256.53 10.5 -258.346C10.5 -260.163 10.5 -261.977 10.5 -263.791C10.5 -265.604 10.5 -267.417 10.5 -269.227C10.5 -271.038 10.5 -272.847 10.5 -274.656C10.5 -276.464 10.5 -278.27 10.5 -280.076C10.5 -281.881 10.5 -283.685 10.5 -285.488C10.5 -287.291 10.5 -289.092 10.5 -290.892C10.5 -292.692 10.5 -294.491 10.5 -296.289C10.5 -298.086 10.5 -299.882 10.5 -301.677C10.5 -303.472 10.5 -305.265 10.5 -307.057C10.5 -308.85 10.5 -310.641 10.5 -312.43C10.5 -314.22 10.5 -316.008 10.5 -317.795C10.5 -319.582 10.5 -321.368 10.5 -323.152C10.5 -324.937 10.5 -326.72 10.5 -328.502C10.5 -330.284 10.5 -332.064 10.5 -333.844C10.5 -335.623 10.5 -337.401 10.5 -339.178C10.5 -340.955 10.5 -342.73 10.5 -344.505C10.5 -346.279 10.5 -348.052 10.5 -349.824C10.5 -351.595 10.5 -353.366 10.5 -355.135C10.5 -356.904 10.5 -358.672 10.5 -360.439C10.5 -362.206 10.5 -363.972 10.5 -365.736C10.5 -367.5 10.5 -369.263 10.5 -371.025C10.5 -372.787 10.5 -374.548 10.5 -376.307C10.5 -378.067 10.5 -379.825 10.5 -381.582C10.5 -383.339 10.5 -385.095 10.5 -386.849C10.5 -388.604 10.5 -390.357 10.5 -392.109C10.5 -393.861 10.5 -395.612 10.5 -397.362C10.5 -399.112 10.5 -400.861 10.5 -402.608C10.5 -404.355 10.5 -406.102 10.5 -407.847C10.5 -409.592 10.5 -411.336 10.5 -413.078C10.5 -414.821 10.5 -416.562 10.5 -418.303C10.5 -420.043 10.5 -421.782 10.5 -423.52C10.5 -425.258 10.5 -426.995 10.5 -428.731C10.5 -430.467 10.5 -432.201 10.5 -433.935C10.5 -435.668 10.5 -437.4 10.5 -439.131C10.5 -440.862 10.5 -442.592 10.5 -444.321C10.5 -446.05 10.5 -447.778 10.5 -449.504C10.5 -451.231 10.5 -452.956 10.5 -454.681C10.5 -456.405 10.5 -458.128 10.5 -459.85C10.5 -461.573 10.5 -463.294 10.5 -465.013C10.5 -466.733 10.5 -468.452 10.5 -470.17C10.5 -471.887 10.5 -473.604 10.5 -475.319C10.5 -477.035 10.5 -478.749 10.5 -480.463C10.5 -482.176 10.5 -483.888 10.5 -485.599C10.5 -487.31 10.5 -489.02 10.5 -490.729C10.5 -492.438 10.5 -494.146 10.5 -495.853C10.5 -497.56 10.5 -499.266 10.5 -500.97C10.5 -502.675 10.5 -504.379 10.5 -506.081C10.5 -507.784 10.5 -509.485 10.5 -511.186C10.5 -512.886 10.5 -514.586 10.5 -516.284C10.5 -517.982 10.5 -519.68 10.5 -521.376C10.5 -523.072 10.5 -524.768 10.5 -526.462C10.5 -528.156 10.5 -529.849 10.5 -531.541C10.5 -533.234 10.5 -534.925 10.5 -536.615C10.5 -538.305 10.5 -539.994 10.5 -541.682C10.5 -543.37 10.5 -545.058 10.5 -546.744C10.5 -548.43 10.5 -550.115 10.5 -551.799C10.5 -553.483 10.5 -555.166 10.5 -556.848C10.5 -558.53 10.5 -560.212 10.5 -561.892C10.5 -563.572 10.5 -565.251 10.5 -566.929C10.5 -568.607 10.5 -570.285 10.5 -571.961C10.5 -573.637 10.5 -575.312 10.5 -576.987C10.5 -578.661 10.5 -580.334 10.5 -582.007C10.5 -583.679 10.5 -585.35 10.5 -587.021C10.5 -588.691 10.5 -590.361 10.5 -592.029C10.5 -593.698 10.5 -595.366 10.5 -597.032C10.5 -598.699 10.5 -600.365 10.5 -602.03C10.5 -603.694 10.5 -605.358 10.5 -607.021C10.5 -608.684 10.5 -610.346 10.5 -612.007C10.5 -613.668 10.5 -615.329 10.5 -616.988C10.5 -618.647 10.5 -620.306 10.5 -621.963C10.5 -623.621 10.5 -625.277 10.5 -626.933C10.5 -628.588 10.5 -630.243 10.5 -631.897C10.5 -633.551 10.5 -635.204 10.5 -636.856C10.5 -638.508 10.5 -640.159 10.5 -641.81C10.5 -643.46 10.5 -645.109 10.5 -646.758C10.5 -648.407 10.5 -650.054 10.5 -651.701C10.5 -653.348 10.5 -654.994 10.5 -656.639C10.5 -658.284 10.5 -659.928 10.5 -661.572C10.5 -663.215 10.5 -664.858 10.5 -666.499C10.5 -668.141 10.5 -669.782 10.5 -671.422C10.5 -673.062 10.5 -674.701 10.5 -676.34C10.5 -677.978 10.5 -679.615 10.5 -681.252C10.5 -682.889 10.5 -684.525 10.5 -686.16C10.5 -687.795 10.5 -689.429 10.5 -691.062C10.5 -692.696 10.5 -694.328 10.5 -695.96C10.5 -697.592 10.5 -699.223 10.5 -700.853C10.5 -702.483 10.5 -704.112 10.5 -705.741C10.5 -707.37 10.5 -708.997 10.5 -710.624C10.5 -712.251 10.5 -713.877 10.5 -715.503C10.5 -717.128 10.5 -718.753 10.5 -720.377C10.5 -722.001 10.5 -723.624 10.5 -725.246C10.5 -726.868 10.5 -728.49 10.5 -730.111C10.5 -731.731 10.5 -733.352 10.5 -734.971C10.5 -736.59 10.5 -738.209 10.5 -739.826C10.5 -741.444 10.5 -743.061 10.5 -744.677C10.5 -746.294 10.5 -747.909 10.5 -749.524C10.5 -751.139 10.5 -752.753 10.5 -754.366C10.5 -755.979 10.5 -757.592 10.5 -759.204C10.5 -760.816 10.5 -762.427 10.5 -764.037C10.5 -765.648 10.5 -767.258 10.5 -768.867C10.5 -770.476 10.5 -772.084 10.5 -773.691C10.5 -775.299 10.5 -776.906 10.5 -778.512C10.5 -780.118 10.5 -781.724 10.5 -783.329C10.5 -784.933 10.5 -786.538 10.5 -788.141C10.5 -789.744 10.5 -791.347 10.5 -792.949C10.5 -794.551 10.5 -796.153 10.5 -797.753C10.5 -799.354 10.5 -800.954 10.5 -802.554C10.5 -804.153 10.5 -805.752 10.5 -807.35C10.5 -808.948 10.5 -810.545 10.5 -812.142C10.5 -813.739 10.5 -815.335 10.5 -816.93C10.5 -818.526 10.5 -820.121 10.5 -821.715C10.5 -823.309 10.5 -824.903 10.5 -826.495C10.5 -828.088 10.5 -829.681 10.5 -831.272C10.5 -832.864 10.5 -834.455 10.5 -836.045C10.5 -837.636 10.5 -839.226 10.5 -840.815C10.5 -842.404 10.5 -843.993 10.5 -845.58C10.5 -847.168 10.5 -848.756 10.5 -850.343C10.5 -851.929 10.5 -853.515 10.5 -855.101C10.5 -856.687 10.5 -858.272 10.5 -859.856C10.5 -861.44 10.5 -863.024 10.5 -864.607C10.5 -866.191 10.5 -867.773 10.5 -869.355C10.5 -870.937 10.5 -872.519 10.5 -874.1C10.5 -875.681 10.5 -877.261 10.5 -878.841C10.5 -880.421 10.5 -882 10.5 -883.579C10.5 -885.157 10.5 -886.735 10.5 -888.313C10.5 -889.891 10.5 -891.468 10.5 -893.044C10.5 -894.621 10.5 -896.197 10.5 -897.772C10.5 -899.347 10.5 -900.922 10.5 -902.497C10.5 -904.071 10.5 -905.645 10.5 -907.218C10.5 -908.792 10.5 -910.364 10.5 -911.937C10.5 -913.509 10.5 -915.081 10.5 -916.652C10.5 -918.223 10.5 -919.794 10.5 -921.364C10.5 -922.935 10.5 -924.504 10.5 -926.074C10.5 -927.643 10.5 -929.212 10.5 -930.78C10.5 -932.348 10.5 -933.916 10.5 -935.483C10.5 -937.051 10.5 -938.617 10.5 -940.184C10.5 -941.75 10.5 -943.316 10.5 -944.881C10.5 -946.447 10.5 -948.012 10.5 -949.576C10.5 -951.141 10.5 -952.705 10.5 -954.268C10.5 -955.832 10.5 -957.395 10.5 -958.957C10.5 -960.52 10.5 -962.082 10.5 -963.644C10.5 -965.206 10.5 -966.767 10.5 -968.328C10.5 -969.889 10.5 -971.449 10.5 -973.009C10.5 -974.569 10.5 -976.129 10.5 -977.688C10.5 -979.247 10.5 -980.806 10.5 -982.364C10.5 -983.923 10.5 -985.481 10.5 -987.038C10.5 -988.596 10.5 -990.153 10.5 -991.709C10.5 -993.266 10.5 -994.822 10.5 -996.378C10.5 -997.934 10.5 -999.49 10.5 -1001.04C10.5 -1002.6 10.5 -1004.15 10.5 -1005.71C10.5 -1007.26 10.5 -1008.82 10.5 -1010.37C10.5 -1011.92 10.5 -1013.48 10.5 -1015.03C10.5 -1016.58 10.5 -1018.14 10.5 -1019.69C10.5 -1021.24 10.5 -1022.79 10.5 -1024.34C10.5 -1025.89 10.5 -1027.45 10.5 -1029C10.5 -1030.55 10.5 -1032.1 10.5 -1033.65C10.5 -1035.2 10.5 -1036.75 10.5 -1038.3C10.5 -1039.84 10.5 -1041.39 10.5 -1042.94C10.5 -1044.49 10.5 -1046.04 10.5 -1047.59C10.5 -1049.14 10.5 -1050.68 10.5 -1052.23C10.5 -1053.78 10.5 -1055.32 10.5 -1056.87C10.5 -1058.42 10.5 -1059.96 10.5 -1061.51C10.5 -1063.06 10.5 -1064.6 10.5 -1066.15C10.5 -1067.69 10.5 -1069.24 10.5 -1070.78C10.5 -1072.33 10.5 -1073.87 10.5 -1075.42C10.5 -1076.96 10.5 -1078.5 10.5 -1080.05C10.5 -1081.59 10.5 -1083.14 10.5 -1084.68C10.5 -1086.22 10.5 -1087.76 10.5 -1089.31C10.5 -1090.85 10.5 -1092.39 10.5 -1093.93C10.5 -1095.48 10.5 -1097.02 10.5 -1098.56C10.5 -1100.1 10.5 -1101.64 10.5 -1103.18C10.5 -1104.72 10.5 -1106.27 10.5 -1107.81C10.5 -1109.35 10.5 -1110.89 10.5 -1112.43C10.5 -1113.97 10.5 -1115.51 10.5 -1117.05C10.5 -1118.59 10.5 -1120.13 10.5 -1121.67C10.5 -1123.2 10.5 -1124.74 10.5 -1126.28C10.5 -1127.82 10.5 -1129.36 10.5 -1130.9C10.5 -1132.44 10.5 -1133.97 10.5 -1135.51C10.5 -1137.05 10.5 -1138.59 10.5 -1140.13C10.5 -1141.66 10.5 -1143.2 10.5 -1144.74C10.5 -1146.27 10.5 -1147.81 10.5 -1149.35C10.5 -1150.89 10.5 -1152.42 10.5 -1153.96C10.5 -1155.49 10.5 -1157.03 10.5 -1158.57C10.5 -1160.1 10.5 -1161.64 10.5 -1163.18C10.5 -1164.71 10.5 -1166.25 10.5 -1167.78C10.5 -1169.32 10.5 -1170.85 10.5 -1172.39C10.5 -1173.92 10.5 -1175.46 10.5 -1176.99C10.5 -1178.53 10.5 -1180.06 10.5 -1181.6C10.5 -1183.13 10.5 -1184.67 10.5 -1186.2C10.5 -1187.73 10.5 -1189.27 10.5 -1190.8C10.5 -1192.34 10.5 -1193.87 10.5 -1195.4C10.5 -1196.94 10.5 -1198.47 10.5 -1200.01C10.5 -1201.54 10.5 -1203.07 10.5 -1204.61C10.5 -1206.14 10.5 -1207.67 10.5 -1209.21C10.5 -1210.74 10.5 -1212.27 10.5 -1213.81C10.5 -1215.34 10.5 -1216.87 10.5 -1218.4C10.5 -1219.94 10.5 -1221.47 10.5 -1223C10.5 -1224.53 10.5 -1226.07 10.5 -1227.6C10.5 -1229.13 10.5 -1230.66 10.5 -1232.2C10.5 -1233.73 10.5 -1235.26 10.5 -1236.79C10.5 -1238.33 10.5 -1239.86 10.5 -1241.39C10.5 -1242.92 10.5 -1244.45 10.5 -1245.99C10.5 -1247.52 10.5 -1249.05 10.5 -1250.58C10.5 -1252.11 10.5 -1253.65 10.5 -1255.18C10.5 -1256.71 10.5 -1258.24 10.5 -1259.77C10.5 -1261.31 10.5 -1262.84 10.5 -1264.37C10.5 -1265.9 10.5 -1267.43 10.5 -1268.96C10.5 -1270.5 10.5 -1272.03 10.5 -1273.56C10.5 -1275.09 10.5 -1276.62 10.5 -1278.16C10.5 -1279.69 10.5 -1281.22 10.5 -1282.75C10.5 -1284.28 10.5 -1285.81 10.5 -1287.35C10.5 -1288.88 10.5 -1290.41 10.5 -1291.94C10.5 -1293.47 10.5 -1295 10.5 -1296.54C10.5 -1298.07 10.5 -1299.6 10.5 -1301.13C10.5 -1302.66 10.5 -1304.2 10.5 -1305.73C10.5 -1307.26 10.5 -1308.79 10.5 -1310.32C10.5 -1311.86 10.5 -1313.39 10.5 -1314.92C10.5 -1316.45 10.5 -1317.98 10.5 -1319.52C10.5 -1321.05 10.5 -1322.58 10.5 -1324.11C10.5 -1325.65 10.5 -1327.18 10.5 -1328.71C10.5 -1330.24 10.5 -1331.78 10.5 -1333.31C10.5 -1334.84 10.5 -1336.37 10.5 -1337.91C10.5 -1339.44 10.5 -1340.97 10.5 -1342.51C10.5 -1344.04 10.5 -1345.57 10.5 -1347.11C10.5 -1348.64 10.5 -1350.17 10.5 -1351.71C10.5 -1353.24 10.5 -1354.77 10.5 -1356.31C10.5 -1357.84 10.5 -1359.37 10.5 -1360.91C10.5 -1362.44 10.5 -1363.98 10.5 -1365.51C10.5 -1367.04 10.5 -1368.58 10.5 -1370.11C10.5 -1371.65 10.5 -1373.18 10.5 -1374.72C10.5 -1376.25 10.5 -1377.79 10.5 -1379.32C10.5 -1380.86 10.5 -1382.39 10.5 -1383.93C10.5 -1385.46 10.5 -1387 10.5 -1388.53C10.5 -1390.07 10.5 -1391.6 10.5 -1393.14C10.5 -1394.67 10.5 -1396.21 10.5 -1397.75C10.5 -1399.28 10.5 -1400.82 10.5 -1402.36C10.5 -1403.89 10.5 -1405.43 10.5 -1406.97C10.5 -1408.5 10.5 -1410.04 10.5 -1411.58C10.5 -1413.11 10.5 -1414.65 10.5 -1416.19C10.5 -1417.73 10.5 -1419.27 10.5 -1420.8C10.5 -1422.34 10.5 -1423.88 10.5 -1425.42C10.5 -1426.96 10.5 -1428.5 10.5 -1430.03C10.5 -1431.57 10.5 -1433.11 10.5 -1434.65C10.5 -1436.19 10.5 -1437.73 10.5 -1439.27C10.5 -1440.81 10.5 -1442.35 10.5 -1443.89C10.5 -1445.43 10.5 -1446.97 10.5 -1448.51C10.5 -1450.05 10.5 -1451.59 10.5 -1453.13C10.5 -1454.68 10.5 -1456.22 10.5 -1457.76C10.5 -1459.3 10.5 -1460.84 10.5 -1462.38C10.5 -1463.93 10.5 -1465.47 10.5 -1467.01C10.5 -1468.56 10.5 -1470.1 10.5 -1471.64C10.5 -1473.18 10.5 -1474.73 10.5 -1476.27C10.5 -1477.82 10.5 -1479.36 10.5 -1480.9C10.5 -1482.45 10.5 -1483.99 10.5 -1485.54C10.5 -1487.08 10.5 -1488.63 10.5 -1490.17C10.5 -1491.72 10.5 -1493.27 10.5 -1494.81C10.5 -1496.36 10.5 -1497.91 10.5 -1499.45C10.5 -1501 10.5 -1502.55 10.5 -1504.09C10.5 -1505.64 10.5 -1507.19 10.5 -1508.74C10.5 -1510.29 10.5 -1511.83 10.5 -1513.38C10.5 -1514.93 10.5 -1516.48 10.5 -1518.03C10.5 -1519.58 10.5 -1521.13 10.5 -1522.68C10.5 -1524.23 10.5 -1525.78 10.5 -1527.33C10.5 -1528.88 10.5 -1530.43 10.5 -1531.98C10.5 -1533.54 10.5 -1535.09 10.5 -1536.64C10.5 -1538.19 10.5 -1539.75 10.5 -1541.3C10.5 -1542.85 10.5 -1544.4 10.5 -1545.96C10.5 -1547.51 10.5 -1549.07 10.5 -1550.62C10.5 -1552.18 10.5 -1553.73 10.5 -1555.29C10.5 -1556.84 10.5 -1558.4 10.5 -1559.95C10.5 -1561.51 10.5 -1563.07 10.5 -1564.62C10.5 -1566.18 10.5 -1567.74 10.5 -1569.29C10.5 -1570.85 10.5 -1572.41 10.5 -1573.97C10.5 -1575.53 10.5 -1577.09 10.5 -1578.65C10.5 -1580.21 10.5 -1581.76 10.5 -1583.33C10.5 -1584.89 10.5 -1586.45 10.5 -1588.01C10.5 -1589.57 10.5 -1591.13 10.5 -1592.69C10.5 -1594.25 10.5 -1595.82 10.5 -1597.38C10.5 -1598.94 10.5 -1600.51 10.5 -1602.07C10.5 -1603.63 10.5 -1605.2 10.5 -1606.76C10.5 -1608.33 10.5 -1609.89 10.5 -1611.46C10.5 -1613.02 10.5 -1614.59 10.5 -1616.16C10.5 -1617.72 10.5 -1619.29 10.5 -1620.86C10.5 -1622.43 10.5 -1623.99 10.5 -1625.56C10.5 -1627.13 10.5 -1628.7 10.5 -1630.27C10.5 -1631.84 10.5 -1633.41 10.5 -1634.98C10.5 -1636.55 10.5 -1638.12 10.5 -1639.69C10.5 -1641.26 10.5 -1642.84 10.5 -1644.41C10.5 -1645.98 10.5 -1647.55 10.5 -1649.13C10.5 -1650.7 10.5 -1652.28 10.5 -1653.85C10.5 -1655.42 10.5 -1657 10.5 -1658.58C10.5 -1660.15 10.5 -1661.73 10.5 -1663.3C10.5 -1664.88 10.5 -1666.46 10.5 -1668.04C10.5 -1669.61 10.5 -1671.19 10.5 -1672.77C10.5 -1674.35 10.5 -1675.93 10.5 -1677.51C10.5 -1679.09 10.5 -1680.67 10.5 -1682.25C10.5 -1683.83 10.5 -1685.42 10.5 -1687C10.5 -1688.58 10.5 -1690.16 10.5 -1691.75C10.5 -1693.33 10.5 -1694.91 10.5 -1696.5C10.5 -1698.08 10.5 -1699.67 10.5 -1701.26C10.5 -1702.84 10.5 -1704.43 10.5 -1706.01C10.5 -1707.6 10.5 -1709.19 10.5 -1710.78C10.5 -1712.37 10.5 -1713.96 10.5 -1715.54C10.5 -1717.13 10.5 -1718.72 10.5 -1720.32C10.5 -1721.91 10.5 -1723.5 10.5 -1725.09C10.5 -1726.68 10.5 -1728.27 10.5 -1729.87C10.5 -1731.46 10.5 -1733.05 10.5 -1734.65C10.5 -1736.24 10.5 -1737.84 10.5 -1739.43C10.5 -1741.03 10.5 -1742.63 10.5 -1744.22C10.5 -1745.82 10.5 -1747.42 10.5 -1749.02C10.5 -1750.62 10.5 -1752.21 10.5 -1753.81C10.5 -1755.41 10.5 -1757.01 10.5 -1758.62C10.5 -1760.22 10.5 -1761.82 10.5 -1763.42C10.5 -1765.02 10.5 -1766.63 10.5 -1768.23C10.5 -1769.83 10.5 -1771.44 10.5 -1773.04C10.5 -1774.65 10.5 -1776.26 10.5 -1777.86C10.5 -1779.47 10.5 -1781.08 10.5 -1782.68C10.5 -1784.29 10.5 -1785.9 10.5 -1787.51C10.5 -1789.12 10.5 -1790.73 10.5 -1792.34C10.5 -1793.95 10.5 -1795.56 10.5 -1797.18C10.5 -1798.79 10.5 -1800.4 10.5 -1802.01C10.5 -1803.63 10.5 -1805.24 10.5 -1806.86C10.5 -1808.47 10.5 -1810.09 10.5 -1811.71C10.5 -1813.32 10.5 -1814.94 10.5 -1816.56C10.5 -1818.18 10.5 -1819.79 10.5 -1821.41C10.5 -1823.03 10.5 -1824.65 10.5 -1826.28C10.5 -1827.9 10.5 -1829.52 10.5 -1831.14C10.5 -1832.76 10.5 -1834.39 10.5 -1836.01C10.5 -1837.64 10.5 -1839.26 10.5 -1840.89C10.5 -1842.51 10.5 -1844.14 10.5 -1845.77C10.5 -1847.4 10.5 -1849.02 10.5 -1850.65C10.5 -1852.28 10.5 -1853.91 10.5 -1855.54C10.5 -1857.17 10.5 -1858.8 10.5 -1860.44C10.5 -1862.07 10.5 -1863.7 10.5 -1865.34C10.5 -1866.97 10.5 -1868.6 10.5 -1870.24C10.5 -1871.87 10.5 -1873.51 10.5 -1875.15C10.5 -1876.79 10.5 -1878.42 10.5 -1880.06C10.5 -1881.7 10.5 -1883.34 10.5 -1884.98C10.5 -1886.62 10.5 -1888.26 10.5 -1889.91C10.5 -1891.55 10.5 -1893.19 10.5 -1894.83C10.5 -1896.48 10.5 -1898.12 10.5 -1899.77C10.5 -1901.41 10.5 -1903.06 10.5 -1904.71C10.5 -1906.36 10.5 -1908 10.5 -1909.65C10.5 -1911.3 10.5 -1912.95 10.5 -1914.6C10.5 -1916.25 10.5 -1917.9 10.5 -1919.56C10.5 -1921.21 10.5 -1922.86 10.5 -1924.52C10.5 -1926.17 10.5 -1927.83 10.5 -1929.48C10.5 -1931.14 10.5 -1932.8 10.5 -1934.46C10.5 -1936.11 10.5 -1937.77 10.5 -1939.43C10.5 -1941.09 10.5 -1942.75 10.5 -1944.41C10.5 -1946.08 10.5 -1947.74 10.5 -1949.4C10.5 -1951.07 10.5 -1952.73 10.5 -1954.39C10.5 -1956.06 10.5 -1957.73 10.5 -1959.39C10.5 -1961.06 10.5 -1962.73 10.5 -1964.4C10.5 -1966.07 10.5 -1967.74 10.5 -1969.41C10.5 -1971.08 10.5 -1972.75 10.5 -1974.42C10.5 -1976.1 10.5 -1977.77 10.5 -1979.45C10.5 -1981.12 10.5 -1982.8 10.5 -1984.47C10.5 -1986.15 10.5 -1987.83 10.5 -1989.51C10.5 -1991.19 10.5 -1992.87 10.5 -1994.55C10.5 -1996.23 10.5 -1997.91 10.5 -1999.59C10.5 -2001.27 10.5 -2002.96 10.5 -2004.64C10.5 -2006.33 10.5 -2008.01 10.5 -2009.7C10.5 -2011.39 10.5 -2013.07 10.5 -2014.76C10.5 -2016.45 10.5 -2018.14 10.5 -2019.83C10.5 -2021.52 10.5 -2023.21 10.5 -2024.91C10.5 -2026.6 10.5 -2028.29 10.5 -2029.99C10.5 -2031.68 10.5 -2033.38 10.5 -2035.08C10.5 -2036.77 10.5 -2038.47 10.5 -2040.17C10.5 -2041.87 10.5 -2043.57 10.5 -2045.27C10.5 -2046.97 10.5 -2048.67 10.5 -2050.38C10.5 -2052.08 10.5 -2053.78 10.5 -2055.49C10.5 -2057.19 10.5 -2058.9 10.5 -2060.61C10.5 -2062.31 10.5 -2064.02 10.5 -2065.73C10.5 -2067.44 10.5 -2069.15 10.5 -2070.86C10.5 -2072.58 10.5 -2074.29 10.5 -2076C10.5 -2077.72 10.5 -2079.43 10.5 -2081.15C10.5 -2082.86 10.5 -2084.58 10.5 -2086.3C10.5 -2088.02 10.5 -2089.74 10.5 -2091.46C10.5 -2093.18 10.5 -2094.9 10.5 -2096.62C10.5 -2098.35 10.5 -2100.07 10.5 -2101.79C10.5 -2103.52 10.5 -2105.25 10.5 -2106.97C10.5 -2108.7 10.5 -2110.43 10.5 -2112.16C10.5 -2113.89 10.5 -2115.62 10.5 -2117.35C10.5 -2119.08 10.5 -2120.81 10.5 -2122.55C10.5 -2124.28 10.5 -2126.02 10.5 -2127.75C10.5 -2129.49 10.5 -2131.23 10.5 -2132.97C10.5 -2134.71 10.5 -2136.45 10.5 -2138.19C10.5 -2139.93 10.5 -2141.67 10.5 -2143.41C10.5 -2145.16 10.5 -2146.9 10.5 -2148.65C10.5 -2150.39 10.5 -2152.14 10.5 -2153.89C10.5 -2155.64 10.5 -2157.38 10.5 -2159.13C10.5 -2160.89 10.5 -2162.64 10.5 -2164.39C10.5 -2166.14 10.5 -2167.9 10.5 -2169.65C10.5 -2171.41 10.5 -2173.16 10.5 -2174.92C10.5 -2176.68 10.5 -2178.44 10.5 -2180.2C10.5 -2181.96 10.5 -2183.72 10.5 -2185.48C10.5 -2187.24 10.5 -2189.01 10.5 -2190.77C10.5 -2192.54 10.5 -2194.3 10.5 -2196.07C10.5 -2197.84 10.5 -2199.61 10.5 -2201.38C10.5 -2203.15 10.5 -2204.92 10.5 -2206.69C10.5 -2208.46 10.5 -2210.24 10.5 -2212.01C10.5 -2213.79 10.5 -2215.56 10.5 -2217.34C10.5 -2219.12 10.5 -2220.9 10.5 -2222.68C10.5 -2224.46 10.5 -2226.24 10.5 -2228.02C10.5 -2229.81 10.5 -2231.59 10.5 -2233.37C10.5 -2235.16 10.5 -2236.95 10.5 -2238.73C10.5 -2240.52 10.5 -2242.31 10.5 -2244.1C10.5 -2245.89 10.5 -2247.68 10.5 -2249.48C10.5 -2251.27 10.5 -2253.06 10.5 -2254.86C10.5 -2256.65 10.5 -2258.45 10.5 -2260.25C10.5 -2262.05 10.5 -2263.85 10.5 -2265.65C10.5 -2267.45 10.5 -2269.25 10.5 -2271.05C10.5 -2272.86 10.5 -2274.66 10.5 -2276.47C10.5 -2278.28 10.5 -2280.08 10.5 -2281.89C10.5 -2283.7 10.5 -2285.51 10.5 -2287.32C10.5 -2289.13 10.5 -2290.95 10.5 -2292.76C10.5 -2294.58 10.5 -2296.39 10.5 -2298.21C10.5 -2300.02 10.5 -2301.84 10.5 -2303.66C10.5 -2305.48 10.5 -2307.3 10.5 -2309.13C10.5 -2310.95 10.5 -2312.77 10.5 -2314.6C10.5 -2316.42 10.5 -2318.25 10.5 -2320.08C10.5 -2321.91 10.5 -2323.73 10.5 -2325.57C10.5 -2327.4 10.5 -2329.23 10.5 -2331.06C10.5 -2332.9 10.5 -2334.73 10.5 -2336.57C10.5 -2338.4 10.5 -2340.24 10.5 -2342.08C10.5 -2343.92 10.5 -2345.76 10.5 -2347.6C10.5 -2349.44 10.5 -2351.29 10.5 -2353.13C10.5 -2354.98 10.5 -2356.82 10.5 -2358.67C10.5 -2360.52 10.5 -2362.37 10.5 -2364.22C10.5 -2366.07 10.5 -2367.92 10.5 -2369.78C10.5 -2371.63 10.5 -2373.48 10.5 -2375.34C10.5 -2377.2 10.5 -2379.05 10.5 -2380.91C10.5 -2382.77 10.5 -2384.63 10.5 -2386.5C10.5 -2388.36 10.5 -2390.22 10.5 -2392.09C10.5 -2393.95 10.5 -2395.82 10.5 -2397.69C10.5 -2399.56 10.5 -2401.43 10.5 -2403.3C10.5 -2405.17 10.5 -2407.04 10.5 -2408.91C10.5 -2410.79 10.5 -2412.66 10.5 -2414.54C10.5 -2416.42 10.5 -2418.3 10.5 -2420.18C10.5 -2422.06 10.5 -2423.94 10.5 -2425.82C10.5 -2427.71 10.5 -2429.59 10.5 -2431.48C10.5 -2433.36 10.5 -2435.25 10.5 -2437.14C10.5 -2439.03 10.5 -2440.92 10.5 -2442.81C10.5 -2444.7 10.5 -2446.6 10.5 -2448.49C10.5 -2450.39 10.5 -2452.29 10.5 -2454.18C10.5 -2456.08 10.5 -2457.98 10.5 -2459.88C10.5 -2461.79 10.5 -2463.69 10.5 -2465.59C10.5 -2467.5 10.5 -2469.4 10.5 -2471.31C10.5 -2473.22 10.5 -2475.13 10.5 -2477.04C10.5 -2478.95 10.5 -2480.86 10.5 -2482.78C10.5 -2484.69 10.5 -2486.61 10.5 -2488.53C10.5 -2490.44 10.5 -2492.36 10.5 -2494.28C10.5 -2496.2 10.5 -2498.12 10.5 -2500.05C10.5 -2501.97 10.5 -2503.9 10.5 -2505.82C10.5 -2507.75 10.5 -2509.68 10.5 -2511.61C10.5 -2513.54 10.5 -2515.47 10.5 -2517.4C10.5 -2519.34 10.5 -2521.27 10.5 -2523.21C10.5 -2525.14 10.5 -2527.08 10.5 -2529.02C10.5 -2530.96 10.5 -2532.9 10.5 -2534.85C10.5 -2536.79 10.5 -2538.73 10.5 -2540.68C10.5 -2542.63 10.5 -2544.58 10.5 -2546.52C10.5 -2548.47 10.5 -2550.43 10.5 -2552.38C10.5 -2554.33 10.5 -2556.29 10.5 -2558.24C10.5 -2560.2 10.5 -2562.16 10.5 -2564.12C10.5 -2566.08 10.5 -2568.04 10.5 -2570H7.5Z" fill="#D3B7FF"/>
</g>
<defs>
<clipPath id="clip0_210_58">
<rect width="18" height="15" fill="white"/>
</clipPath>
</defs>
</svg>
