<svg width="60" height="60" viewBox="0 0 60 60" fill="none" xmlns="http://www.w3.org/2000/svg">
<g clip-path="url(#clip0_202_31)">
<path d="M0 0V60H60V0H0ZM56.2887 56.2887H3.71134V3.71134H56.2887V56.2887Z" fill="white"/>
<path d="M24.0976 46.6331C25.2769 46.6331 25.6102 46.1716 25.6102 45.5819C25.6102 44.9922 25.6102 43.7104 25.5846 41.8901C19.4572 43.1976 18.1497 38.9674 18.1497 38.9674C17.1498 36.4806 15.6885 35.7884 15.6885 35.7884C13.6887 34.4552 15.8423 34.4808 15.8423 34.4808C18.0471 34.6347 19.2264 36.7113 19.2264 36.7113C21.2005 40.0442 24.3796 39.07 25.6358 38.5059C25.7384 37.4035 26.2255 36.3524 27.0459 35.5833C22.1491 35.0449 16.996 33.1733 16.996 24.8667C16.9703 22.7132 17.7907 20.6109 19.2777 19.047C19.0213 18.5086 18.2779 16.3038 19.4572 13.3042C19.4572 13.3042 21.3031 12.7145 25.5333 15.5347C29.1482 14.5604 32.9426 14.5604 36.5575 15.5347C40.7364 12.7402 42.6079 13.3042 42.6079 13.3042C43.7873 16.2782 43.0438 18.483 42.8387 19.047C44.3257 20.6109 45.1204 22.7132 45.0948 24.8667C45.0948 33.199 39.9416 35.0192 35.0192 35.5576C35.7883 36.1986 36.5062 37.5317 36.5062 39.5571C36.5062 42.4798 36.4806 44.7872 36.4806 45.4794C36.4806 46.0434 36.7369 46.5049 37.9932 46.5049L24.0976 46.6331Z" fill="white"/>
</g>
<defs>
<clipPath id="clip0_202_31">
<rect width="60" height="60" fill="white"/>
</clipPath>
</defs>
</svg>
