<svg width="169" height="169" viewBox="0 0 169 169" fill="none" xmlns="http://www.w3.org/2000/svg">
<circle opacity="0.7" cx="84.5" cy="84.5" r="84.5" fill="black"/>
<path d="M132.25 87.474L123.575 83.0809C124.882 82.3657 125.974 81.312 126.734 80.0302C127.495 78.7484 127.897 77.2857 127.898 75.7951V68.9786C127.911 67.4568 127.623 65.9474 127.05 64.5377C126.476 63.1279 125.63 61.8456 124.558 60.7649C123.487 59.6841 122.212 58.8263 120.807 58.2408C119.402 57.6554 117.895 57.354 116.374 57.354C114.852 57.354 113.345 57.6554 111.94 58.2408C110.535 58.8263 109.26 59.6841 108.189 60.7649C107.118 61.8456 106.271 63.1279 105.697 64.5377C105.124 65.9474 104.836 67.4568 104.849 68.9786V75.7951C104.85 77.2857 105.252 78.7484 106.013 80.0302C106.773 81.312 107.865 82.3657 109.172 83.0809L100.498 87.4732C100.105 87.6717 99.7142 87.9029 99.3258 88.1521L93.3445 85.1236C95.1787 84.3152 96.7387 82.9916 97.835 81.3135C98.9313 79.6354 99.5166 77.675 99.52 75.6705V66.819C99.5593 64.8873 99.2128 62.9671 98.5007 61.171C97.7887 59.3749 96.7254 57.7389 95.3731 56.3588C94.0209 54.9788 92.4069 53.8824 90.6256 53.134C88.8444 52.3855 86.9317 52 84.9996 52C83.0675 52 81.1548 52.3855 79.3735 53.134C77.5922 53.8824 75.9782 54.9788 74.626 56.3588C73.2737 57.7389 72.2105 59.3749 71.4984 61.171C70.7864 62.9671 70.4398 64.8873 70.4792 66.819V75.6705C70.4827 77.6749 71.0682 79.6352 72.1644 81.3133C73.2607 82.9914 74.8205 84.3151 76.6546 85.1236L70.6742 88.1521C70.2858 87.9046 69.8948 87.6726 69.5029 87.474L60.8275 83.0809C62.1348 82.3654 63.2256 81.3115 63.9857 80.0298C64.7459 78.748 65.1475 77.2854 65.1485 75.7951V68.9786C65.1616 67.4568 64.8732 65.9474 64.2999 64.5377C63.7267 63.1279 62.8798 61.8456 61.8084 60.7649C60.7369 59.6841 59.462 58.8263 58.0573 58.2408C56.6525 57.6554 55.1457 57.354 53.6238 57.354C52.102 57.354 50.5952 57.6554 49.1904 58.2408C47.7856 58.8263 46.5107 59.6841 45.4393 60.7649C44.3678 61.8456 43.521 63.1279 42.9477 64.5377C42.3744 65.9474 42.086 67.4568 42.0992 68.9786V75.7951C42.1004 77.2857 42.5024 78.7484 43.263 80.0302C44.0237 81.312 45.115 82.3657 46.4227 83.0809L37.7499 87.474C35.4138 88.6483 33.4511 90.4504 32.0822 92.678C30.7133 94.9057 29.9923 97.4707 30.0001 100.085V106.237C30.0001 106.636 30.1585 107.018 30.4405 107.3C30.7226 107.582 31.1051 107.741 31.504 107.741H54.7612V115.208C54.7614 115.607 54.92 115.989 55.2019 116.271C55.4839 116.553 55.8663 116.711 56.2651 116.712H113.734C114.133 116.712 114.515 116.553 114.797 116.271C115.079 115.989 115.238 115.607 115.238 115.208V107.741H138.496C138.895 107.741 139.277 107.582 139.559 107.3C139.841 107.018 140 106.636 140 106.237V100.085C140.008 97.4707 139.287 94.9057 137.918 92.678C136.549 90.4504 134.586 88.6483 132.25 87.474ZM107.859 68.9786C107.848 67.8529 108.06 66.7362 108.483 65.693C108.906 64.6498 109.531 63.7007 110.323 62.9008C111.115 62.1008 112.058 61.4657 113.097 61.0323C114.136 60.5989 115.25 60.3758 116.376 60.3758C117.502 60.3758 118.616 60.5989 119.655 61.0323C120.694 61.4657 121.637 62.1008 122.429 62.9008C123.221 63.7007 123.846 64.6498 124.269 65.693C124.692 66.7362 124.904 67.8529 124.893 68.9786V75.7951C124.891 77.1998 124.333 78.5464 123.339 79.5397C122.346 80.5329 121 81.0916 119.595 81.0932H113.155C111.751 81.0909 110.405 80.5319 109.412 79.5388C108.419 78.5456 107.861 77.1993 107.859 75.7951V68.9786ZM73.4844 75.6671V66.8155C73.4493 65.2815 73.7212 63.756 74.284 62.3285C74.8468 60.9011 75.6892 59.6005 76.7617 58.5032C77.8342 57.4059 79.1152 56.534 80.5294 55.9387C81.9437 55.3434 83.4626 55.0368 84.997 55.0368C86.5314 55.0368 88.0503 55.3434 89.4645 55.9387C90.8788 56.534 92.1598 57.4059 93.2323 58.5032C94.3048 59.6005 95.1472 60.9011 95.71 62.3285C96.2728 63.756 96.5447 65.2815 96.5096 66.8155V75.6671C96.5073 77.6108 95.7342 79.4742 94.3598 80.8486C92.9854 82.223 91.122 82.9961 89.1783 82.9984H80.8166C78.8728 82.9961 77.0093 82.223 75.6347 80.8487C74.2602 79.4743 73.4869 77.6109 73.4844 75.6671ZM45.1096 68.9786C45.0983 67.8529 45.3102 66.7362 45.7332 65.693C46.1561 64.6498 46.7816 63.7007 47.5736 62.9008C48.3656 62.1008 49.3083 61.4657 50.3472 61.0323C51.3862 60.5989 52.5007 60.3758 53.6264 60.3758C54.7521 60.3758 55.8666 60.5989 56.9056 61.0323C57.9445 61.4657 58.8872 62.1008 59.6792 62.9008C60.4712 63.7007 61.0967 64.6498 61.5197 65.693C61.9426 66.7362 62.1545 67.8529 62.1432 68.9786V75.7951C62.1416 77.1998 61.5829 78.5464 60.5897 79.5397C59.5965 80.5329 58.2498 81.0916 56.8452 81.0932H50.4076C49.003 81.0916 47.6563 80.5329 46.6631 79.5397C45.6699 78.5464 45.1112 77.1998 45.1096 75.7951V68.9786ZM33.0079 100.085C33.0018 98.0269 33.5696 96.0076 34.6473 94.2538C35.7251 92.5001 37.2703 91.0814 39.1094 90.157L51.0685 84.101H56.1852L67.4292 89.7952L64.5813 91.2372C61.9994 92.5351 59.7719 94.4415 58.0909 96.792C56.4099 99.1425 55.3259 101.867 54.9322 104.729H33.0079V100.085ZM112.23 113.704H57.769V107.218C57.769 106.891 57.7828 106.566 57.8034 106.244V106.233C57.9665 103.649 58.8035 101.153 60.2311 98.9923C61.6588 96.832 63.6273 95.0833 65.9408 93.9202L81.5694 86.0062H88.4306L104.059 93.9202C106.373 95.0833 108.341 96.832 109.769 98.9923C111.197 101.153 112.034 103.649 112.197 106.233V106.244C112.217 106.567 112.23 106.892 112.23 107.219V113.704ZM136.992 104.733H115.068C114.674 101.87 113.59 99.1459 111.909 96.7954C110.228 94.4449 108.001 92.5385 105.419 91.2407L102.571 89.7986L113.815 84.101H118.932L130.891 90.157C132.73 91.0814 134.275 92.5001 135.353 94.2538C136.43 96.0076 136.998 98.0269 136.992 100.085V104.733Z" fill="white"/>
</svg>
