<svg width="169" height="169" viewBox="0 0 169 169" fill="none" xmlns="http://www.w3.org/2000/svg">
<g opacity="0.7">
<circle opacity="0.7" cx="84.5" cy="84.5" r="84.5" fill="black"/>
</g>
<path d="M32.4522 78.4939C31.0979 78.4939 30 79.5918 30 80.9461V89.0542C30 90.4086 31.0979 91.5065 32.4522 91.5065C33.8066 91.5065 34.9045 90.4086 34.9045 89.0542V80.9461C34.9045 79.5914 33.8066 78.4939 32.4522 78.4939Z" fill="white"/>
<path d="M42.0064 78.4939C40.6521 78.4939 39.5542 79.5918 39.5542 80.9461V89.0542C39.5542 90.4086 40.6521 91.5065 42.0064 91.5065C43.3608 91.5065 44.4587 90.4086 44.4587 89.0542V80.9461C44.4587 79.5914 43.3611 78.4939 42.0064 78.4939Z" fill="white"/>
<path d="M51.5606 75.0632C50.2063 75.0632 49.1084 76.1611 49.1084 77.5155V92.4846C49.1084 93.8389 50.2063 94.9368 51.5606 94.9368C52.915 94.9368 54.0129 93.8389 54.0129 92.4846V77.5155C54.0129 76.1611 52.915 75.0632 51.5606 75.0632Z" fill="white"/>
<path d="M61.1148 71.0095C59.7605 71.0095 58.6626 72.1074 58.6626 73.4618V96.539C58.6626 97.8933 59.7605 98.9912 61.1148 98.9912C62.4692 98.9912 63.5671 97.8933 63.5671 96.539V73.4618C63.5671 72.1071 62.4695 71.0095 61.1148 71.0095Z" fill="white"/>
<path d="M70.669 63.8362C69.3147 63.8362 68.2168 64.9341 68.2168 66.2884V103.711C68.2168 105.065 69.3147 106.163 70.669 106.163C72.0234 106.163 73.1213 105.065 73.1213 103.711V66.2884C73.1213 64.9341 72.0234 63.8362 70.669 63.8362Z" fill="white"/>
<path d="M80.2232 46.8401C78.8689 46.8401 77.771 47.938 77.771 49.2923V120.707C77.771 122.062 78.8689 123.159 80.2232 123.159C81.5776 123.159 82.6755 122.062 82.6755 120.707V49.2923C82.6755 47.938 81.5776 46.8401 80.2232 46.8401Z" fill="white"/>
<path d="M89.7774 52.9214C88.4231 52.9214 87.3252 54.0193 87.3252 55.3736V114.626C87.3252 115.981 88.4231 117.079 89.7774 117.079C91.1318 117.079 92.2297 115.981 92.2297 114.626V55.3736C92.2297 54.0189 91.1318 52.9214 89.7774 52.9214Z" fill="white"/>
<path d="M99.3311 65.0837C97.9768 65.0837 96.8789 66.1816 96.8789 67.536V102.464C96.8789 103.818 97.9768 104.916 99.3311 104.916C100.685 104.916 101.783 103.818 101.783 102.464V67.536C101.783 66.1816 100.685 65.0837 99.3311 65.0837Z" fill="white"/>
<path d="M108.886 72.4124C107.531 72.4124 106.434 73.5103 106.434 74.8646V95.1354C106.434 96.4897 107.531 97.5876 108.886 97.5876C110.24 97.5876 111.338 96.4897 111.338 95.1354V74.8646C111.338 73.5103 110.24 72.4124 108.886 72.4124Z" fill="white"/>
<path d="M118.44 75.5312C117.086 75.5312 115.988 76.6291 115.988 77.9835V92.0169C115.988 93.3712 117.086 94.4691 118.44 94.4691C119.794 94.4691 120.892 93.3712 120.892 92.0169V77.9835C120.892 76.6291 119.794 75.5312 118.44 75.5312Z" fill="white"/>
<path d="M127.994 78.4939C126.639 78.4939 125.542 79.5918 125.542 80.9461V89.0542C125.542 90.4086 126.639 91.5065 127.994 91.5065C129.348 91.5065 130.446 90.4086 130.446 89.0542V80.9461C130.446 79.5914 129.348 78.4939 127.994 78.4939Z" fill="white"/>
<path d="M137.548 78.4939C136.194 78.4939 135.096 79.5918 135.096 80.9461V89.0542C135.096 90.4086 136.194 91.5065 137.548 91.5065C138.902 91.5065 140 90.4086 140 89.0542V80.9461C140 79.5914 138.902 78.4939 137.548 78.4939Z" fill="white"/>
</svg>
