<svg width="183" height="183" viewBox="0 0 183 183" fill="none" xmlns="http://www.w3.org/2000/svg">
<g opacity="0.7">
<circle opacity="0.7" cx="91.5" cy="91.5" r="91.5" fill="black"/>
</g>
<path d="M78.1381 131.342C80.9223 131.342 81.7091 130.253 81.7091 128.861C81.7091 127.469 81.7091 124.442 81.6486 120.145C67.1828 123.232 64.0959 113.245 64.0959 113.245C61.7354 107.374 58.2854 105.74 58.2854 105.74C53.5644 102.592 58.6486 102.653 58.6486 102.653C63.8538 103.016 66.638 107.919 66.638 107.919C71.2986 115.787 78.8039 113.487 81.7696 112.156C82.0117 109.553 83.1617 107.071 85.0986 105.256C73.5381 103.985 61.3723 99.5661 61.3723 79.9555C61.3117 74.8713 63.2486 69.9082 66.7591 66.2161C66.1538 64.945 64.3986 59.7397 67.1828 52.6582C67.1828 52.6582 71.5407 51.266 81.5275 57.9239C90.0618 55.6239 99.0197 55.6239 107.554 57.9239C117.42 51.3266 121.838 52.6582 121.838 52.6582C124.622 59.6792 122.867 64.8845 122.383 66.2161C125.893 69.9082 127.77 74.8713 127.709 79.9555C127.709 99.6266 115.543 103.924 103.922 105.195C105.738 106.708 107.433 109.856 107.433 114.637C107.433 121.537 107.372 126.985 107.372 128.619C107.372 129.95 107.978 131.04 110.943 131.04L78.1381 131.342Z" fill="white"/>
</svg>
