<svg width="169" height="169" viewBox="0 0 169 169" fill="none" xmlns="http://www.w3.org/2000/svg">
<circle opacity="0.7" cx="84.5" cy="84.5" r="84.5" fill="black"/>
<g clip-path="url(#clip0_47_1064)">
<path d="M57.5 91.875C56.1403 91.875 54.811 92.2782 53.6805 93.0336C52.5499 93.7891 51.6687 94.8628 51.1483 96.119C50.628 97.3753 50.4918 98.7576 50.7571 100.091C51.0224 101.425 51.6772 102.65 52.6386 103.611C53.6001 104.573 54.8251 105.228 56.1588 105.493C57.4924 105.758 58.8747 105.622 60.131 105.102C61.3872 104.581 62.4609 103.7 63.2164 102.57C63.9718 101.439 64.375 100.11 64.375 98.75C64.375 96.9266 63.6507 95.178 62.3614 93.8886C61.072 92.5993 59.3234 91.875 57.5 91.875ZM57.5 102.188C56.8201 102.188 56.1555 101.986 55.5902 101.608C55.0249 101.23 54.5843 100.694 54.3242 100.065C54.064 99.4374 53.9959 98.7462 54.1286 98.0794C54.2612 97.4126 54.5886 96.8001 55.0693 96.3193C55.5501 95.8386 56.1626 95.5112 56.8294 95.3786C57.4962 95.2459 58.1874 95.314 58.8155 95.5742C59.4436 95.8343 59.9805 96.2749 60.3582 96.8402C60.7359 97.4055 60.9375 98.0701 60.9375 98.75C60.9375 99.6617 60.5753 100.536 59.9307 101.181C59.286 101.825 58.4117 102.188 57.5 102.188Z" fill="white"/>
<path d="M112.5 40.3125C109.157 40.3142 105.887 41.2907 103.091 43.1223C100.295 44.954 98.0934 47.5613 96.7562 50.625H73.0891C71.049 50.6251 69.0548 51.2303 67.3587 52.364C65.6627 53.4977 64.341 55.1089 63.5608 56.9939C62.7807 58.879 62.5772 60.953 62.9761 62.9537C63.3749 64.9544 64.3582 66.7919 65.8016 68.2336L101.766 104.198C102.728 105.159 103.384 106.384 103.65 107.718C103.916 109.051 103.781 110.434 103.261 111.69C102.741 112.947 101.86 114.021 100.73 114.777C99.5998 115.533 98.2707 115.937 96.9109 115.938H69.8664C72.4445 111.262 74.6875 105.273 74.6875 98.75C74.6875 94.1916 72.8767 89.8199 69.6534 86.5966C66.4301 83.3733 62.0584 81.5625 57.5 81.5625C52.9416 81.5625 48.5699 83.3733 45.3466 86.5966C42.1233 89.8199 40.3125 94.1916 40.3125 98.75C40.3125 107.438 44.3258 115.173 47.7031 120.131C50.4016 124.093 55.2227 129.688 57.5 129.688C59.7773 129.688 64.5984 124.093 67.2969 120.131L67.8125 119.375H96.9109C98.951 119.375 100.945 118.77 102.641 117.636C104.337 116.502 105.659 114.891 106.439 113.006C107.219 111.121 107.423 109.047 107.024 107.046C106.625 105.046 105.642 103.208 104.198 101.766L68.2336 65.8016C67.2715 64.8406 66.6161 63.6159 66.3501 62.2823C66.0841 60.9488 66.2195 59.5663 66.7392 58.3098C67.259 57.0532 68.1397 55.979 69.2699 55.223C70.4002 54.467 71.7293 54.0631 73.0891 54.0625H95.6562C95.4279 55.1941 95.3128 56.3456 95.3125 57.5C95.3125 66.1883 99.3258 73.9227 102.703 78.8813C105.402 82.843 110.223 88.4375 112.5 88.4375C114.777 88.4375 119.598 82.843 122.297 78.8813C125.674 73.9227 129.688 66.1883 129.688 57.5C129.688 52.9416 127.877 48.5699 124.653 45.3466C121.43 42.1233 117.058 40.3125 112.5 40.3125ZM57.5 126.07C54.8445 124.162 43.75 112.44 43.75 98.75C43.75 95.1033 45.1987 91.6059 47.7773 89.0273C50.3559 86.4487 53.8533 85 57.5 85C61.1467 85 64.6441 86.4487 67.2227 89.0273C69.8013 91.6059 71.25 95.1033 71.25 98.75C71.25 112.44 60.1555 124.162 57.5 126.07ZM112.5 84.8195C109.845 82.9117 98.75 71.1898 98.75 57.5C98.75 53.8533 100.199 50.3559 102.777 47.7773C105.356 45.1987 108.853 43.75 112.5 43.75C116.147 43.75 119.644 45.1987 122.223 47.7773C124.801 50.3559 126.25 53.8533 126.25 57.5C126.25 71.1898 115.155 82.9117 112.5 84.8195Z" fill="white"/>
<path d="M112.5 50.625C111.14 50.625 109.811 51.0282 108.68 51.7836C107.55 52.5391 106.669 53.6128 106.148 54.8691C105.628 56.1253 105.492 57.5076 105.757 58.8412C106.022 60.1749 106.677 61.3999 107.639 62.3614C108.6 63.3228 109.825 63.9776 111.159 64.2429C112.492 64.5082 113.875 64.372 115.131 63.8517C116.387 63.3313 117.461 62.4501 118.216 61.3195C118.972 60.189 119.375 58.8597 119.375 57.5C119.375 55.6766 118.651 53.928 117.361 52.6386C116.072 51.3493 114.323 50.625 112.5 50.625ZM112.5 60.9375C111.82 60.9375 111.156 60.7359 110.59 60.3582C110.025 59.9805 109.584 59.4436 109.324 58.8155C109.064 58.1874 108.996 57.4962 109.129 56.8294C109.261 56.1626 109.589 55.5501 110.069 55.0693C110.55 54.5886 111.163 54.2612 111.829 54.1286C112.496 53.9959 113.187 54.064 113.815 54.3242C114.444 54.5843 114.98 55.0249 115.358 55.5902C115.736 56.1555 115.938 56.8201 115.938 57.5C115.938 58.4117 115.575 59.286 114.931 59.9307C114.286 60.5753 113.412 60.9375 112.5 60.9375Z" fill="white"/>
</g>
<defs>
<clipPath id="clip0_47_1064">
<rect width="110" height="110" fill="white" transform="translate(30 30)"/>
</clipPath>
</defs>
</svg>
