<svg width="177" height="259" viewBox="0 0 177 259" fill="none" xmlns="http://www.w3.org/2000/svg">
<rect width="176" height="259" fill="#D3B7FF"/>
<path d="M33.5298 167.12C32.9938 167.12 32.4978 167.016 32.0418 166.808C31.5938 166.6 31.2258 166.3 30.9377 165.908L31.8258 164.84C32.0578 165.16 32.3098 165.4 32.5818 165.56C32.8618 165.72 33.1658 165.8 33.4938 165.8C34.3658 165.8 34.8018 165.284 34.8018 164.252V159.908H31.8138V158.6H36.3618V164.168C36.3618 165.16 36.1178 165.9 35.6298 166.388C35.1498 166.876 34.4498 167.12 33.5298 167.12ZM41.2859 167.084C40.6299 167.084 40.0459 166.944 39.5339 166.664C39.0219 166.376 38.6179 165.984 38.3219 165.488C38.0259 164.992 37.8779 164.428 37.8779 163.796C37.8779 163.156 38.0259 162.592 38.3219 162.104C38.6179 161.608 39.0219 161.22 39.5339 160.94C40.0459 160.66 40.6299 160.52 41.2859 160.52C41.9499 160.52 42.5379 160.66 43.0499 160.94C43.5699 161.22 43.9739 161.604 44.2619 162.092C44.5579 162.58 44.7059 163.148 44.7059 163.796C44.7059 164.428 44.5579 164.992 44.2619 165.488C43.9739 165.984 43.5699 166.376 43.0499 166.664C42.5379 166.944 41.9499 167.084 41.2859 167.084ZM41.2859 165.8C41.6539 165.8 41.9819 165.72 42.2699 165.56C42.5579 165.4 42.7819 165.168 42.9419 164.864C43.1099 164.56 43.1939 164.204 43.1939 163.796C43.1939 163.38 43.1099 163.024 42.9419 162.728C42.7819 162.424 42.5579 162.192 42.2699 162.032C41.9819 161.872 41.6579 161.792 41.2979 161.792C40.9299 161.792 40.6019 161.872 40.3139 162.032C40.0339 162.192 39.8099 162.424 39.6419 162.728C39.4739 163.024 39.3899 163.38 39.3899 163.796C39.3899 164.204 39.4739 164.56 39.6419 164.864C39.8099 165.168 40.0339 165.4 40.3139 165.56C40.6019 165.72 40.9259 165.8 41.2859 165.8ZM46.1403 167V160.592H47.6403V167H46.1403ZM46.8963 159.536C46.6163 159.536 46.3843 159.448 46.2003 159.272C46.0243 159.096 45.9363 158.884 45.9363 158.636C45.9363 158.38 46.0243 158.168 46.2003 158C46.3843 157.824 46.6163 157.736 46.8963 157.736C47.1763 157.736 47.4043 157.82 47.5803 157.988C47.7643 158.148 47.8563 158.352 47.8563 158.6C47.8563 158.864 47.7683 159.088 47.5923 159.272C47.4163 159.448 47.1843 159.536 46.8963 159.536ZM53.245 160.52C53.757 160.52 54.213 160.62 54.613 160.82C55.021 161.02 55.341 161.328 55.573 161.744C55.805 162.152 55.921 162.68 55.921 163.328V167H54.421V163.52C54.421 162.952 54.285 162.528 54.013 162.248C53.749 161.968 53.377 161.828 52.897 161.828C52.545 161.828 52.233 161.9 51.961 162.044C51.689 162.188 51.477 162.404 51.325 162.692C51.181 162.972 51.109 163.328 51.109 163.76V167H49.609V160.592H51.037V162.32L50.785 161.792C51.009 161.384 51.333 161.072 51.757 160.856C52.189 160.632 52.685 160.52 53.245 160.52ZM59.8038 167.084C59.2678 167.084 58.7518 167.016 58.2558 166.88C57.7678 166.736 57.3798 166.564 57.0918 166.364L57.6678 165.224C57.9558 165.408 58.2998 165.56 58.6998 165.68C59.0998 165.8 59.4998 165.86 59.8998 165.86C60.3718 165.86 60.7118 165.796 60.9198 165.668C61.1358 165.54 61.2438 165.368 61.2438 165.152C61.2438 164.976 61.1718 164.844 61.0278 164.756C60.8838 164.66 60.6958 164.588 60.4638 164.54C60.2318 164.492 59.9718 164.448 59.6838 164.408C59.4038 164.368 59.1198 164.316 58.8318 164.252C58.5518 164.18 58.2958 164.08 58.0638 163.952C57.8318 163.816 57.6438 163.636 57.4998 163.412C57.3558 163.188 57.2838 162.892 57.2838 162.524C57.2838 162.116 57.3998 161.764 57.6318 161.468C57.8638 161.164 58.1878 160.932 58.6038 160.772C59.0278 160.604 59.5278 160.52 60.1038 160.52C60.5358 160.52 60.9718 160.568 61.4118 160.664C61.8518 160.76 62.2158 160.896 62.5038 161.072L61.9278 162.212C61.6238 162.028 61.3158 161.904 61.0038 161.84C60.6998 161.768 60.3958 161.732 60.0918 161.732C59.6358 161.732 59.2958 161.8 59.0718 161.936C58.8558 162.072 58.7478 162.244 58.7478 162.452C58.7478 162.644 58.8198 162.788 58.9638 162.884C59.1078 162.98 59.2958 163.056 59.5278 163.112C59.7598 163.168 60.0158 163.216 60.2958 163.256C60.5838 163.288 60.8678 163.34 61.1478 163.412C61.4278 163.484 61.6838 163.584 61.9158 163.712C62.1558 163.832 62.3478 164.004 62.4918 164.228C62.6358 164.452 62.7078 164.744 62.7078 165.104C62.7078 165.504 62.5878 165.852 62.3478 166.148C62.1158 166.444 61.7838 166.676 61.3518 166.844C60.9198 167.004 60.4038 167.084 59.8038 167.084ZM70.028 167.084C69.484 167.084 69.004 166.984 68.588 166.784C68.172 166.576 67.848 166.264 67.616 165.848C67.384 165.424 67.268 164.892 67.268 164.252V160.592H68.768V164.048C68.768 164.624 68.896 165.056 69.152 165.344C69.416 165.624 69.788 165.764 70.268 165.764C70.62 165.764 70.924 165.692 71.18 165.548C71.444 165.404 71.648 165.188 71.792 164.9C71.944 164.612 72.02 164.256 72.02 163.832V160.592H73.52V167H72.092V165.272L72.344 165.8C72.128 166.216 71.812 166.536 71.396 166.76C70.98 166.976 70.524 167.084 70.028 167.084ZM77.464 167.084C76.928 167.084 76.412 167.016 75.916 166.88C75.428 166.736 75.04 166.564 74.752 166.364L75.328 165.224C75.616 165.408 75.96 165.56 76.36 165.68C76.76 165.8 77.16 165.86 77.56 165.86C78.032 165.86 78.372 165.796 78.58 165.668C78.796 165.54 78.904 165.368 78.904 165.152C78.904 164.976 78.832 164.844 78.688 164.756C78.544 164.66 78.356 164.588 78.124 164.54C77.892 164.492 77.632 164.448 77.344 164.408C77.064 164.368 76.78 164.316 76.492 164.252C76.212 164.18 75.956 164.08 75.724 163.952C75.492 163.816 75.304 163.636 75.16 163.412C75.016 163.188 74.944 162.892 74.944 162.524C74.944 162.116 75.06 161.764 75.292 161.468C75.524 161.164 75.848 160.932 76.264 160.772C76.688 160.604 77.188 160.52 77.764 160.52C78.196 160.52 78.632 160.568 79.072 160.664C79.512 160.76 79.876 160.896 80.164 161.072L79.588 162.212C79.284 162.028 78.976 161.904 78.664 161.84C78.36 161.768 78.056 161.732 77.752 161.732C77.296 161.732 76.956 161.8 76.732 161.936C76.516 162.072 76.408 162.244 76.408 162.452C76.408 162.644 76.48 162.788 76.624 162.884C76.768 162.98 76.956 163.056 77.188 163.112C77.42 163.168 77.676 163.216 77.956 163.256C78.244 163.288 78.528 163.34 78.808 163.412C79.088 163.484 79.344 163.584 79.576 163.712C79.816 163.832 80.008 164.004 80.152 164.228C80.296 164.452 80.368 164.744 80.368 165.104C80.368 165.504 80.248 165.852 80.008 166.148C79.776 166.444 79.444 166.676 79.012 166.844C78.58 167.004 78.064 167.084 77.464 167.084ZM87.3882 167.084C86.6842 167.084 86.1402 166.904 85.7562 166.544C85.3722 166.176 85.1802 165.636 85.1802 164.924V159.176H86.6802V164.888C86.6802 165.192 86.7562 165.428 86.9082 165.596C87.0682 165.764 87.2882 165.848 87.5682 165.848C87.9042 165.848 88.1842 165.76 88.4082 165.584L88.8282 166.652C88.6522 166.796 88.4362 166.904 88.1802 166.976C87.9242 167.048 87.6602 167.084 87.3882 167.084ZM84.1242 161.84V160.64H88.3962V161.84H84.1242ZM92.7312 167.084C92.0752 167.084 91.4912 166.944 90.9792 166.664C90.4672 166.376 90.0632 165.984 89.7672 165.488C89.4712 164.992 89.3232 164.428 89.3232 163.796C89.3232 163.156 89.4712 162.592 89.7672 162.104C90.0632 161.608 90.4672 161.22 90.9792 160.94C91.4912 160.66 92.0752 160.52 92.7312 160.52C93.3952 160.52 93.9832 160.66 94.4952 160.94C95.0152 161.22 95.4192 161.604 95.7072 162.092C96.0032 162.58 96.1512 163.148 96.1512 163.796C96.1512 164.428 96.0032 164.992 95.7072 165.488C95.4192 165.984 95.0152 166.376 94.4952 166.664C93.9832 166.944 93.3952 167.084 92.7312 167.084ZM92.7312 165.8C93.0992 165.8 93.4272 165.72 93.7152 165.56C94.0032 165.4 94.2272 165.168 94.3872 164.864C94.5552 164.56 94.6392 164.204 94.6392 163.796C94.6392 163.38 94.5552 163.024 94.3872 162.728C94.2272 162.424 94.0032 162.192 93.7152 162.032C93.4272 161.872 93.1032 161.792 92.7432 161.792C92.3752 161.792 92.0472 161.872 91.7592 162.032C91.4792 162.192 91.2552 162.424 91.0872 162.728C90.9192 163.024 90.8352 163.38 90.8352 163.796C90.8352 164.204 90.9192 164.56 91.0872 164.864C91.2552 165.168 91.4792 165.4 91.7592 165.56C92.0472 165.72 92.3712 165.8 92.7312 165.8ZM104.454 167.084C103.91 167.084 103.426 166.964 103.002 166.724C102.578 166.484 102.242 166.124 101.994 165.644C101.754 165.156 101.634 164.54 101.634 163.796C101.634 163.044 101.758 162.428 102.006 161.948C102.262 161.468 102.602 161.112 103.026 160.88C103.458 160.64 103.934 160.52 104.454 160.52C105.086 160.52 105.642 160.656 106.122 160.928C106.61 161.2 106.994 161.58 107.274 162.068C107.562 162.556 107.706 163.132 107.706 163.796C107.706 164.46 107.562 165.036 107.274 165.524C106.994 166.012 106.61 166.396 106.122 166.676C105.642 166.948 105.086 167.084 104.454 167.084ZM100.902 167V158.096H102.402V162.08L102.282 163.784L102.33 165.488V167H100.902ZM104.286 165.8C104.646 165.8 104.966 165.72 105.246 165.56C105.534 165.4 105.762 165.168 105.93 164.864C106.098 164.56 106.182 164.204 106.182 163.796C106.182 163.38 106.098 163.024 105.93 162.728C105.762 162.424 105.534 162.192 105.246 162.032C104.966 161.872 104.646 161.792 104.286 161.792C103.926 161.792 103.602 161.872 103.314 162.032C103.026 162.192 102.798 162.424 102.63 162.728C102.462 163.024 102.378 163.38 102.378 163.796C102.378 164.204 102.462 164.56 102.63 164.864C102.798 165.168 103.026 165.4 103.314 165.56C103.602 165.72 103.926 165.8 104.286 165.8ZM112.009 167.084C111.353 167.084 110.769 166.944 110.257 166.664C109.745 166.376 109.341 165.984 109.045 165.488C108.749 164.992 108.601 164.428 108.601 163.796C108.601 163.156 108.749 162.592 109.045 162.104C109.341 161.608 109.745 161.22 110.257 160.94C110.769 160.66 111.353 160.52 112.009 160.52C112.673 160.52 113.261 160.66 113.773 160.94C114.293 161.22 114.697 161.604 114.985 162.092C115.281 162.58 115.429 163.148 115.429 163.796C115.429 164.428 115.281 164.992 114.985 165.488C114.697 165.984 114.293 166.376 113.773 166.664C113.261 166.944 112.673 167.084 112.009 167.084ZM112.009 165.8C112.377 165.8 112.705 165.72 112.993 165.56C113.281 165.4 113.505 165.168 113.665 164.864C113.833 164.56 113.917 164.204 113.917 163.796C113.917 163.38 113.833 163.024 113.665 162.728C113.505 162.424 113.281 162.192 112.993 162.032C112.705 161.872 112.381 161.792 112.021 161.792C111.653 161.792 111.325 161.872 111.037 162.032C110.757 162.192 110.533 162.424 110.365 162.728C110.197 163.024 110.113 163.38 110.113 163.796C110.113 164.204 110.197 164.56 110.365 164.864C110.533 165.168 110.757 165.4 111.037 165.56C111.325 165.72 111.649 165.8 112.009 165.8ZM119.743 167.084C119.087 167.084 118.503 166.944 117.991 166.664C117.479 166.376 117.075 165.984 116.779 165.488C116.483 164.992 116.335 164.428 116.335 163.796C116.335 163.156 116.483 162.592 116.779 162.104C117.075 161.608 117.479 161.22 117.991 160.94C118.503 160.66 119.087 160.52 119.743 160.52C120.407 160.52 120.995 160.66 121.507 160.94C122.027 161.22 122.431 161.604 122.719 162.092C123.015 162.58 123.163 163.148 123.163 163.796C123.163 164.428 123.015 164.992 122.719 165.488C122.431 165.984 122.027 166.376 121.507 166.664C120.995 166.944 120.407 167.084 119.743 167.084ZM119.743 165.8C120.111 165.8 120.439 165.72 120.727 165.56C121.015 165.4 121.239 165.168 121.399 164.864C121.567 164.56 121.651 164.204 121.651 163.796C121.651 163.38 121.567 163.024 121.399 162.728C121.239 162.424 121.015 162.192 120.727 162.032C120.439 161.872 120.115 161.792 119.755 161.792C119.387 161.792 119.059 161.872 118.771 162.032C118.491 162.192 118.267 162.424 118.099 162.728C117.931 163.024 117.847 163.38 117.847 163.796C117.847 164.204 117.931 164.56 118.099 164.864C118.267 165.168 118.491 165.4 118.771 165.56C119.059 165.72 119.383 165.8 119.743 165.8ZM127.009 167.084C126.305 167.084 125.761 166.904 125.377 166.544C124.993 166.176 124.801 165.636 124.801 164.924V159.176H126.301V164.888C126.301 165.192 126.377 165.428 126.529 165.596C126.689 165.764 126.909 165.848 127.189 165.848C127.525 165.848 127.805 165.76 128.029 165.584L128.449 166.652C128.273 166.796 128.057 166.904 127.801 166.976C127.545 167.048 127.281 167.084 127.009 167.084ZM123.745 161.84V160.64H128.017V161.84H123.745ZM131.663 167.084C131.127 167.084 130.611 167.016 130.115 166.88C129.627 166.736 129.239 166.564 128.951 166.364L129.527 165.224C129.815 165.408 130.159 165.56 130.559 165.68C130.959 165.8 131.359 165.86 131.759 165.86C132.231 165.86 132.571 165.796 132.779 165.668C132.995 165.54 133.103 165.368 133.103 165.152C133.103 164.976 133.031 164.844 132.887 164.756C132.743 164.66 132.555 164.588 132.323 164.54C132.091 164.492 131.831 164.448 131.543 164.408C131.263 164.368 130.979 164.316 130.691 164.252C130.411 164.18 130.155 164.08 129.923 163.952C129.691 163.816 129.503 163.636 129.359 163.412C129.215 163.188 129.143 162.892 129.143 162.524C129.143 162.116 129.259 161.764 129.491 161.468C129.723 161.164 130.047 160.932 130.463 160.772C130.887 160.604 131.387 160.52 131.963 160.52C132.395 160.52 132.831 160.568 133.271 160.664C133.711 160.76 134.075 160.896 134.363 161.072L133.787 162.212C133.483 162.028 133.175 161.904 132.863 161.84C132.559 161.768 132.255 161.732 131.951 161.732C131.495 161.732 131.155 161.8 130.931 161.936C130.715 162.072 130.607 162.244 130.607 162.452C130.607 162.644 130.679 162.788 130.823 162.884C130.967 162.98 131.155 163.056 131.387 163.112C131.619 163.168 131.875 163.216 132.155 163.256C132.443 163.288 132.727 163.34 133.007 163.412C133.287 163.484 133.543 163.584 133.775 163.712C134.015 163.832 134.207 164.004 134.351 164.228C134.495 164.452 134.567 164.744 134.567 165.104C134.567 165.504 134.447 165.852 134.207 166.148C133.975 166.444 133.643 166.676 133.211 166.844C132.779 167.004 132.263 167.084 131.663 167.084ZM138.271 167.084C137.567 167.084 137.023 166.904 136.639 166.544C136.255 166.176 136.063 165.636 136.063 164.924V159.176H137.563V164.888C137.563 165.192 137.639 165.428 137.791 165.596C137.951 165.764 138.171 165.848 138.451 165.848C138.787 165.848 139.067 165.76 139.291 165.584L139.711 166.652C139.535 166.796 139.319 166.904 139.063 166.976C138.807 167.048 138.543 167.084 138.271 167.084ZM135.007 161.84V160.64H139.279V161.84H135.007ZM140.945 167V160.592H142.373V162.356L142.205 161.84C142.397 161.408 142.697 161.08 143.105 160.856C143.521 160.632 144.037 160.52 144.653 160.52V161.948C144.589 161.932 144.529 161.924 144.473 161.924C144.417 161.916 144.361 161.912 144.305 161.912C143.737 161.912 143.285 162.08 142.949 162.416C142.613 162.744 142.445 163.236 142.445 163.892V167H140.945ZM149.416 167V165.704L149.332 165.428V163.16C149.332 162.72 149.2 162.38 148.936 162.14C148.672 161.892 148.272 161.768 147.736 161.768C147.376 161.768 147.02 161.824 146.668 161.936C146.324 162.048 146.032 162.204 145.792 162.404L145.204 161.312C145.548 161.048 145.956 160.852 146.428 160.724C146.908 160.588 147.404 160.52 147.916 160.52C148.844 160.52 149.56 160.744 150.064 161.192C150.576 161.632 150.832 162.316 150.832 163.244V167H149.416ZM147.4 167.084C146.92 167.084 146.5 167.004 146.14 166.844C145.78 166.676 145.5 166.448 145.3 166.16C145.108 165.864 145.012 165.532 145.012 165.164C145.012 164.804 145.096 164.48 145.264 164.192C145.44 163.904 145.724 163.676 146.116 163.508C146.508 163.34 147.028 163.256 147.676 163.256H149.536V164.252H147.784C147.272 164.252 146.928 164.336 146.752 164.504C146.576 164.664 146.488 164.864 146.488 165.104C146.488 165.376 146.596 165.592 146.812 165.752C147.028 165.912 147.328 165.992 147.712 165.992C148.08 165.992 148.408 165.908 148.696 165.74C148.992 165.572 149.204 165.324 149.332 164.996L149.584 165.896C149.44 166.272 149.18 166.564 148.804 166.772C148.436 166.98 147.968 167.084 147.4 167.084ZM156.309 167.084C155.789 167.084 155.313 166.964 154.881 166.724C154.457 166.484 154.117 166.124 153.861 165.644C153.613 165.156 153.489 164.54 153.489 163.796C153.489 163.044 153.609 162.428 153.849 161.948C154.097 161.468 154.433 161.112 154.857 160.88C155.281 160.64 155.765 160.52 156.309 160.52C156.941 160.52 157.497 160.656 157.977 160.928C158.465 161.2 158.849 161.58 159.129 162.068C159.417 162.556 159.561 163.132 159.561 163.796C159.561 164.46 159.417 165.04 159.129 165.536C158.849 166.024 158.465 166.404 157.977 166.676C157.497 166.948 156.941 167.084 156.309 167.084ZM152.757 169.328V160.592H154.185V162.104L154.137 163.808L154.257 165.512V169.328H152.757ZM156.141 165.8C156.501 165.8 156.821 165.72 157.101 165.56C157.389 165.4 157.617 165.168 157.785 164.864C157.953 164.56 158.037 164.204 158.037 163.796C158.037 163.38 157.953 163.024 157.785 162.728C157.617 162.424 157.389 162.192 157.101 162.032C156.821 161.872 156.501 161.792 156.141 161.792C155.781 161.792 155.457 161.872 155.169 162.032C154.881 162.192 154.653 162.424 154.485 162.728C154.317 163.024 154.233 163.38 154.233 163.796C154.233 164.204 154.317 164.56 154.485 164.864C154.653 165.168 154.881 165.4 155.169 165.56C155.457 165.72 155.781 165.8 156.141 165.8ZM45.9273 182.084C45.2233 182.084 44.6793 181.904 44.2952 181.544C43.9113 181.176 43.7193 180.636 43.7193 179.924V174.176H45.2193V179.888C45.2193 180.192 45.2953 180.428 45.4473 180.596C45.6073 180.764 45.8273 180.848 46.1073 180.848C46.4433 180.848 46.7233 180.76 46.9473 180.584L47.3673 181.652C47.1913 181.796 46.9753 181.904 46.7193 181.976C46.4633 182.048 46.1993 182.084 45.9273 182.084ZM42.6633 176.84V175.64H46.9353V176.84H42.6633ZM52.2372 175.52C52.7492 175.52 53.2052 175.62 53.6052 175.82C54.0132 176.02 54.3332 176.328 54.5652 176.744C54.7972 177.152 54.9132 177.68 54.9132 178.328V182H53.4132V178.52C53.4132 177.952 53.2772 177.528 53.0052 177.248C52.7412 176.968 52.3692 176.828 51.8892 176.828C51.5372 176.828 51.2252 176.9 50.9532 177.044C50.6812 177.188 50.4692 177.404 50.3172 177.692C50.1732 177.972 50.1012 178.328 50.1012 178.76V182H48.6012V173.096H50.1012V177.32L49.7772 176.792C50.0012 176.384 50.3252 176.072 50.7492 175.856C51.1812 175.632 51.6772 175.52 52.2372 175.52ZM59.8398 182.084C59.1278 182.084 58.5038 181.944 57.9678 181.664C57.4398 181.376 57.0278 180.984 56.7318 180.488C56.4438 179.992 56.2998 179.428 56.2998 178.796C56.2998 178.156 56.4398 177.592 56.7198 177.104C57.0078 176.608 57.3998 176.22 57.8958 175.94C58.3998 175.66 58.9718 175.52 59.6118 175.52C60.2358 175.52 60.7918 175.656 61.2798 175.928C61.7678 176.2 62.1518 176.584 62.4318 177.08C62.7118 177.576 62.8518 178.16 62.8518 178.832C62.8518 178.896 62.8478 178.968 62.8398 179.048C62.8398 179.128 62.8358 179.204 62.8278 179.276H57.4878V178.28H62.0358L61.4478 178.592C61.4558 178.224 61.3798 177.9 61.2198 177.62C61.0598 177.34 60.8398 177.12 60.5598 176.96C60.2878 176.8 59.9718 176.72 59.6118 176.72C59.2438 176.72 58.9198 176.8 58.6398 176.96C58.3678 177.12 58.1518 177.344 57.9918 177.632C57.8398 177.912 57.7638 178.244 57.7638 178.628V178.868C57.7638 179.252 57.8518 179.592 58.0278 179.888C58.2038 180.184 58.4518 180.412 58.7718 180.572C59.0918 180.732 59.4598 180.812 59.8758 180.812C60.2358 180.812 60.5598 180.756 60.8478 180.644C61.1358 180.532 61.3918 180.356 61.6158 180.116L62.4198 181.04C62.1318 181.376 61.7678 181.636 61.3278 181.82C60.8958 181.996 60.3998 182.084 59.8398 182.084ZM69.061 182.12C68.525 182.12 68.029 182.016 67.573 181.808C67.125 181.6 66.757 181.3 66.469 180.908L67.357 179.84C67.589 180.16 67.841 180.4 68.113 180.56C68.393 180.72 68.697 180.8 69.025 180.8C69.897 180.8 70.333 180.284 70.333 179.252V174.908H67.345V173.6H71.893V179.168C71.893 180.16 71.649 180.9 71.161 181.388C70.681 181.876 69.981 182.12 69.061 182.12ZM74.0811 182V173.6H75.3651L79.0371 179.732H78.3651L81.9771 173.6H83.2611L83.2731 182H81.7971L81.7851 175.916H82.0971L79.0251 181.04H78.3291L75.2091 175.916H75.5691V182H74.0811ZM86.9821 177.092H91.1581V178.376H86.9821V177.092ZM87.1021 180.692H91.8421V182H85.5421V173.6H91.6741V174.908H87.1021V180.692ZM96.1851 182.12C95.5291 182.12 94.9011 182.028 94.3011 181.844C93.7011 181.652 93.2251 181.408 92.8731 181.112L93.4131 179.9C93.7491 180.164 94.1651 180.384 94.6611 180.56C95.1571 180.736 95.6651 180.824 96.1851 180.824C96.6251 180.824 96.9811 180.776 97.2531 180.68C97.5251 180.584 97.7251 180.456 97.8531 180.296C97.9811 180.128 98.0451 179.94 98.0451 179.732C98.0451 179.476 97.9531 179.272 97.7691 179.12C97.5851 178.96 97.3451 178.836 97.0491 178.748C96.7611 178.652 96.4371 178.564 96.0771 178.484C95.7251 178.404 95.3691 178.312 95.0091 178.208C94.6571 178.096 94.3331 177.956 94.0371 177.788C93.7491 177.612 93.5131 177.38 93.3291 177.092C93.1451 176.804 93.0531 176.436 93.0531 175.988C93.0531 175.532 93.1731 175.116 93.4131 174.74C93.6611 174.356 94.0331 174.052 94.5291 173.828C95.0331 173.596 95.6691 173.48 96.4371 173.48C96.9411 173.48 97.4411 173.544 97.9371 173.672C98.4331 173.8 98.8651 173.984 99.2331 174.224L98.7411 175.436C98.3651 175.212 97.9771 175.048 97.5771 174.944C97.1771 174.832 96.7931 174.776 96.4251 174.776C95.9931 174.776 95.6411 174.828 95.3691 174.932C95.1051 175.036 94.9091 175.172 94.7811 175.34C94.6611 175.508 94.6011 175.7 94.6011 175.916C94.6011 176.172 94.6891 176.38 94.8651 176.54C95.0491 176.692 95.2851 176.812 95.5731 176.9C95.8691 176.988 96.1971 177.076 96.5571 177.164C96.9171 177.244 97.2731 177.336 97.6251 177.44C97.9851 177.544 98.3091 177.68 98.5971 177.848C98.8931 178.016 99.1291 178.244 99.3051 178.532C99.4891 178.82 99.5811 179.184 99.5811 179.624C99.5811 180.072 99.4571 180.488 99.2091 180.872C98.9691 181.248 98.5971 181.552 98.0931 181.784C97.5891 182.008 96.9531 182.12 96.1851 182.12ZM104.444 182V173.6H105.728L110.996 180.068H110.36V173.6H111.908V182H110.624L105.356 175.532H105.992V182H104.444ZM117.027 182.084C116.315 182.084 115.691 181.944 115.155 181.664C114.627 181.376 114.215 180.984 113.919 180.488C113.631 179.992 113.487 179.428 113.487 178.796C113.487 178.156 113.627 177.592 113.907 177.104C114.195 176.608 114.587 176.22 115.083 175.94C115.587 175.66 116.159 175.52 116.799 175.52C117.423 175.52 117.979 175.656 118.467 175.928C118.955 176.2 119.339 176.584 119.619 177.08C119.899 177.576 120.039 178.16 120.039 178.832C120.039 178.896 120.035 178.968 120.027 179.048C120.027 179.128 120.023 179.204 120.015 179.276H114.675V178.28H119.223L118.635 178.592C118.643 178.224 118.567 177.9 118.407 177.62C118.247 177.34 118.027 177.12 117.747 176.96C117.475 176.8 117.159 176.72 116.799 176.72C116.431 176.72 116.107 176.8 115.827 176.96C115.555 177.12 115.339 177.344 115.179 177.632C115.027 177.912 114.951 178.244 114.951 178.628V178.868C114.951 179.252 115.039 179.592 115.215 179.888C115.391 180.184 115.639 180.412 115.959 180.572C116.279 180.732 116.647 180.812 117.063 180.812C117.423 180.812 117.747 180.756 118.035 180.644C118.323 180.532 118.579 180.356 118.803 180.116L119.607 181.04C119.319 181.376 118.955 181.636 118.515 181.82C118.083 181.996 117.587 182.084 117.027 182.084ZM123.892 182.084C123.188 182.084 122.644 181.904 122.26 181.544C121.876 181.176 121.684 180.636 121.684 179.924V174.176H123.184V179.888C123.184 180.192 123.26 180.428 123.412 180.596C123.572 180.764 123.792 180.848 124.072 180.848C124.408 180.848 124.688 180.76 124.912 180.584L125.332 181.652C125.156 181.796 124.94 181.904 124.684 181.976C124.428 182.048 124.164 182.084 123.892 182.084ZM120.628 176.84V175.64H124.9V176.84H120.628ZM127.865 182L125.513 175.592H126.929L128.945 181.244H128.273L130.385 175.592H131.645L133.697 181.244H133.037L135.113 175.592H136.445L134.081 182H132.641L130.769 176.996H131.213L129.305 182H127.865ZM140.18 182.084C139.524 182.084 138.94 181.944 138.428 181.664C137.916 181.376 137.512 180.984 137.216 180.488C136.92 179.992 136.772 179.428 136.772 178.796C136.772 178.156 136.92 177.592 137.216 177.104C137.512 176.608 137.916 176.22 138.428 175.94C138.94 175.66 139.524 175.52 140.18 175.52C140.844 175.52 141.432 175.66 141.944 175.94C142.464 176.22 142.868 176.604 143.156 177.092C143.452 177.58 143.6 178.148 143.6 178.796C143.6 179.428 143.452 179.992 143.156 180.488C142.868 180.984 142.464 181.376 141.944 181.664C141.432 181.944 140.844 182.084 140.18 182.084ZM140.18 180.8C140.548 180.8 140.876 180.72 141.164 180.56C141.452 180.4 141.676 180.168 141.836 179.864C142.004 179.56 142.088 179.204 142.088 178.796C142.088 178.38 142.004 178.024 141.836 177.728C141.676 177.424 141.452 177.192 141.164 177.032C140.876 176.872 140.552 176.792 140.192 176.792C139.824 176.792 139.496 176.872 139.208 177.032C138.928 177.192 138.704 177.424 138.536 177.728C138.368 178.024 138.284 178.38 138.284 178.796C138.284 179.204 138.368 179.56 138.536 179.864C138.704 180.168 138.928 180.4 139.208 180.56C139.496 180.72 139.82 180.8 140.18 180.8ZM145.035 182V175.592H146.463V177.356L146.295 176.84C146.487 176.408 146.787 176.08 147.195 175.856C147.611 175.632 148.127 175.52 148.743 175.52V176.948C148.679 176.932 148.619 176.924 148.563 176.924C148.507 176.916 148.451 176.912 148.395 176.912C147.827 176.912 147.375 177.08 147.039 177.416C146.703 177.744 146.535 178.236 146.535 178.892V182H145.035ZM151.239 180.572L151.275 178.688L154.623 175.592H156.423L153.579 178.448L152.787 179.108L151.239 180.572ZM150.015 182V173.096H151.515V182H150.015ZM154.851 182L152.511 179.108L153.459 177.908L156.675 182H154.851ZM157.74 179.216L157.452 173.6H159.228L158.928 179.216H157.74ZM158.34 182.084C158.06 182.084 157.828 181.992 157.644 181.808C157.46 181.624 157.368 181.404 157.368 181.148C157.368 180.892 157.46 180.676 157.644 180.5C157.828 180.316 158.06 180.224 158.34 180.224C158.62 180.224 158.848 180.316 159.024 180.5C159.2 180.676 159.288 180.892 159.288 181.148C159.288 181.404 159.2 181.624 159.024 181.808C158.848 181.992 158.62 182.084 158.34 182.084Z" fill="black"/>
<path d="M42.7 214.088V197.096H47.704V214.556C47.704 218.912 45.004 221.828 39.856 221.828C35.248 221.828 32.476 219.308 32.476 214.412V211.964H37.012V214.16C37.012 216.572 37.804 217.76 39.856 217.76C42.16 217.76 42.7 216.716 42.7 214.088ZM60.7037 217.544C64.3037 217.544 67.1837 215.024 67.1837 209.372C67.1837 203.72 64.8797 200.732 60.7037 200.732C56.4917 200.732 54.1517 203.72 54.1517 209.372C54.1517 215.024 56.5637 217.544 60.7037 217.544ZM60.7037 221.828C53.3597 221.828 49.2197 217.328 49.2197 209.264C49.2197 201.164 53.3597 196.304 60.7037 196.304C68.0477 196.304 72.1157 201.164 72.1157 209.372C72.1157 217.58 68.0477 221.828 60.7037 221.828ZM78.6289 221H73.6249V197.096H78.6289V221ZM99.8157 221H95.2077L84.9837 204.944V221H80.3397V197.096H85.6317L95.1357 212.468V197.096H99.8157V221ZM124.441 213.044V197.096H129.553V213.044C129.553 218.84 125.989 221.828 119.725 221.828C113.929 221.828 110.293 219.092 110.293 213.332V197.096H115.369V212.864C115.369 215.816 116.953 217.688 119.653 217.688C122.857 217.688 124.441 216.176 124.441 213.044ZM149.675 204.152H144.923C144.671 201.704 143.195 200.516 140.171 200.516C137.363 200.516 135.887 201.524 135.887 203.324C135.887 204.836 136.931 205.7 139.595 206.348C142.295 206.996 144.923 207.644 146.687 208.436C148.775 209.372 150.431 210.848 150.431 214.232C150.431 219.488 146.471 221.828 140.891 221.828C134.987 221.828 130.883 219.2 130.775 213.836H135.599C135.671 216.284 137.723 217.796 140.927 217.796C143.879 217.796 145.571 216.536 145.571 214.412C145.571 213.008 144.851 212.036 141.863 211.388C138.911 210.74 137.003 210.308 135.311 209.552C132.755 208.4 131.315 206.672 131.315 203.648C131.315 199.364 134.231 196.304 140.063 196.304C146.111 196.304 149.495 199.58 149.675 204.152ZM157.576 221H152.716V216.284H157.576V221ZM156.424 214.376H153.94C153.004 208.652 152.536 203.684 152.536 199.652C152.536 198.68 152.536 197.816 152.716 197.096H157.684C157.756 197.888 157.828 198.788 157.828 199.76C157.828 203.72 157.36 208.652 156.424 214.376Z" fill="black"/>
<line x1="22.0039" y1="231.691" x2="176.005" y2="231.691" stroke="black" stroke-width="3"/>
</svg>
