<svg width="169" height="169" viewBox="0 0 169 169" fill="none" xmlns="http://www.w3.org/2000/svg">
<circle opacity="0.7" cx="84.5" cy="84.5" r="84.5" fill="black"/>
<path d="M96.8555 111.581H73.1444C72.7044 111.581 72.2889 111.336 72.0933 110.969C66.6666 101.461 63.9044 91.3405 63.9289 80.9028C63.9533 72.5672 65.7133 64.0117 69.1844 55.505C75.0755 41.0339 83.7533 31.7694 84.12 31.3783C84.5844 30.8894 85.3666 30.865 85.8555 31.3294C86.3444 31.7939 86.3689 32.5761 85.9044 33.065C85.8066 33.1628 77.1533 42.4272 71.4333 56.5072C63.9044 75.0361 64.7355 92.7339 73.8778 109.161H96.8555C97.54 109.161 98.0777 109.698 98.0777 110.383C98.0777 111.067 97.54 111.581 96.8555 111.581Z" fill="white"/>
<path d="M96.8553 111.578C96.6597 111.578 96.4397 111.529 96.2442 111.407C95.6575 111.065 95.462 110.332 95.7797 109.745C105.264 93.1473 106.193 75.2295 98.5664 56.4806C92.8464 42.4006 84.1686 33.1362 84.0953 33.0384C83.6309 32.5495 83.6553 31.7673 84.1442 31.3028C84.6331 30.8384 85.4153 30.8628 85.8797 31.3517C86.2464 31.7428 94.8997 41.0073 100.815 55.4784C104.286 64.0095 106.071 72.5406 106.071 80.8762C106.095 91.3139 103.333 101.434 97.9064 110.943C97.6864 111.358 97.2709 111.578 96.8553 111.578Z" fill="white"/>
<path d="M52.9779 111.872C52.8557 111.872 52.709 111.847 52.5868 111.798C52.1468 111.652 51.829 111.261 51.7557 110.796C49.9224 97.0829 53.4913 88.7718 56.7913 84.2251C60.4335 79.1895 64.5402 77.5029 64.7357 77.4295C65.3713 77.1851 66.0802 77.4784 66.3246 78.114C66.569 78.7495 66.2757 79.4584 65.6402 79.7029C65.5913 79.7273 61.9002 81.2673 58.6735 85.7895C54.7379 91.2895 53.1002 98.9406 53.9068 107.985L66.3735 95.5184C66.8624 95.0295 67.6201 95.0295 68.109 95.5184C68.5979 96.0073 68.5979 96.7651 68.109 97.254L53.8335 111.53C53.6135 111.75 53.2957 111.872 52.9779 111.872Z" fill="white"/>
<path d="M116.998 111.334C116.68 111.334 116.363 111.212 116.143 110.967L102.014 96.8384C101.525 96.3495 101.525 95.5917 102.014 95.1028C102.503 94.6139 103.26 94.6139 103.749 95.1028L116.094 107.447C118.098 84.9828 104.507 79.2384 104.36 79.165C103.725 78.9206 103.431 78.2117 103.676 77.5761C103.92 76.9406 104.629 76.6472 105.265 76.8917C105.436 76.965 109.543 78.6517 113.209 83.6872C116.509 88.2339 120.078 96.545 118.245 110.258C118.171 110.723 117.854 111.114 117.414 111.261C117.267 111.334 117.12 111.334 116.998 111.334Z" fill="white"/>
<path d="M93.3847 119.718H76.6158C75.9313 119.718 75.3936 119.181 75.3936 118.496V110.356C75.3936 109.672 75.9313 109.134 76.6158 109.134C77.3002 109.134 77.838 109.672 77.838 110.356V117.274H92.1624V110.356C92.1624 109.672 92.7002 109.134 93.3847 109.134C94.0691 109.134 94.6069 109.672 94.6069 110.356V118.496C94.6069 119.181 94.0691 119.718 93.3847 119.718Z" fill="white"/>
<path d="M84.9511 139.029C84.7067 139.029 84.4378 138.956 84.2178 138.785C76.4934 133.089 75.5645 124.314 75.5156 123.923C75.4422 123.263 75.9311 122.652 76.6156 122.578C77.2756 122.505 77.8867 122.994 77.96 123.678C77.96 123.752 78.7911 131.183 84.9511 136.243C91.1356 131.183 91.9422 123.752 91.9422 123.678C92.0156 123.018 92.6022 122.505 93.2867 122.578C93.9467 122.652 94.46 123.238 94.3867 123.923C94.3622 124.289 93.4089 133.065 85.6845 138.785C85.4645 138.956 85.22 139.029 84.9511 139.029Z" fill="white"/>
<path d="M89.4491 111.578C88.7646 111.578 88.2268 111.041 88.2268 110.356V91.5094H81.798V110.356C81.798 111.041 81.2602 111.578 80.5757 111.578C79.8913 111.578 79.3535 111.041 79.3535 110.356V90.2872C79.3535 89.6027 79.8913 89.0649 80.5757 89.0649H89.4491C90.1335 89.0649 90.6713 89.6027 90.6713 90.2872V110.356C90.6713 111.041 90.1091 111.578 89.4491 111.578Z" fill="white"/>
<path d="M85.0001 84.2006C78.6934 84.2006 73.5601 79.0672 73.5601 72.7606C73.5601 66.4539 78.6934 61.3206 85.0001 61.3206C91.3067 61.3206 96.4401 66.4539 96.4401 72.7606C96.4401 79.0672 91.3067 84.2006 85.0001 84.2006ZM85.0001 63.765C80.0378 63.765 76.0045 67.7983 76.0045 72.7606C76.0045 77.7228 80.0378 81.7561 85.0001 81.7561C89.9623 81.7561 93.9956 77.7228 93.9956 72.7606C93.9956 67.7983 89.9623 63.765 85.0001 63.765Z" fill="white"/>
<path d="M92.529 56.3583C91.8934 56.3583 91.3801 55.8939 91.3067 55.2583C91.3067 55.185 90.549 47.8272 85.0001 42.7672C79.4023 47.8272 78.6934 55.185 78.6934 55.2583C78.6445 55.9428 78.0334 56.4317 77.3734 56.3583C76.6889 56.3094 76.2001 55.6983 76.2734 55.0383C76.2978 54.6716 77.1778 45.9205 84.2667 40.2005C84.7067 39.8339 85.3423 39.8339 85.8067 40.2005C92.8956 45.8961 93.7512 54.6716 93.8001 55.0383C93.849 55.7228 93.3601 56.3094 92.7001 56.3583C92.6023 56.3583 92.5778 56.3583 92.529 56.3583Z" fill="white"/>
</svg>
