<svg width="106" height="106" viewBox="0 0 106 106" fill="none" xmlns="http://www.w3.org/2000/svg">
<path d="M52.9984 103.35C25.2356 103.35 2.64844 80.7632 2.64844 53.0004C2.64844 25.2376 25.2356 2.65039 52.9984 2.65039C80.7613 2.65039 103.348 25.2376 103.348 53.0004C103.348 80.7632 80.7613 103.35 52.9984 103.35ZM52.9984 4.83952C26.4424 4.83952 4.83757 26.4444 4.83757 53.0004C4.83757 79.5564 26.4424 101.161 52.9984 101.161C79.5545 101.161 101.159 79.5564 101.159 53.0004C101.159 26.4444 79.5545 4.83952 52.9984 4.83952Z" fill="#D3B7FF"/>
<path d="M52.9999 32.4159C37.8181 32.4159 23.6208 29.005 14.0487 23.0586C13.5346 22.739 13.3775 22.0645 13.696 21.5514C14.0156 21.0362 14.6901 20.8812 15.2032 21.1987C24.4386 26.9366 38.2147 30.2267 52.9999 30.2267C67.7936 30.2267 81.5751 26.9366 90.8105 21.1987C91.3235 20.8812 91.998 21.0362 92.3176 21.5514C92.6362 22.0645 92.479 22.739 91.9649 23.0586C82.3928 29.005 68.1912 32.4159 52.9999 32.4159Z" fill="#D3B7FF"/>
<path d="M91.3866 84.9658C91.1899 84.9658 90.9901 84.9123 90.8105 84.8011C81.574 79.0632 67.7925 75.7731 52.9999 75.7731C38.2168 75.7731 24.4396 79.0632 15.2032 84.8011C14.6901 85.1186 14.0156 84.9636 13.696 84.4484C13.3775 83.9353 13.5346 83.2608 14.0487 82.9412C23.6219 76.9949 37.8192 73.584 52.9999 73.584C68.1891 73.584 82.3917 76.9949 91.9649 82.9412C92.479 83.2608 92.6362 83.9353 92.3176 84.4484C92.1103 84.7819 91.7522 84.9658 91.3866 84.9658Z" fill="#D3B7FF"/>
<path d="M52.9996 103.35C38.8162 103.35 27.2773 80.7632 27.2773 53.0004C27.2773 25.2376 38.8162 2.65039 52.9996 2.65039C67.183 2.65039 78.7219 25.2376 78.7219 53.0004C78.7219 80.7632 67.183 103.35 52.9996 103.35ZM52.9996 4.83952C40.023 4.83952 29.4665 26.4444 29.4665 53.0004C29.4665 79.5564 40.023 101.161 52.9996 101.161C65.9762 101.161 76.5328 79.5564 76.5328 53.0004C76.5328 26.4444 65.9762 4.83952 52.9996 4.83952Z" fill="#D3B7FF"/>
<path d="M102.256 54.0944H3.74691C3.14191 54.0944 2.65234 53.6048 2.65234 52.9998C2.65234 52.3948 3.14191 51.9053 3.74691 51.9053H102.256C102.861 51.9053 103.35 52.3948 103.35 52.9998C103.35 53.6048 102.861 54.0944 102.256 54.0944Z" fill="#D3B7FF"/>
<path d="M53.0008 103.349C52.3958 103.349 51.9062 102.86 51.9062 102.255V3.74593C51.9062 3.14093 52.3958 2.65137 53.0008 2.65137C53.6058 2.65137 54.0954 3.14093 54.0954 3.74593V102.255C54.0954 102.86 53.6058 103.349 53.0008 103.349Z" fill="#D3B7FF"/>
</svg>
