<svg width="106" height="106" viewBox="0 0 106 106" fill="none" xmlns="http://www.w3.org/2000/svg">
<path d="M59.4656 79.2502L67.396 83.6548C67.5554 83.7438 67.7334 83.7883 67.9104 83.7883C68.0874 83.7883 68.2655 83.7438 68.4249 83.6548L76.3542 79.2502C81.6407 76.3145 84.9253 70.7329 84.9253 64.6845V52.4324C84.9253 51.8693 84.4843 51.4045 83.9222 51.3735C80.972 51.2151 78.6605 48.8684 78.5467 45.9161C78.5249 45.3468 78.057 44.8965 77.4877 44.8965H58.3321C57.7628 44.8965 57.2949 45.3468 57.2732 45.9161C57.1593 48.8684 54.8478 51.2151 51.8976 51.3735C51.3355 51.4045 50.8945 51.8693 50.8945 52.4324V64.6845C50.8945 70.7319 54.1791 76.3135 59.4656 79.2502ZM53.0145 53.3734C56.2432 52.7844 58.7421 50.2513 59.2865 47.0165H76.5333C77.0778 50.2513 79.5766 52.7844 82.8053 53.3734V64.6845C82.8053 69.9638 79.9389 74.8342 75.3253 77.3973L67.9104 81.5162L60.4946 77.3973C55.8809 74.8342 53.0145 69.9628 53.0145 64.6845V53.3734Z" fill="#D3B7FF"/>
<path d="M94.3416 31.3224H70.3487V11.6596C70.3487 11.0737 69.8746 10.5996 69.2887 10.5996H11.6616C11.0757 10.5996 10.6016 11.0737 10.6016 11.6596V88.5096C10.6016 89.0955 11.0757 89.5696 11.6616 89.5696H40.4213V94.3396C40.4213 94.9255 40.8954 95.3996 41.4813 95.3996H94.3416C94.9275 95.3996 95.4016 94.9255 95.4016 94.3396V32.3824C95.4016 31.7965 94.9275 31.3224 94.3416 31.3224ZM67.5082 12.7196L62.6378 21.6934H18.3124L13.4429 12.7196H67.5082ZM12.7216 87.4496V15.8343L16.7504 23.2585C16.9357 23.6001 17.2928 23.8134 17.682 23.8134H63.2682C63.6564 23.8134 64.0146 23.6001 64.1999 23.2585L68.2287 15.8355V31.3224H41.4813C40.8954 31.3224 40.4213 31.7965 40.4213 32.3824V87.4496H12.7216ZM93.2816 93.2796H42.5413V33.4424H93.2816V93.2796Z" fill="#D3B7FF"/>
</svg>
