<svg width="55" height="55" viewBox="0 0 55 55" fill="none" xmlns="http://www.w3.org/2000/svg">
<path d="M27.5 5.5C15.3691 5.5 5.5 15.3691 5.5 27.5C5.5 39.6309 15.3691 49.5 27.5 49.5C39.6309 49.5 49.5 39.6309 49.5 27.5C49.5 15.3691 39.6309 5.5 27.5 5.5ZM28.05 21.3099C31.2998 21.5041 33.8865 24.2022 33.8865 27.5C33.8865 30.7978 31.2998 33.4958 28.05 33.6901V21.3099ZM28.05 34.7901C31.9067 34.5943 34.9865 31.4045 34.9865 27.5C34.9865 23.5955 31.9067 20.4057 28.05 20.2099V14.09C35.2775 14.2885 41.0969 20.2254 41.0969 27.5C41.0969 34.7746 35.2775 40.7115 28.05 40.91V34.7901ZM6.6 27.5C6.6 16.1602 15.6797 6.90746 26.95 6.61396V48.386C15.6797 48.0925 6.6 38.8398 6.6 27.5ZM28.05 48.386V42.0099C35.8842 41.8111 42.1969 35.3812 42.1969 27.5C42.1969 19.6188 35.8842 13.1889 28.05 12.9901V6.61396C39.3203 6.90746 48.4 16.1602 48.4 27.5C48.4 38.8398 39.3203 48.0925 28.05 48.386Z" fill="#D3B7FF"/>
</svg>
