<svg width="38" height="38" viewBox="0 0 38 38" fill="none" xmlns="http://www.w3.org/2000/svg">
<path d="M37.1233 19.7746H0.877143C0.44599 19.7746 0.0976562 19.4263 0.0976562 18.9951C0.0976562 18.564 0.44599 18.2156 0.877143 18.2156H35.2403L30.5098 13.4851C30.2053 13.1806 30.2053 12.6861 30.5098 12.3817C30.8143 12.0772 31.3088 12.0772 31.6133 12.3817L37.6762 18.4446C37.9003 18.6687 37.9661 19.0024 37.8443 19.2947C37.7225 19.5846 37.4375 19.7746 37.1233 19.7746Z" fill="#D3B7FF"/>
<path d="M31.0533 25.8449C30.8536 25.8449 30.6538 25.7694 30.5028 25.6159C30.1983 25.3114 30.1983 24.8169 30.5028 24.5125L36.573 18.4422C36.8775 18.1377 37.372 18.1377 37.6765 18.4422C37.981 18.7467 37.981 19.2412 37.6765 19.5457L31.6062 25.6159C31.4528 25.7694 31.253 25.8449 31.0533 25.8449Z" fill="#D3B7FF"/>
</svg>
