<svg width="55" height="55" viewBox="0 0 55 55" fill="none" xmlns="http://www.w3.org/2000/svg">
<path d="M27.5363 34.3322C25.5074 34.3322 23.8574 32.6822 23.8574 30.6533C23.8574 30.3111 24.1263 30.0422 24.4685 30.0422C24.8108 30.0422 25.0796 30.3111 25.0796 30.6533C25.0796 32.01 26.1796 33.11 27.5363 33.11C28.893 33.11 29.993 32.01 29.993 30.6533C29.993 29.2966 28.893 28.1966 27.5363 28.1966C25.5074 28.1966 23.8574 26.5466 23.8574 24.5178C23.8574 22.4889 25.5074 20.8389 27.5363 20.8389C29.5652 20.8389 31.2152 22.4889 31.2152 24.5178C31.2152 24.86 30.9463 25.1289 30.6041 25.1289C30.2619 25.1289 29.993 24.86 29.993 24.5178C29.993 23.1611 28.893 22.0611 27.5363 22.0611C26.1796 22.0611 25.0796 23.1611 25.0796 24.5178C25.0796 25.8744 26.1796 26.9744 27.5363 26.9744C29.5652 26.9744 31.2152 28.6244 31.2152 30.6533C31.2152 32.6822 29.553 34.3322 27.5363 34.3322Z" fill="#D3B7FF"/>
<path d="M27.5369 35.2852C27.1947 35.2852 26.9258 35.0163 26.9258 34.6741V20.5086C26.9258 20.1663 27.1947 19.8975 27.5369 19.8975C27.8791 19.8975 28.148 20.1663 28.148 20.5086V34.6741C28.148 35.0163 27.8669 35.2852 27.5369 35.2852Z" fill="#D3B7FF"/>
<path d="M27.5365 38.9031C21.291 38.9031 16.2188 33.8309 16.2188 27.5854C16.2188 21.3398 21.291 16.2676 27.5365 16.2676C33.7821 16.2676 38.8543 21.3398 38.8543 27.5854C38.8543 33.8309 33.7699 38.9031 27.5365 38.9031ZM27.5365 17.4898C21.9632 17.4898 17.441 22.0242 17.441 27.5854C17.441 33.1465 21.9754 37.6809 27.5365 37.6809C33.0976 37.6809 37.6321 33.1465 37.6321 27.5854C37.6321 22.0242 33.0976 17.4898 27.5365 17.4898Z" fill="#D3B7FF"/>
<path d="M27.5365 42.8382C19.1276 42.8382 12.2832 35.9937 12.2832 27.5849C12.2832 19.176 19.1276 12.3438 27.5365 12.3438C35.9454 12.3438 42.7776 19.176 42.7776 27.5849C42.7776 35.9937 35.9454 42.8382 27.5365 42.8382ZM27.5365 13.566C19.7999 13.566 13.5054 19.8604 13.5054 27.5971C13.5054 35.3337 19.7999 41.616 27.5365 41.616C35.2732 41.616 41.5554 35.3215 41.5554 27.5849C41.5554 19.8482 35.261 13.566 27.5365 13.566Z" fill="#D3B7FF"/>
<path d="M43.8169 17.7708C43.7436 17.7708 43.658 17.7586 43.5847 17.7219C43.3524 17.6241 43.2058 17.4041 43.2058 17.1597V13.5664H27.5369C27.1947 13.5664 26.9258 13.2975 26.9258 12.9552V5.40191C26.9258 5.05969 27.1947 4.7908 27.5369 4.7908H43.218V1.18524C43.218 0.940799 43.3647 0.708577 43.5969 0.623022C43.8291 0.537466 44.0858 0.574133 44.2691 0.757466L52.2502 8.73858C52.4947 8.9708 52.4947 9.36191 52.2502 9.60635L44.2691 17.5875C44.1347 17.7097 43.988 17.7708 43.8169 17.7708ZM28.148 12.3441H43.8291C44.1713 12.3441 44.4402 12.613 44.4402 12.9552V15.693L50.9547 9.17858L44.4402 2.66413V5.40191C44.4402 5.74413 44.1713 6.01302 43.8291 6.01302H28.148V12.3441Z" fill="#D3B7FF"/>
<path d="M11.2446 54.5968C11.0857 54.5968 10.9268 54.5357 10.8168 54.4135L2.83568 46.4323C2.59123 46.1879 2.59123 45.809 2.83568 45.5646L10.8168 37.5835C10.9879 37.4123 11.2568 37.3512 11.4768 37.449C11.709 37.5468 11.8557 37.7668 11.8557 38.0112V41.6168H27.5368C27.879 41.6168 28.1479 41.8857 28.1479 42.2279V49.7812C28.1479 50.1235 27.879 50.3923 27.5368 50.3923H11.8557V53.9979C11.8557 54.2423 11.709 54.4746 11.4768 54.5601C11.4035 54.5846 11.3179 54.5968 11.2446 54.5968ZM4.11901 46.0046L10.6335 52.519V49.7812C10.6335 49.439 10.9023 49.1701 11.2446 49.1701H26.9257V42.839H11.2446C10.9023 42.839 10.6335 42.5701 10.6335 42.2279V39.4901L4.11901 46.0046Z" fill="#D3B7FF"/>
</svg>
