<svg width="60" height="60" viewBox="0 0 60 60" fill="none" xmlns="http://www.w3.org/2000/svg">
<g clip-path="url(#clip0_202_28)">
<path d="M10.5156 42.2417C14.0535 44.5106 18.2558 45.8342 22.7713 45.8342C37.477 45.8342 45.5182 33.652 45.5182 23.0863C45.5182 22.7403 45.5105 22.3952 45.4955 22.0521C47.0579 20.9252 48.4129 19.517 49.4847 17.9136C48.0509 18.5495 46.5103 18.9796 44.8929 19.1729C46.5437 18.1832 47.8112 16.6166 48.408 14.7498C46.8631 15.6655 45.1524 16.3314 43.3315 16.6895C41.8731 15.1359 39.7951 14.165 37.4953 14.165C33.0804 14.165 29.5005 17.7449 29.5005 22.1599C29.5005 22.7862 29.5715 23.3965 29.7078 23.9817C23.0636 23.6483 17.1724 20.4656 13.2291 15.6283C12.5409 16.8094 12.1466 18.1823 12.1466 19.648C12.1466 22.4213 13.5577 24.8685 15.7033 26.3023C14.3922 26.2607 13.1595 25.9007 12.0818 25.302C12.0813 25.3358 12.0813 25.3691 12.0813 25.403C12.0813 29.2762 14.8373 32.5077 18.4945 33.2422C17.8238 33.4244 17.1173 33.523 16.3881 33.523C15.8729 33.523 15.3723 33.4727 14.8837 33.379C15.9009 36.5553 18.8541 38.8667 22.3523 38.931C19.6161 41.0756 16.1687 42.3538 12.423 42.3538C11.7774 42.3538 11.1409 42.3161 10.5156 42.2417Z" fill="white"/>
<path d="M0 0V60H60V0H0ZM56.2887 56.2887H3.71134V3.71134H56.2887V56.2887Z" fill="white"/>
</g>
<defs>
<clipPath id="clip0_202_28">
<rect width="60" height="60" fill="white"/>
</clipPath>
</defs>
</svg>
